<?xml version="1.0" encoding="utf-8"?>
<!-- Generator: Adobe Illustrator 26.5.0, SVG Export Plug-In . SVG Version: 6.00 Build 0)  -->
<svg version="1.1" id="Calque_1" xmlns="http://www.w3.org/2000/svg" xmlns:xlink="http://www.w3.org/1999/xlink" x="0px" y="0px"
	 viewBox="0 0 200 200" style="enable-background:new 0 0 200 200;" xml:space="preserve">
<style type="text/css">
	.st0{fill-rule:evenodd;clip-rule:evenodd;fill:#FFFFFF;}
</style>
<g>
	<path class="st0" d="M30.8,82.9c-0.8,10.1-1.6,19.7-2.1,30c-2.1,0.3-6.5,0.3-8.6,0c-0.2-1.3,0.6-3.5,0.6-5.3
		c-0.9-0.2-2.2,0-3.2-0.1c-0.9,1.6-1.2,3.8-1.9,5.6c-2.8,0-6.4,0.1-8.5-0.1c0.4-1.2,11.2-29.2,11.3-30.2
		C21.5,82.7,27.1,82.5,30.8,82.9 M18.8,102.3c1,0,1.6-0.1,2.6-0.1c0.9-4.1,1.2-8.2,2.1-12.3c-0.2,0-0.2,0.3-0.4,0.2
		C21.5,94.3,20.1,98,18.8,102.3"/>
	<path class="st0" d="M46,90.1c0.6-0.4,0.7-1.2,1.2-1.8c2.2-0.2,5.2-0.2,7.4,0c-0.2,1.1-2.3,10.2-2.7,12.1c-1,4.3-2.1,8.8-3.4,12.8
		c-0.5,0.7-0.8,1.1-1.4,1.6c-5.2,4-16.5,3.4-17-0.6c-0.1-0.9-0.2-2.1,0.2-2.7h7.7c0.1,0.8-0.1,1.2,0.5,1.7c1.4,0.1,2.3-0.1,2.7-1.1
		c0.5-1,0.7-2.9,0.6-3.5c-1.1,0.5-2.5,1.5-4.1,1.7c-1.5,0.2-3.3,0-4.4-0.7c-1.7-1-1.8-3.2-1.3-5.7c0.5-2.5,1.3-5.3,1.9-7.8
		c0.8-3.3,1.5-6.3,4.3-7.6C40.7,87.1,44.3,87.6,46,90.1 M43.3,92.1c-0.5,1-0.3,1.9-0.9,3.8c-0.4-0.1-0.4,1-0.5,1.4
		c-0.7,2.7-2.2,5.6-1.9,8.5c0.8,0.1,1.4,0.1,1.9-0.2c0.8-1.1,0.9-2.9,1.4-4.3c0.5-1.6,1.1-4.5,1.6-6.4c0.3-1.1,0.4-2.2,0.2-2.8
		C44.6,91.9,43.9,92,43.3,92.1"/>
	<path class="st0" d="M59.9,113c-3.1-0.1-4.6,0-7.9-0.2c2-8.3,3.9-16.4,5.8-24.6c2.6-0.1,5.4,0.1,7.8-0.1c0.1,1.3-0.7,1.8-0.6,3.1
		c1.6-1.4,3-3,5.6-3.5c0.1,0,0.2,0,0.2,0.1c-0.5,3-1.2,5.7-1.9,8.4c-1.1,0.3-2.5,0.2-3.5,0.6c-0.6,0.1-1,0.4-1.5,1.2
		C62.2,102.6,61.4,108.2,59.9,113"/>
	<path class="st0" d="M118.1,82.6c0.1,0,0.1,0.1,0.1,0.2c-2.3,9.8-4.7,20.3-7.2,30.2c-2.5,0.1-5.6,0.2-8.1,0c2-10,4.8-20,6.9-30.2
		C112.8,82.8,115.5,82.7,118.1,82.6"/>
	<path class="st0" d="M121.7,82.7c2.2,0,5.7,0,8,0c-0.4,1.6-0.5,2.4-0.8,3.6c-2.5,0.1-5.4,0.1-8.2,0.1
		C121,85.1,121.4,83.7,121.7,82.7"/>
	<path class="st0" d="M141.9,90.1c0.5-0.5,0.6-0.8,1.1-1.8c2.3-0.2,5.3-0.2,7.6,0c-0.8,3.2-4,16.4-4.2,17.1
		c-0.7,3.1-0.9,6.2-2.6,8.2c-2.5,2.8-6.7,4.1-12.6,3.6c-2.4-0.2-4.6-1.2-5.3-3.1c-0.1-1-0.1-2.1,0.3-2.7h7.6
		c0.2,0.3,0.1,0.9,0.1,1.3c0.9,0.7,2.3,0.5,2.8-0.2c0.7-1,0.7-2.8,1.1-4c-1.1,0.3-2.5,1.4-4.3,1.7c-3.1,0.4-6-0.8-6-3.7
		c0-0.5,0.2-1.3,0.3-1.9c0.4-2.6,1.6-6,2-8.5c0.5-3.1,1.9-7,5.1-8C137.7,87.2,140.6,88,141.9,90.1 M139.3,92.1
		c-1.2,1.2-1.4,3.6-1.9,5.9c-0.6,2.7-1.4,4.6-1.6,7.5c0.5,0.6,1.5,0.4,2.1,0.1c1.4-3.2,2.1-7.3,3-10.9c0.2-0.7,0.2-1.8,0.2-2.6
		C140.6,92,139.9,91.9,139.3,92.1"/>
	<path class="st0" d="M128.5,88.3c-1.9,8.2-4,16.2-5.7,24.5c-2.3,0.4-6.1,0.2-8.3,0.1c0.6-3.8,1.9-8.5,2.9-12.3
		c0.2-0.9,0.4-1.8,0.6-2.6c0.1-0.4,1.7-6.9,2.2-9.8C123,88.3,124.9,88.3,128.5,88.3"/>
	<path class="st0" d="M159.6,109.7c0.9-4.1,2.4-8.8,3.2-13.3c0.3-1.2,0.9-3.9,0.6-4.3c-1-0.4-2.1-0.2-2.5,0.7c-0.7,1.5-1,4-1.5,5.8
		c-1,4.4-2.4,9.5-3.3,14.2c-3,0-5.3,0-8.2,0c2.1-8.1,3.8-16.4,5.9-24.4c2.3-0.1,5.6-0.2,8-0.1c0,0.8-0.4,1.2-0.4,1.9
		c0.9-0.2,1.5-1,2.3-1.6c2.3-1.3,6.6-1.5,7.9,1.2c0.4,0.8,0,2.1-0.4,4c-1.2,6.6-2.9,12.8-4.4,19.2c-1.6,0-4.1,0-6.1,0
		c-1.3,0-1.8-0.2-1.8-0.3C158.9,112.4,159.5,110.4,159.6,109.7"/>
	<path class="st0" d="M191.6,101h-10.8c-0.6,2.1-1.6,5.2-1.7,7.9c1,0.8,2.3,0.2,2.9-0.4c0.5-1.8,1-4.4,1.5-5.6
		c2.3,0,5.4,0.1,7.7,0.1c-0.7,1.7-1,3.7-1.7,5.4c-0.7,1.2-1.6,2.1-2.7,3c-2.1,1.6-7.1,2.9-11.2,1.8c-2.4-0.7-3.3-1.8-4.2-3.7
		c-0.2-0.6-0.2-1-0.2-1.5c0.5-3.4,1.2-6.6,2.1-9.6c1.7-6.9,5.2-11.5,13.5-10.4c3.2,0.4,6,2.2,6,5.7C193,96.3,192,98.4,191.6,101
		 M183.1,92.1c-0.7,1.3-0.9,3.2-1.4,4.7c-0.1,0.3,0,0.4,0.2,0.4h2.4c0.4-1.5,0.9-3,0.9-5C184.7,91.9,183.8,92.1,183.1,92.1"/>
	<g>
		<path class="st0" d="M94.1,105.6c-1.2,1.2-4.9,1.4-5-0.9c0.1-0.2,0.4-0.2,0.4-0.5c-0.6-1,0.6-1.9,1.3-2.3
			c-0.1-0.6,0.3-0.7,0.4-1.3c-0.4-0.5-0.3-0.8-0.3-1.7c0.5,0.1,0.8-0.1,1-0.3c-0.1-0.4-0.7-0.2-0.5-0.8c0.6-0.5,1.3-1.2,1.4-1.9
			c-0.4,0.1-0.6,0.4-1,0.6c0-0.2-0.1-0.2-0.2-0.3c0.4-0.7-0.1-2.4,0.5-2.9c0.3,0,0.7,0.1,1.1-0.2c-0.1-0.5,0.2-0.8,0-1.2
			c-1.9,0.1-3.1-2.7-5.4-1.4c0-0.3-0.7-0.1-0.8-0.3c-0.1-0.6,0.3-0.5,0.4-0.9c-0.2,0-0.3,0-0.4-0.1c-0.3,0.9-1.1,1.6-2,1.4v-0.5
			c0.5-0.1,1-0.2,1.2-0.6c-0.8-0.2-0.9-0.1-2.4,0.4c-2.3,0.8-4.4,2-6.1,3.2c-1.8,1.7-3,3-4,5.1c-0.3,0.6-0.5,1.3-0.7,2
			c-0.4,1.3-0.6,3.1-0.2,5c1.6,5.9,7,9,14.9,7.9c2.2-0.7,4.3-1.5,6-2.6c0.2-0.9,0.9-1.3,0.8-2.5c0.4-0.1,0.7-0.4,0.8-0.9
			C94.4,107,94.6,106,94.1,105.6z M90,96.2h0.5c0.1,0.5,0.6,0.7,1,1c-0.2,0.7-0.8,0.9-1.7,0.8C89.5,97.3,89.9,96.8,90,96.2z
			 M78.8,103.5h-1c-0.1-0.4-0.3-0.7-0.9-0.6c-0.1-0.4-0.4-0.7-0.8-0.8v-0.8c1-0.3,1.4,0.6,1.6,1.4c0.5-0.1,0.5,0.3,1.1,0.2V103.5z
			 M83.5,98.9c-0.5,0-0.8-0.3-0.8-1c0.4,0,0.7,0,1,0.1C83.7,98.4,83.4,98.4,83.5,98.9z M83.5,95.6c0.1-0.4-0.2-0.3-0.2-0.6
			c0.3-0.5,0.8-0.9,0.7-1.6h0.7C85.2,94.5,84.6,95.6,83.5,95.6z M87.9,96c0-0.2-0.5-0.8,0-0.9c-0.9-0.2-1.3,1-1.9,1.5h-0.7
			c-0.6-0.9-0.3-1.9,0.4-2.4c-0.1-1-0.8-1.2-1.7-1.4c-0.1-0.3,0.1-0.5,0.1-0.7C85,92,86,92,86.1,92.8c0.8-0.1,1.6-0.4,2.4,0
			c-0.2,0.7,0,0.5,0,1.3c-0.2,0-0.2,0.2-0.4,0.3c-0.1,0.4,0.3,0.3,0.2,0.7c0.4-0.1,0.6,0.1,0.8,0.3C89,95.8,88.6,96.1,87.9,96z"/>
		<path class="st0" d="M97,98.3c-0.1,0.3,0.1,0.4,0.1,0.6c0.3,0,0.4-0.3,0.5-0.5C97.5,98.3,97.2,98.3,97,98.3z"/>
		<path class="st0" d="M94.6,99.1c0.1-0.3-0.3-0.1-0.2-0.4c-0.4,0.2-0.5-0.1-0.8-0.2c0,0.1,0,0.2-0.2,0.2c0.1,0.3-0.1,0.8,0.1,0.9
			c0.2-0.1,0-0.5,0.2-0.6c0.3,0.1,0.3-0.1,0.5-0.1c0.2,0.8,0.9,1.2,1.8,0.9c-0.2-0.6,0.5-0.3,0.6-0.6C95.8,99.1,95.4,98.9,94.6,99.1
			z"/>
		<path class="st0" d="M92.7,99.7c0.1,0,0.2,0.1,0.2,0.2c0.2,0,0.4-0.1,0.5-0.3C93.2,99.5,92.7,99.4,92.7,99.7z"/>
	</g>
</g>
</svg>
