<?xml version="1.0" encoding="utf-8"?>
<!-- Generator: Adobe Illustrator 26.5.0, SVG Export Plug-In . SVG Version: 6.00 Build 0)  -->
<svg version="1.1" id="Calque_1" xmlns="http://www.w3.org/2000/svg" xmlns:xlink="http://www.w3.org/1999/xlink" x="0px" y="0px"
	 viewBox="0 0 200 200" style="enable-background:new 0 0 200 200;" xml:space="preserve">
<style type="text/css">
	.st0{fill:#FFFFFF;}
</style>
<g>
	<g>
		<path class="st0" d="M57.9,53.9c-2.5-1.7-5.5-2.7-8.7-2.7c-8.6,0-15.5,7.1-15.5,15.8s6.9,15.8,15.5,15.8
			c19.3,0,19.2-30.1,19.2-30.1h-8.8c0,0,0,1.1-0.1,2.7c-0.4,5.6-2.1,18-10.4,18c-3.6,0-6.1-2.9-6.1-6.8c0-3.9,3.5-6,6-6
			c4.3,0,7.1,4,7.1,4S57.6,62.2,57.9,53.9"/>
		<path class="st0" d="M119.4,53.9c-2.5-1.7-5.5-2.7-8.7-2.7c-8.6,0-15.5,7.1-15.5,15.8s6.9,15.8,15.5,15.8
			c19.3,0,19.2-30.1,19.2-30.1h-8.8c0,0,0,1.1-0.1,2.7c-0.4,5.6-2.1,18-10.4,18c-3.6,0-6.1-2.9-6.1-6.8c0-3.9,3.5-6,6-6
			c4.3,0,7.1,4,7.1,4S119.1,62.2,119.4,53.9"/>
		<path class="st0" d="M89,51.2c-19.3,0-19.2,30.1-19.2,30.1v17.9h8.8V81.3c0,0,0-1.1,0.1-2.7c0.4-5.6,2.1-18,10.4-18
			c3.6,0,6.1,2.9,6.1,6.8s-3.5,6-6,6c-4.3,0-7.1-4-7.1-4s-1.4,2.2-1.7,10.6c2.5,1.7,5.5,2.7,8.7,2.7c8.6,0,15.5-7.1,15.5-15.8
			S97.5,51.2,89,51.2z"/>
		<path class="st0" d="M150.7,82.6c-19.3,0-19.2-30.1-19.2-30.1V34.6h8.8v17.9c0,0,0,1.1,0.1,2.7c0.4,5.6,2.1,18,10.4,18
			c3.6,0,6.1-2.9,6.1-6.8c0-3.9-3.5-6-6-6c-4.3,0-7.1,4-7.1,4s-1.4-2.2-1.7-10.6c2.5-1.7,5.5-2.7,8.7-2.7c8.6,0,15.5,7.1,15.5,15.8
			C166.2,75.5,159.3,82.6,150.7,82.6z"/>
		<path class="st0" d="M59.5,80.3v1.4h9.2V65.3C67.3,71,64.5,77.1,59.5,80.3z"/>
		<path class="st0" d="M120.7,80.3v1.4h9.2V65.3C128.5,71,125.8,77.1,120.7,80.3z"/>
		<path class="st0" d="M140.5,80.3v1.4h-9.2V65.3C132.8,71,135.5,77.1,140.5,80.3z"/>
		<path class="st0" d="M78.9,53.7v-1.4h-9.2v16.4C71.2,63.1,73.9,56.9,78.9,53.7z"/>
	</g>
	<g>
		<g>
			<path class="st0" d="M35.7,147.1h1.7l1.9,7h-1.5l-0.3-1.5h-1.9l-0.3,1.5h-1.5L35.7,147.1z M35.9,151.5h1.4l-0.7-3.2h0L35.9,151.5
				z"/>
			<path class="st0" d="M40.9,151.9v0.2c0,0.7,0.2,1.1,0.9,1.1c0.4,0,0.8-0.3,0.8-0.9c0-0.6-0.3-0.9-1.3-1.2c-1.3-0.4-1.8-1-1.8-2.1
				c0-1.4,0.8-2.1,2.2-2.1c1.3,0,2.2,0.5,2.2,1.9v0.2h-1.4c0-0.7-0.2-1-0.8-1c-0.6,0-0.8,0.4-0.8,0.8c0,0.4,0.1,0.7,0.7,1l1.1,0.5
				c1.1,0.5,1.3,1,1.3,1.9c0,1.5-0.9,2.2-2.4,2.2c-1.6,0-2.2-0.7-2.2-2v-0.3H40.9z"/>
			<path class="st0" d="M46,151.9v0.2c0,0.7,0.2,1.1,0.9,1.1c0.4,0,0.8-0.3,0.8-0.9c0-0.6-0.3-0.9-1.3-1.2c-1.3-0.4-1.8-1-1.8-2.1
				c0-1.4,0.8-2.1,2.2-2.1c1.3,0,2.2,0.5,2.2,1.9v0.2h-1.4c0-0.7-0.2-1-0.8-1c-0.6,0-0.8,0.4-0.8,0.8c0,0.4,0.1,0.7,0.7,1l1.1,0.5
				c1.1,0.5,1.3,1,1.3,1.9c0,1.5-0.9,2.2-2.4,2.2c-1.6,0-2.2-0.7-2.2-2v-0.3H46z"/>
			<path class="st0" d="M52.2,147c2.1,0,2.4,1.5,2.4,3.6c0,2.1-0.3,3.6-2.4,3.6c-2.1,0-2.4-1.5-2.4-3.6
				C49.8,148.5,50.1,147,52.2,147z M52.2,153.2c0.8,0,1-0.7,1-2.6c0-1.9-0.1-2.6-1-2.6c-0.8,0-1,0.7-1,2.6
				C51.3,152.5,51.4,153.2,52.2,153.2z"/>
			<path class="st0" d="M58.4,149.5c0-1-0.2-1.5-0.8-1.5c-0.7,0-0.9,0.7-0.9,2.7c0,2.1,0.3,2.5,0.9,2.5c0.5,0,0.9-0.3,0.9-1.8h1.4
				c0,1.5-0.4,2.8-2.2,2.8c-2.1,0-2.4-1.5-2.4-3.6c0-2.1,0.3-3.6,2.4-3.6c2,0,2.2,1.5,2.2,2.5H58.4z"/>
			<path class="st0" d="M60.8,154.1v-7h1.4v7H60.8z"/>
			<path class="st0" d="M64.6,147.1h1.7l1.9,7h-1.5l-0.3-1.5h-1.9l-0.3,1.5h-1.5L64.6,147.1z M64.8,151.5h1.4l-0.7-3.2h0L64.8,151.5
				z"/>
			<path class="st0" d="M72.8,147.1v1.2h-1.5v5.9h-1.4v-5.9h-1.5v-1.2H72.8z"/>
			<path class="st0" d="M73.5,154.1v-7h1.4v7H73.5z"/>
			<path class="st0" d="M78.2,147c2.1,0,2.4,1.5,2.4,3.6c0,2.1-0.3,3.6-2.4,3.6c-2.1,0-2.4-1.5-2.4-3.6
				C75.8,148.5,76.1,147,78.2,147z M78.2,153.2c0.8,0,1-0.7,1-2.6c0-1.9-0.1-2.6-1-2.6c-0.8,0-1,0.7-1,2.6
				C77.2,152.5,77.4,153.2,78.2,153.2z"/>
			<path class="st0" d="M83,147.1l1.7,4.8h0v-4.8h1.3v7h-1.6l-1.7-4.9h0v4.9h-1.3v-7H83z"/>
			<path class="st0" d="M90.6,147.1h2.3c2,0,2.3,1.3,2.3,3.4c0,2.5-0.5,3.6-2.4,3.6h-2.2V147.1z M92,153.1h0.6c1,0,1.2-0.6,1.2-2.5
				c0-1.6-0.1-2.4-1.2-2.4H92V153.1z"/>
			<path class="st0" d="M100.1,147.1v1.2h-2.5v1.6h2.4v1.2h-2.4v1.9h2.6v1.2h-4v-7H100.1z"/>
			<path class="st0" d="M102,151.9v0.2c0,0.7,0.2,1.1,0.9,1.1c0.4,0,0.8-0.3,0.8-0.9c0-0.6-0.3-0.9-1.3-1.2c-1.3-0.4-1.8-1-1.8-2.1
				c0-1.4,0.8-2.1,2.2-2.1c1.3,0,2.2,0.5,2.2,1.9v0.2h-1.4c0-0.7-0.2-1-0.8-1c-0.6,0-0.8,0.4-0.8,0.8c0,0.4,0.1,0.7,0.7,1l1.1,0.5
				c1.1,0.5,1.3,1,1.3,1.9c0,1.5-0.9,2.2-2.4,2.2c-1.6,0-2.2-0.7-2.2-2v-0.3H102z"/>
			<path class="st0" d="M109.4,147.1h2.5c1.4,0,1.9,1.1,1.9,2.1c0,1.5-0.9,2.1-2.2,2.1h-0.8v2.8h-1.4V147.1z M110.9,150.3h0.6
				c0.6,0,0.9-0.3,0.9-1.1c0-0.7-0.3-1.1-1-1.1h-0.6V150.3z"/>
			<path class="st0" d="M114.5,147.1h2.6c1.2,0,1.9,0.6,1.9,1.8c0,0.9-0.4,1.6-1.2,1.7v0c1,0.1,1.1,0.7,1.1,2.1c0,0.7,0,1.1,0.3,1.3
				v0.1h-1.5c-0.1-0.2-0.2-0.5-0.2-0.7l0-1.3c0-0.6-0.3-0.9-0.8-0.9H116v3h-1.4V147.1z M116,150.2h0.6c0.7,0,1.1-0.3,1.1-1.1
				c0-0.6-0.3-1-1-1H116V150.2z"/>
			<path class="st0" d="M122.2,147c2.1,0,2.4,1.5,2.4,3.6c0,2.1-0.3,3.6-2.4,3.6c-2.1,0-2.4-1.5-2.4-3.6
				C119.9,148.5,120.1,147,122.2,147z M122.2,153.2c0.8,0,1-0.7,1-2.6c0-1.9-0.1-2.6-1-2.6c-0.8,0-1,0.7-1,2.6
				C121.3,152.5,121.4,153.2,122.2,153.2z"/>
			<path class="st0" d="M125.5,147.1h2.3c2,0,2.3,1.3,2.3,3.4c0,2.5-0.5,3.6-2.4,3.6h-2.2V147.1z M126.9,153.1h0.6
				c1,0,1.2-0.6,1.2-2.5c0-1.6-0.1-2.4-1.2-2.4h-0.6V153.1z"/>
			<path class="st0" d="M132.4,147.1v4.9c0,0.7,0.2,1.2,0.8,1.2c0.7,0,0.8-0.5,0.8-1.2v-4.9h1.4v4.9c0,1.8-1.1,2.3-2.2,2.3
				c-1.1,0-2.2-0.4-2.2-2.3v-4.9H132.4z"/>
			<path class="st0" d="M139.4,149.5c0-1-0.2-1.5-0.8-1.5c-0.7,0-0.9,0.7-0.9,2.7c0,2.1,0.3,2.5,0.9,2.5c0.5,0,0.9-0.3,0.9-1.8h1.4
				c0,1.5-0.4,2.8-2.2,2.8c-2.1,0-2.4-1.5-2.4-3.6c0-2.1,0.3-3.6,2.4-3.6c2,0,2.2,1.5,2.2,2.5H139.4z"/>
			<path class="st0" d="M145.8,147.1v1.2h-1.5v5.9h-1.4v-5.9h-1.5v-1.2H145.8z"/>
			<path class="st0" d="M150.3,147.1v1.2h-2.5v1.6h2.4v1.2h-2.4v1.9h2.6v1.2h-4v-7H150.3z"/>
			<path class="st0" d="M152.4,147.1v4.9c0,0.7,0.2,1.2,0.8,1.2c0.7,0,0.8-0.5,0.8-1.2v-4.9h1.4v4.9c0,1.8-1.1,2.3-2.2,2.3
				c-1.1,0-2.2-0.4-2.2-2.3v-4.9H152.4z"/>
			<path class="st0" d="M156.4,147.1h2.6c1.2,0,1.9,0.6,1.9,1.8c0,0.9-0.4,1.6-1.2,1.7v0c1,0.1,1.1,0.7,1.1,2.1c0,0.7,0,1.1,0.3,1.3
				v0.1h-1.5c-0.1-0.2-0.2-0.5-0.2-0.7l0-1.3c0-0.6-0.3-0.9-0.8-0.9h-0.8v3h-1.4V147.1z M157.8,150.2h0.6c0.7,0,1.1-0.3,1.1-1.1
				c0-0.6-0.3-1-1-1h-0.7V150.2z"/>
			<path class="st0" d="M163,151.9v0.2c0,0.7,0.2,1.1,0.9,1.1c0.4,0,0.8-0.3,0.8-0.9c0-0.6-0.3-0.9-1.3-1.2c-1.3-0.4-1.8-1-1.8-2.1
				c0-1.4,0.8-2.1,2.2-2.1c1.3,0,2.2,0.5,2.2,1.9v0.2h-1.4c0-0.7-0.2-1-0.8-1c-0.6,0-0.8,0.4-0.8,0.8c0,0.4,0.1,0.7,0.7,1l1.1,0.5
				c1.1,0.5,1.3,1,1.3,1.9c0,1.5-0.9,2.2-2.4,2.2c-1.6,0-2.2-0.7-2.2-2v-0.3H163z"/>
			<path class="st0" d="M35.7,158.3h1.7l1.9,7h-1.5l-0.3-1.5h-1.9l-0.3,1.5h-1.5L35.7,158.3z M35.9,162.7h1.4l-0.7-3.2h0L35.9,162.7
				z"/>
			<path class="st0" d="M41,165.3v-7h1.4v5.9h2.5v1.2H41z"/>
			<path class="st0" d="M49.8,160.4c0-0.5-0.2-1.2-0.8-1.2c-0.7,0-1,0.7-1,2.5c0,1.7,0.2,2.7,1,2.7c0.3,0,0.9-0.4,0.9-1.1v-0.7H49
				v-1h2.3v3.8h-1v-0.6h0c-0.3,0.5-0.8,0.8-1.5,0.8c-1.7,0-2.1-1.3-2.1-3.7c0-2.4,0.5-3.6,2.4-3.6c1.6,0,2.2,0.8,2.2,2.2H49.8z"/>
			<path class="st0" d="M57.3,158.3v1.2h-2.5v1.6h2.4v1.2h-2.4v1.9h2.6v1.2h-4v-7H57.3z M55.2,156.5h1.4l-1,1.4h-0.9L55.2,156.5z"/>
			<path class="st0" d="M59.2,158.3h2.6c1.2,0,1.9,0.6,1.9,1.8c0,0.9-0.4,1.6-1.2,1.7v0c1,0.1,1.1,0.7,1.1,2.1c0,0.7,0,1.1,0.3,1.3
				v0.1h-1.5c-0.1-0.2-0.2-0.5-0.2-0.7l0-1.3c0-0.6-0.3-0.9-0.8-0.9h-0.8v3h-1.4V158.3z M60.6,161.4h0.6c0.7,0,1.1-0.3,1.1-1.1
				c0-0.6-0.3-1-1-1h-0.7V161.4z"/>
			<path class="st0" d="M65.9,165.3v-7h1.4v7H65.9z"/>
			<path class="st0" d="M73.5,158.3v1.2H71v1.6h2.4v1.2H71v1.9h2.6v1.2h-4v-7H73.5z"/>
			<path class="st0" d="M77.1,158.3l1.7,4.8h0v-4.8h1.3v7h-1.6l-1.7-4.9h0v4.9h-1.3v-7H77.1z"/>
			<path class="st0" d="M83.4,163.1v0.2c0,0.7,0.2,1.1,0.9,1.1c0.4,0,0.8-0.3,0.8-0.9c0-0.6-0.3-0.9-1.3-1.2c-1.3-0.4-1.8-1-1.8-2.1
				c0-1.4,0.8-2.1,2.2-2.1c1.3,0,2.2,0.5,2.2,1.9v0.2h-1.4c0-0.7-0.2-1-0.8-1c-0.6,0-0.8,0.4-0.8,0.8c0,0.4,0.1,0.7,0.7,1l1.1,0.5
				c1.1,0.5,1.3,1,1.3,1.9c0,1.5-0.9,2.2-2.4,2.2c-1.6,0-2.2-0.7-2.2-2v-0.3H83.4z"/>
			<path class="st0" d="M97.4,158.3h2.3c2,0,2.3,1.3,2.3,3.4c0,2.5-0.5,3.6-2.4,3.6h-2.2V158.3z M98.8,164.3h0.6
				c1,0,1.2-0.6,1.2-2.5c0-1.6-0.1-2.4-1.2-2.4h-0.6V164.3z"/>
			<path class="st0" d="M108.1,158.3v1.2h-2.5v1.6h2.4v1.2h-2.4v1.9h2.6v1.2h-4v-7H108.1z"/>
			<path class="st0" d="M118.8,158.3h2.4c1.2,0,2,0.4,2,1.8c0,0.8-0.4,1.3-1.1,1.5v0c0.8,0.1,1.3,0.7,1.3,1.6c0,1.1-0.5,2.1-2.2,2.1
				h-2.4V158.3z M120.3,161.2h0.4c0.8,0,1.1-0.3,1.1-0.9c0-0.7-0.3-0.9-1-0.9h-0.5V161.2z M120.3,164.3h0.6c0.7,0,1.1-0.2,1.1-1.1
				c0-0.8-0.5-1.1-1.1-1.1h-0.6V164.3z"/>
			<path class="st0" d="M127.7,158.2c2.1,0,2.4,1.5,2.4,3.6c0,2.1-0.3,3.6-2.4,3.6c-2.1,0-2.4-1.5-2.4-3.6
				C125.3,159.7,125.6,158.2,127.7,158.2z M127.7,164.4c0.8,0,1-0.7,1-2.6c0-1.9-0.1-2.6-1-2.6c-0.8,0-1,0.7-1,2.6
				C126.7,163.7,126.9,164.4,127.7,164.4z"/>
			<path class="st0" d="M132.2,165.3v-7h1.4v7H132.2z"/>
			<path class="st0" d="M137,163.1v0.2c0,0.7,0.2,1.1,0.9,1.1c0.4,0,0.8-0.3,0.8-0.9c0-0.6-0.3-0.9-1.3-1.2c-1.3-0.4-1.8-1-1.8-2.1
				c0-1.4,0.8-2.1,2.2-2.1c1.3,0,2.2,0.5,2.2,1.9v0.2h-1.4c0-0.7-0.2-1-0.8-1c-0.6,0-0.8,0.4-0.8,0.8c0,0.4,0.1,0.7,0.7,1l1.1,0.5
				c1.1,0.5,1.3,1,1.3,1.9c0,1.5-0.9,2.2-2.4,2.2c-1.6,0-2.2-0.7-2.2-2v-0.3H137z"/>
			<path class="st0" d="M143.2,163.1v0.2c0,0.7,0.2,1.1,0.9,1.1c0.4,0,0.8-0.3,0.8-0.9c0-0.6-0.3-0.9-1.3-1.2
				c-1.3-0.4-1.8-1-1.8-2.1c0-1.4,0.8-2.1,2.2-2.1c1.3,0,2.2,0.5,2.2,1.9v0.2h-1.4c0-0.7-0.2-1-0.8-1c-0.6,0-0.8,0.4-0.8,0.8
				c0,0.4,0.1,0.7,0.7,1l1.1,0.5c1.1,0.5,1.3,1,1.3,1.9c0,1.5-0.9,2.2-2.4,2.2c-1.6,0-2.2-0.7-2.2-2v-0.3H143.2z"/>
			<path class="st0" d="M150.6,158.2c2.1,0,2.4,1.5,2.4,3.6c0,2.1-0.3,3.6-2.4,3.6c-2.1,0-2.4-1.5-2.4-3.6
				C148.2,159.7,148.5,158.2,150.6,158.2z M150.6,164.4c0.8,0,1-0.7,1-2.6c0-1.9-0.1-2.6-1-2.6c-0.8,0-1,0.7-1,2.6
				C149.6,163.7,149.8,164.4,150.6,164.4z"/>
			<path class="st0" d="M156.6,158.3l1.7,4.8h0v-4.8h1.3v7h-1.6l-1.7-4.9h0v4.9H155v-7H156.6z"/>
			<path class="st0" d="M163,163.1v0.2c0,0.7,0.2,1.1,0.9,1.1c0.4,0,0.8-0.3,0.8-0.9c0-0.6-0.3-0.9-1.3-1.2c-1.3-0.4-1.8-1-1.8-2.1
				c0-1.4,0.8-2.1,2.2-2.1c1.3,0,2.2,0.5,2.2,1.9v0.2h-1.4c0-0.7-0.2-1-0.8-1c-0.6,0-0.8,0.4-0.8,0.8c0,0.4,0.1,0.7,0.7,1l1.1,0.5
				c1.1,0.5,1.3,1,1.3,1.9c0,1.5-0.9,2.2-2.4,2.2c-1.6,0-2.2-0.7-2.2-2v-0.3H163z"/>
		</g>
		<g>
			<path class="st0" d="M36,120.8c0.1,0.1,0.2,0.1,0.3,0.2c0.1,0,0.2,0.1,0.3,0.1c0.1,0,0.2,0,0.3-0.1c0.1,0,0.2-0.1,0.3-0.2
				c0.1-0.1,0.1-0.2,0.2-0.3c0-0.1,0.1-0.2,0.1-0.3c0-0.1,0-0.2-0.1-0.3c0-0.1-0.1-0.2-0.2-0.3c-0.1-0.1-0.2-0.1-0.3-0.2
				c-0.1,0-0.2-0.1-0.3-0.1c-0.1,0-0.2,0-0.3,0.1c-0.1,0-0.2,0.1-0.3,0.2c-0.1,0.1-0.1,0.2-0.2,0.3c0,0.1-0.1,0.2-0.1,0.3
				c0,0.1,0,0.2,0.1,0.3C35.9,120.6,35.9,120.7,36,120.8z"/>
			<path class="st0" d="M40.2,125.2h-0.9v-3.7h-1.6v4.8c0,0.2,0,0.3-0.1,0.5c-0.1,0.1-0.2,0.2-0.3,0.3c-0.1,0.1-0.2,0.2-0.4,0.2
				c-0.1,0-0.3,0.1-0.4,0.1c-0.2,0-0.3,0-0.4-0.1c-0.1,0-0.3-0.1-0.4-0.2c-0.1-0.1-0.2-0.2-0.3-0.3c-0.1-0.1-0.1-0.3-0.1-0.5v-2.4
				h-1.6v2.4c0,0.4,0.1,0.8,0.2,1.1c0.2,0.3,0.4,0.6,0.6,0.8c0.3,0.2,0.6,0.4,0.9,0.5c0.3,0.1,0.7,0.2,1,0.2c0.3,0,0.6,0,0.9-0.1
				c0.3-0.1,0.6-0.2,0.8-0.4c0.3-0.2,0.5-0.4,0.6-0.7c0.2-0.3,0.3-0.6,0.4-0.9h0.9h0.1h3v-1.6H40.2L40.2,125.2z"/>
			<rect x="43.4" y="125.2" class="st0" width="3.1" height="1.6"/>
			<rect x="46.5" y="125.2" class="st0" width="3.1" height="1.6"/>
			<rect x="49.7" y="125.2" class="st0" width="3.1" height="1.6"/>
			<rect x="52.8" y="125.2" class="st0" width="3.1" height="1.6"/>
			<path class="st0" d="M60.3,129.3c0.1,0,0.2-0.1,0.3-0.2c0.1-0.1,0.1-0.2,0.2-0.3c0-0.1,0.1-0.2,0.1-0.3c0-0.1,0-0.2-0.1-0.3
				c0-0.1-0.1-0.2-0.2-0.3c-0.1-0.1-0.2-0.1-0.3-0.2c-0.1,0-0.2-0.1-0.3-0.1c-0.1,0-0.2,0-0.3,0.1c-0.1,0-0.2,0.1-0.3,0.2
				c-0.1,0.1-0.1,0.2-0.2,0.3c0,0.1-0.1,0.2-0.1,0.3c0,0.1,0,0.2,0.1,0.3c0,0.1,0.1,0.2,0.2,0.3c0.1,0.1,0.2,0.1,0.3,0.2
				c0.1,0,0.2,0.1,0.3,0.1C60.1,129.4,60.2,129.3,60.3,129.3z"/>
			<path class="st0" d="M62.5,127.9c-0.1-0.1-0.2-0.1-0.3-0.2c-0.1,0-0.2-0.1-0.3-0.1c-0.1,0-0.2,0-0.3,0.1c-0.1,0-0.2,0.1-0.3,0.2
				c-0.1,0.1-0.1,0.2-0.2,0.3c0,0.1-0.1,0.2-0.1,0.3c0,0.1,0,0.2,0.1,0.3c0,0.1,0.1,0.2,0.2,0.3c0.1,0.1,0.2,0.1,0.3,0.2
				c0.1,0,0.2,0.1,0.3,0.1c0.1,0,0.2,0,0.3-0.1c0.1,0,0.2-0.1,0.3-0.2c0.1-0.1,0.1-0.2,0.2-0.3c0-0.1,0.1-0.2,0.1-0.3
				c0-0.1,0-0.2-0.1-0.3C62.7,128.1,62.6,128,62.5,127.9z"/>
			<path class="st0" d="M66,129.3c0.1,0,0.2-0.1,0.3-0.2c0.1-0.1,0.1-0.2,0.2-0.3c0-0.1,0.1-0.2,0.1-0.3c0-0.1,0-0.2-0.1-0.3
				c0-0.1-0.1-0.2-0.2-0.3c-0.1-0.1-0.2-0.1-0.3-0.2c-0.1,0-0.2-0.1-0.3-0.1c-0.1,0-0.2,0-0.3,0.1c-0.1,0-0.2,0.1-0.3,0.2
				c-0.1,0.1-0.1,0.2-0.2,0.3c0,0.1-0.1,0.2-0.1,0.3c0,0.1,0,0.2,0.1,0.3c0,0.1,0.1,0.2,0.2,0.3c0.1,0.1,0.2,0.1,0.3,0.2
				c0.1,0,0.2,0.1,0.3,0.1C65.8,129.4,65.9,129.3,66,129.3z"/>
			<path class="st0" d="M63,126.8H70h0.1H74v0l3.5,0v0h3.1v-1.6h-2.9v0h-1.1v-3.8h-1.6v3.8h-1h-0.2h-0.9v-3.8h-1.6v3.8h-1.1H70h-0.9
				c0-0.6-0.1-1.1-0.3-1.5c-0.2-0.4-0.3-0.8-0.6-1.1c-0.2-0.3-0.5-0.5-0.8-0.7c-0.3-0.2-0.6-0.3-0.9-0.4c-0.3-0.1-0.6-0.2-1-0.2
				c-0.3,0-0.6-0.1-0.9-0.1c-0.1,0-0.1,0-0.2,0c-0.1,0-0.1,0-0.2,0c-0.1,0-0.1,0-0.2,0c-0.1,0-0.1,0-0.2,0l-0.1,1.6
				c0.2,0,0.3,0,0.4,0c0.1,0,0.2,0,0.3,0c0.2,0,0.4,0,0.6,0c0.2,0,0.5,0,0.7,0.1c0.2,0,0.4,0.1,0.7,0.2c0.2,0.1,0.4,0.2,0.6,0.4
				c0.2,0.2,0.3,0.4,0.4,0.7c0.1,0.3,0.2,0.6,0.2,1H63h-0.2h-0.9v-3.8h-1.6v3.8H59H59h-3.1v1.6H59H59h3.7H63z"/>
			<path class="st0" d="M70.5,120.2c0.1,0.1,0.2,0.1,0.3,0.2c0.1,0,0.2,0.1,0.3,0.1c0.1,0,0.2,0,0.3-0.1c0.1,0,0.2-0.1,0.3-0.2
				c0.1-0.1,0.1-0.2,0.2-0.3c0-0.1,0.1-0.2,0.1-0.3c0-0.1,0-0.2-0.1-0.3c0-0.1-0.1-0.2-0.2-0.3c-0.1-0.1-0.2-0.1-0.3-0.2
				c-0.1,0-0.2-0.1-0.3-0.1c-0.1,0-0.2,0-0.3,0.1c-0.1,0-0.2,0.1-0.3,0.2c-0.1,0.1-0.1,0.2-0.2,0.3c0,0.1-0.1,0.2-0.1,0.3
				c0,0.1,0,0.2,0.1,0.3C70.3,120.1,70.4,120.2,70.5,120.2z"/>
			<path class="st0" d="M72.4,120.2c0.1,0.1,0.2,0.1,0.3,0.2c0.1,0,0.2,0.1,0.3,0.1c0.1,0,0.2,0,0.3-0.1c0.1,0,0.2-0.1,0.3-0.2
				c0.1-0.1,0.1-0.2,0.2-0.3c0-0.1,0.1-0.2,0.1-0.3c0-0.1,0-0.2-0.1-0.3c0-0.1-0.1-0.2-0.2-0.3c-0.1-0.1-0.2-0.1-0.3-0.2
				c-0.1,0-0.2-0.1-0.3-0.1c-0.1,0-0.2,0-0.3,0.1c-0.1,0-0.2,0.1-0.3,0.2c-0.1,0.1-0.1,0.2-0.2,0.3c0,0.1-0.1,0.2-0.1,0.3
				c0,0.1,0,0.2,0.1,0.3C72.3,120.1,72.3,120.2,72.4,120.2z"/>
			<path class="st0" d="M75.3,120.2c0.1,0.1,0.2,0.1,0.3,0.2c0.1,0,0.2,0.1,0.3,0.1c0.1,0,0.2,0,0.3-0.1c0.1,0,0.2-0.1,0.3-0.2
				c0.1-0.1,0.1-0.2,0.2-0.3c0-0.1,0.1-0.2,0.1-0.3c0-0.1,0-0.2-0.1-0.3c0-0.1-0.1-0.2-0.2-0.3c-0.1-0.1-0.2-0.1-0.3-0.2
				c-0.1,0-0.2-0.1-0.3-0.1c-0.1,0-0.2,0-0.3,0.1c-0.1,0-0.2,0.1-0.3,0.2c-0.1,0.1-0.1,0.2-0.2,0.3c0,0.1-0.1,0.2-0.1,0.3
				c0,0.1,0,0.2,0.1,0.3C75.1,120.1,75.2,120.2,75.3,120.2z"/>
			<rect x="80.7" y="125.2" class="st0" width="3.1" height="1.6"/>
			<rect x="83.8" y="125.2" class="st0" width="3.1" height="1.6"/>
			<path class="st0" d="M95.4,125.2h-1.1h-0.1h-0.8V122c0-0.1,0-0.2-0.1-0.3c0-0.1-0.1-0.2-0.2-0.3c-0.1-0.1-0.2-0.1-0.3-0.2
				c-0.1,0-0.2-0.1-0.3-0.1c-0.3,0-0.6,0-1,0c-0.3,0-0.6,0-0.9,0c-0.4,0-0.7,0.1-1,0.2c-0.3,0.2-0.6,0.4-0.8,0.6
				c-0.2,0.3-0.4,0.5-0.6,0.9c-0.1,0.3-0.2,0.6-0.2,0.9v1.4h-1v1.6h7.2h0.1h1.9c0.1,0,0.2,0,0.3-0.1c0.1,0,0.2-0.1,0.3-0.2
				c0.1-0.1,0.1-0.2,0.2-0.3c0-0.1,0.1-0.2,0-0.3v-7h-1.6V125.2z M91.7,125.2h-2.1v-1.4c0-0.1,0-0.3,0.1-0.4
				c0.1-0.1,0.1-0.2,0.2-0.3c0.1-0.1,0.2-0.2,0.3-0.2c0.1-0.1,0.2-0.1,0.4-0.1c0,0,0,0,0,0c0,0,0,0,0,0c0,0,0,0,0.1,0
				c0,0,0.1,0,0.1,0c0.1,0,0.2,0,0.3,0c0.2,0,0.3,0,0.6,0V125.2z"/>
			<rect x="98.5" y="119" class="st0" width="1.6" height="7.8"/>
			<path class="st0" d="M104.6,126.6L104.6,126.6c0.1,0,0.3,0.1,0.5,0.1c0.2,0,0.4,0.1,0.6,0.1c0.2,0,0.4,0.1,0.7,0.1
				c0.2,0,0.4,0,0.6,0v-1.6c-0.1,0-0.2,0-0.3,0c-0.1,0-0.3,0-0.4,0c-0.1,0-0.3,0-0.4,0c-0.1,0-0.2,0-0.3,0l0-1.3
				c0-0.1,0-0.3,0.1-0.4c0.1-0.1,0.1-0.2,0.2-0.3c0.1-0.1,0.2-0.2,0.3-0.2c0.1-0.1,0.3-0.1,0.4-0.1c0.2,0,0.4,0,0.5,0
				c0.2,0,0.4,0,0.5,0l0,3.2c0,0.1,0,0.2,0.1,0.3c0,0.1,0.1,0.2,0.2,0.3c0.1,0.1,0.2,0.1,0.3,0.2s0.2,0.1,0.3,0.1h1.7h0.2h2.9v-1.6
				h-2.9h-0.2h-0.9l0-3.1c0-0.1,0-0.3-0.1-0.4c-0.1-0.1-0.1-0.2-0.2-0.3c-0.1-0.1-0.2-0.2-0.3-0.2c-0.1,0-0.2-0.1-0.4-0.1h-1.7
				c-0.4,0-0.7,0.1-1,0.2c-0.3,0.1-0.6,0.3-0.8,0.6c-0.2,0.2-0.4,0.5-0.6,0.8c-0.1,0.3-0.2,0.7-0.2,1v2c0,0.2,0.1,0.4,0.2,0.5
				C104.3,126.5,104.4,126.6,104.6,126.6z"/>
			<path class="st0" d="M105.3,120.2c0.1,0.1,0.2,0.1,0.3,0.2c0.1,0,0.2,0.1,0.3,0.1c0.1,0,0.2,0,0.3-0.1c0.1,0,0.2-0.1,0.3-0.2
				c0.1-0.1,0.1-0.2,0.2-0.3c0-0.1,0.1-0.2,0.1-0.3c0-0.1,0-0.2-0.1-0.3c0-0.1-0.1-0.2-0.2-0.3c-0.1-0.1-0.2-0.1-0.3-0.2
				c-0.1,0-0.2-0.1-0.3-0.1c-0.1,0-0.2,0-0.3,0.1c-0.1,0-0.2,0.1-0.3,0.2c-0.1,0.1-0.1,0.2-0.2,0.3c0,0.1-0.1,0.2-0.1,0.3
				c0,0.1,0,0.2,0.1,0.3C105.2,120.1,105.2,120.2,105.3,120.2z"/>
			<path class="st0" d="M107.2,120.2c0.1,0.1,0.2,0.1,0.3,0.2c0.1,0,0.2,0.1,0.3,0.1c0.1,0,0.2,0,0.3-0.1c0.1,0,0.2-0.1,0.3-0.2
				c0.1-0.1,0.1-0.2,0.2-0.3c0-0.1,0.1-0.2,0.1-0.3c0-0.1,0-0.2-0.1-0.3c0-0.1-0.1-0.2-0.2-0.3c-0.1-0.1-0.2-0.1-0.3-0.2
				c-0.1,0-0.2-0.1-0.3-0.1c-0.1,0-0.2,0-0.3,0.1c-0.1,0-0.2,0.1-0.3,0.2c-0.1,0.1-0.1,0.2-0.2,0.3c0,0.1-0.1,0.2-0.1,0.3
				c0,0.1,0,0.2,0.1,0.3C107.1,120.1,107.1,120.2,107.2,120.2z"/>
			<rect x="113.3" y="125.2" class="st0" width="3.1" height="1.6"/>
			<rect x="116.4" y="125.2" class="st0" width="3.1" height="1.6"/>
			<rect x="119.6" y="125.2" class="st0" width="3.1" height="1.6"/>
			<rect x="122.7" y="125.2" class="st0" width="3.1" height="1.6"/>
			<rect x="125.9" y="125.2" class="st0" width="3.1" height="1.6"/>
			<rect x="129" y="125.2" class="st0" width="3.1" height="1.6"/>
			<path class="st0" d="M136.5,129.3c0.1,0,0.2-0.1,0.3-0.2c0.1-0.1,0.1-0.2,0.2-0.3c0-0.1,0.1-0.2,0.1-0.3c0-0.1,0-0.2-0.1-0.3
				c0-0.1-0.1-0.2-0.2-0.3c-0.1-0.1-0.2-0.1-0.3-0.2c-0.1,0-0.2-0.1-0.3-0.1c-0.1,0-0.2,0-0.3,0.1c-0.1,0-0.2,0.1-0.3,0.2
				c-0.1,0.1-0.1,0.2-0.2,0.3c0,0.1-0.1,0.2-0.1,0.3c0,0.1,0,0.2,0.1,0.3c0,0.1,0.1,0.2,0.2,0.3c0.1,0.1,0.2,0.1,0.3,0.2
				c0.1,0,0.2,0.1,0.3,0.1C136.3,129.4,136.4,129.3,136.5,129.3z"/>
			<path class="st0" d="M138.7,129.1c0.1-0.1,0.1-0.2,0.2-0.3c0-0.1,0.1-0.2,0.1-0.3c0-0.1,0-0.2-0.1-0.3c0-0.1-0.1-0.2-0.2-0.3
				c-0.1-0.1-0.2-0.1-0.3-0.2c-0.1,0-0.2-0.1-0.3-0.1c-0.1,0-0.2,0-0.3,0.1c-0.1,0-0.2,0.1-0.3,0.2c-0.1,0.1-0.1,0.2-0.2,0.3
				c0,0.1-0.1,0.2-0.1,0.3c0,0.1,0,0.2,0.1,0.3c0,0.1,0.1,0.2,0.2,0.3c0.1,0.1,0.2,0.1,0.3,0.2c0.1,0,0.2,0.1,0.3,0.1
				c0.1,0,0.2,0,0.3-0.1C138.6,129.2,138.7,129.2,138.7,129.1z"/>
			<path class="st0" d="M139.2,126.8h6.7h0.2h7h0.1h3v-1.6h-3h-0.1h-0.9V122c0-0.1,0-0.2-0.1-0.3c0-0.1-0.1-0.2-0.2-0.3
				c-0.1-0.1-0.2-0.1-0.3-0.2c-0.1,0-0.2-0.1-0.3-0.1c-0.3,0-0.6,0-1,0c-0.3,0-0.6,0-0.9,0c-0.4,0-0.7,0.1-1,0.2
				c-0.3,0.2-0.6,0.4-0.8,0.6c-0.2,0.3-0.4,0.5-0.6,0.9c-0.1,0.3-0.2,0.6-0.2,0.9v1.4h-0.8h-0.2h-1.5c0.1-0.1,0.1-0.2,0.2-0.2
				c0-0.1,0.1-0.1,0.1-0.2c0-0.1,0.1-0.1,0.1-0.2c0-0.1,0.1-0.2,0.2-0.2c0.1-0.2,0.2-0.4,0.3-0.6c0.1-0.2,0.1-0.4,0.1-0.6
				c0-0.3-0.1-0.5-0.2-0.8c-0.1-0.2-0.3-0.4-0.5-0.6c-0.2-0.2-0.4-0.3-0.7-0.4c-0.3-0.1-0.5-0.1-0.8-0.1h-1.4
				c-0.3,0-0.6,0.1-0.9,0.2c-0.3,0.1-0.5,0.3-0.7,0.4c-0.2,0.2-0.3,0.4-0.4,0.6c-0.1,0.2-0.2,0.5-0.2,0.7c0,0.2,0,0.4,0.1,0.6
				c0.1,0.2,0.2,0.4,0.3,0.6c0.1,0.2,0.2,0.3,0.3,0.5c0.1,0.2,0.2,0.3,0.3,0.5h-1.6H139h-1v-3.8h-1.6v3.8h-1.2h-0.1h-3.1v1.6h3.1
				h0.1h3.8H139.2z M148.6,123.8c0-0.1,0-0.3,0.1-0.4c0.1-0.1,0.1-0.2,0.2-0.3c0.1-0.1,0.2-0.2,0.3-0.2c0.1-0.1,0.2-0.1,0.4-0.1
				c0,0,0,0,0,0c0,0,0,0,0,0c0,0,0,0,0.1,0c0,0,0.1,0,0.1,0c0.1,0,0.2,0,0.3,0c0.2,0,0.3,0,0.6,0v2.4h-2.1V123.8z M141.5,122.9
				c0.1-0.1,0.2-0.1,0.4-0.1h1.4c0.1,0,0.1,0,0.2,0c0.1,0,0.1,0,0.2,0.1c0.1,0,0.1,0.1,0.1,0.1c0,0,0,0.1,0,0.1c0,0.1,0,0.2-0.1,0.3
				c-0.2,0.3-0.4,0.6-0.6,0.9c-0.2,0.3-0.4,0.6-0.6,0.9l-1.1-1.7c-0.1-0.1-0.1-0.2-0.1-0.3C141.4,123,141.4,122.9,141.5,122.9z"/>
			<path class="st0" d="M162.9,127.9c-0.1-0.1-0.2-0.1-0.3-0.2c-0.1,0-0.2-0.1-0.3-0.1c-0.1,0-0.2,0-0.3,0.1c-0.1,0-0.2,0.1-0.3,0.2
				c-0.1,0.1-0.1,0.2-0.2,0.3c0,0.1-0.1,0.2-0.1,0.3c0,0.1,0,0.2,0.1,0.3c0,0.1,0.1,0.2,0.2,0.3c0.1,0.1,0.2,0.1,0.3,0.2
				c0.1,0,0.2,0.1,0.3,0.1c0.1,0,0.2,0,0.3-0.1c0.1,0,0.2-0.1,0.3-0.2c0.1-0.1,0.1-0.2,0.2-0.3c0-0.1,0.1-0.2,0.1-0.3
				c0-0.1,0-0.2-0.1-0.3C163,128.1,163,128,162.9,127.9z"/>
			<path class="st0" d="M165.4,125.2c0-0.6-0.1-1.1-0.3-1.5c-0.2-0.4-0.3-0.8-0.6-1.1c-0.2-0.3-0.5-0.5-0.8-0.7
				c-0.3-0.2-0.6-0.3-0.9-0.4c-0.3-0.1-0.6-0.2-1-0.2c-0.3,0-0.6-0.1-0.9-0.1c-0.1,0-0.3,0-0.4,0c-0.2,0-0.3,0-0.4,0l-0.1,1.6
				c0.2,0,0.3,0,0.4,0c0.1,0,0.2,0,0.3,0c0.2,0,0.4,0,0.6,0c0.2,0,0.5,0,0.7,0.1c0.2,0,0.4,0.1,0.7,0.2c0.2,0.1,0.4,0.2,0.6,0.4
				c0.2,0.2,0.3,0.4,0.4,0.7c0.1,0.3,0.2,0.6,0.2,1h-4.4h0h-3.1v1.6h3.1h0h6.6v-1.6H165.4z"/>
			<path class="st0" d="M39,134.7c0.1,0,0.2,0.1,0.3,0.1c0.1,0,0.2,0,0.3-0.1c0.1,0,0.2-0.1,0.3-0.2c0.1-0.1,0.1-0.2,0.2-0.3
				c0-0.1,0.1-0.2,0.1-0.3c0-0.1,0-0.2-0.1-0.3c0-0.1-0.1-0.2-0.2-0.3c-0.1-0.1-0.2-0.1-0.3-0.2c-0.1,0-0.2-0.1-0.3-0.1
				c-0.1,0-0.2,0-0.3,0.1c-0.1,0-0.2,0.1-0.3,0.2c-0.1,0.1-0.1,0.2-0.2,0.3c0,0.1-0.1,0.2-0.1,0.3c0,0.1,0,0.2,0.1,0.3
				c0,0.1,0.1,0.2,0.2,0.3C38.8,134.6,38.9,134.6,39,134.7z"/>
			<path class="st0" d="M37.1,134.7c0.1,0,0.2,0.1,0.3,0.1c0.1,0,0.2,0,0.3-0.1c0.1,0,0.2-0.1,0.3-0.2c0.1-0.1,0.1-0.2,0.2-0.3
				c0-0.1,0.1-0.2,0.1-0.3c0-0.1,0-0.2-0.1-0.3c0-0.1-0.1-0.2-0.2-0.3c-0.1-0.1-0.2-0.1-0.3-0.2c-0.1,0-0.2-0.1-0.3-0.1
				c-0.1,0-0.2,0-0.3,0.1c-0.1,0-0.2,0.1-0.3,0.2c-0.1,0.1-0.1,0.2-0.2,0.3c0,0.1-0.1,0.2-0.1,0.3c0,0.1,0,0.2,0.1,0.3
				c0,0.1,0.1,0.2,0.2,0.3C36.9,134.6,37,134.6,37.1,134.7z"/>
			<path class="st0" d="M40.8,138.5c-0.5,0-1.1,0-1.6,0c-0.5,0-1,0-1.6,0c-0.2,0-0.4,0-0.5-0.1c-0.1-0.1-0.2-0.1-0.3-0.2
				c-0.1-0.1-0.1-0.2-0.2-0.3c0-0.1,0-0.2,0-0.4c0-0.2,0-0.5,0.1-0.7c0.1-0.2,0.1-0.4,0.2-0.6l-1.4-0.7c-0.1,0.1-0.1,0.3-0.2,0.4
				c-0.1,0.2-0.1,0.3-0.2,0.5c0,0.2-0.1,0.4-0.1,0.5c0,0.2,0,0.4,0,0.5c0,0.3,0,0.6,0.1,0.9c0.1,0.3,0.2,0.6,0.5,0.8
				c0.2,0.2,0.5,0.4,0.8,0.6c0.3,0.2,0.8,0.2,1.3,0.2h3.9c0.1,0,0.2,0,0.3-0.1c0.1,0,0.2-0.1,0.3-0.2c0.1-0.1,0.1-0.2,0.2-0.3
				c0-0.1,0.1-0.2,0.1-0.3v-4.6h-1.6V138.5z"/>
			<path class="st0" d="M46.2,138.5H45v-6.2h-1.6v7c0,0,0,0,0,0c0,0,0,0,0,0c0,0.1,0,0.2,0.1,0.3c0,0.1,0.1,0.2,0.2,0.3
				c0.1,0.1,0.2,0.1,0.3,0.2c0.1,0,0.2,0.1,0.3,0.1h2h0h3.1v-1.6H46.2L46.2,138.5z"/>
			<rect x="49.3" y="138.5" class="st0" width="3.1" height="1.6"/>
			<rect x="52.5" y="138.5" class="st0" width="3.1" height="1.6"/>
			<path class="st0" d="M59,134.7h-1.6v3.8h-1.8v1.6h2.6c0.1,0,0.2,0,0.3-0.1c0.1,0,0.2-0.1,0.3-0.2c0.1-0.1,0.1-0.2,0.2-0.3
				c0-0.1,0.1-0.2,0.1-0.3c0,0,0,0,0,0s0,0,0,0V134.7z"/>
			<path class="st0" d="M57.7,141.2c-0.1-0.1-0.2-0.1-0.3-0.2c-0.1,0-0.2-0.1-0.3-0.1c-0.1,0-0.2,0-0.3,0.1c-0.1,0-0.2,0.1-0.3,0.2
				c-0.1,0.1-0.1,0.2-0.2,0.3c0,0.1-0.1,0.2-0.1,0.3c0,0.1,0,0.2,0.1,0.3c0,0.1,0.1,0.2,0.2,0.3c0.1,0.1,0.2,0.1,0.3,0.2
				c0.1,0,0.2,0.1,0.3,0.1c0.1,0,0.2,0,0.3-0.1c0.1,0,0.2-0.1,0.3-0.2c0.1-0.1,0.1-0.2,0.2-0.3c0-0.1,0.1-0.2,0.1-0.3
				c0-0.1,0-0.2-0.1-0.3C57.9,141.4,57.8,141.3,57.7,141.2z"/>
			<path class="st0" d="M65.1,135.9c0-0.2,0-0.3,0-0.4c0-0.1,0-0.3-0.1-0.4c-0.1-0.1-0.1-0.2-0.2-0.3c-0.1-0.1-0.2-0.2-0.3-0.2
				c-0.1-0.1-0.2-0.1-0.4-0.1h-1.7c-0.4,0-0.7,0.1-1,0.2c-0.3,0.1-0.6,0.3-0.8,0.6c-0.2,0.2-0.4,0.5-0.6,0.8c-0.1,0.3-0.2,0.7-0.2,1
				c0,0.6,0,1,0.1,1.4c0.1,0.4,0.3,0.7,0.5,0.9c0.2,0.2,0.4,0.4,0.7,0.5c0.3,0.1,0.5,0.2,0.8,0.2c0.3,0,0.5,0,0.8,0
				c0.3,0,0.5-0.1,0.7-0.1c-0.1,0.5-0.3,0.9-0.6,1.1c-0.4,0.2-0.8,0.4-1.5,0.4v1.6c0.6,0,1.1-0.1,1.6-0.2c0.5-0.1,0.9-0.4,1.2-0.7
				c0.3-0.4,0.6-0.8,0.8-1.4c0.2-0.6,0.3-1.3,0.3-2.2c0-0.1,0-0.2,0-0.3c0-0.1,0-0.3,0-0.5c0-0.2,0-0.4,0-0.6c0-0.2,0-0.4,0-0.6
				C65.1,136.3,65.1,136.1,65.1,135.9z M63.5,138.3c0,0.1-0.1,0.2-0.2,0.3c-0.1,0.1-0.2,0.1-0.3,0.1c-0.1,0-0.3,0-0.6,0
				c-0.2,0-0.4,0-0.5-0.1c-0.1-0.1-0.3-0.1-0.3-0.3c-0.1-0.1-0.1-0.3-0.2-0.5c0-0.2,0-0.5,0-0.8c0-0.1,0-0.3,0.1-0.4
				c0.1-0.1,0.1-0.2,0.2-0.3c0.1-0.1,0.2-0.2,0.3-0.2c0.1-0.1,0.3-0.1,0.4-0.1c0.2,0,0.4,0,0.5,0c0.2,0,0.4,0,0.5,0l0,1.7
				C63.6,138,63.6,138.2,63.5,138.3z"/>
			<path class="st0" d="M75.3,133.8c0.1,0.1,0.2,0.1,0.3,0.2c0.1,0,0.2,0.1,0.3,0.1c0.1,0,0.2,0,0.3-0.1c0.1,0,0.2-0.1,0.3-0.2
				c0.1-0.1,0.1-0.2,0.2-0.3c0-0.1,0.1-0.2,0.1-0.3c0-0.1,0-0.2-0.1-0.3c0-0.1-0.1-0.2-0.2-0.3c-0.1-0.1-0.2-0.1-0.3-0.2
				c-0.1,0-0.2-0.1-0.3-0.1c-0.1,0-0.2,0-0.3,0.1c-0.1,0-0.2,0.1-0.3,0.2c-0.1,0.1-0.1,0.2-0.2,0.3c0,0.1-0.1,0.2-0.1,0.3
				c0,0.1,0,0.2,0.1,0.3C75.2,133.6,75.2,133.7,75.3,133.8z"/>
			<path class="st0" d="M74.2,132.4c-0.1,0-0.2-0.1-0.3-0.1c-0.1,0-0.2,0-0.3,0.1c-0.1,0-0.2,0.1-0.3,0.2c-0.1,0.1-0.1,0.2-0.2,0.3
				c0,0.1-0.1,0.2-0.1,0.3c0,0.1,0,0.2,0.1,0.3c0,0.1,0.1,0.2,0.2,0.3c0.1,0.1,0.2,0.1,0.3,0.2c0.1,0,0.2,0.1,0.3,0.1
				c0.1,0,0.2,0,0.3-0.1c0.1,0,0.2-0.1,0.3-0.2c0.1-0.1,0.1-0.2,0.2-0.3c0-0.1,0.1-0.2,0.1-0.3c0-0.1,0-0.2-0.1-0.3
				c0-0.1-0.1-0.2-0.2-0.3C74.4,132.5,74.3,132.5,74.2,132.4z"/>
			<path class="st0" d="M75.2,132.4c0.1,0,0.2-0.1,0.3-0.2c0.1-0.1,0.1-0.2,0.2-0.3c0-0.1,0.1-0.2,0.1-0.3c0-0.1,0-0.2-0.1-0.3
				c0-0.1-0.1-0.2-0.2-0.3c-0.1-0.1-0.2-0.1-0.3-0.2c-0.1,0-0.2-0.1-0.3-0.1c-0.1,0-0.2,0-0.3,0.1c-0.1,0-0.2,0.1-0.3,0.2
				c-0.1,0.1-0.1,0.2-0.2,0.3c0,0.1-0.1,0.2-0.1,0.3c0,0.1,0,0.2,0.1,0.3c0,0.1,0.1,0.2,0.2,0.3c0.1,0.1,0.2,0.1,0.3,0.2
				c0.1,0,0.2,0.1,0.3,0.1C75,132.4,75.1,132.4,75.2,132.4z"/>
			<path class="st0" d="M91.6,138.5h-1h-0.2h-0.9v-6.2h-1.6v6.2h-1.2h-0.1h-0.9v-3.2c0-0.1,0-0.2-0.1-0.3c0-0.1-0.1-0.2-0.2-0.3
				c-0.1-0.1-0.2-0.1-0.3-0.2c-0.1,0-0.2-0.1-0.3-0.1c-0.3,0-0.6,0-1,0c-0.3,0-0.6,0-0.9,0c-0.4,0-0.7,0.1-1,0.2
				c-0.3,0.2-0.6,0.4-0.8,0.6s-0.4,0.5-0.6,0.9c-0.1,0.3-0.2,0.6-0.2,0.9v1.4h-1h0h-1v-3.8h-1.6v3.8h-1.2v-3.8h-1.6v3.8H73v-3.8
				h-1.6v3.8h-1h0h-0.9c0-0.1,0-0.2,0-0.3c0-0.1,0-0.2,0-0.3c0-0.4,0-0.8,0-1.2c0-0.4,0-0.8,0-1.2l0-0.1h-1.6c0,0.4,0,0.8,0,1.2
				c0,0.4,0,0.8,0,1.2c0,0.3,0,0.6,0,0.9c0,0.3,0,0.6-0.1,0.9c-0.1,0.3-0.1,0.5-0.2,0.8c-0.1,0.2-0.2,0.5-0.4,0.6
				c-0.2,0.2-0.4,0.3-0.6,0.4c-0.3,0.1-0.6,0.2-0.9,0.2v1.6c0.6,0,1.1-0.1,1.5-0.2s0.8-0.4,1.1-0.7c0.3-0.3,0.5-0.6,0.7-1
				c0.2-0.4,0.3-0.8,0.4-1.2h1.1h0h9.1h0h7.2h0.1h3.7h0.2h1.8c0.1,0,0.2,0,0.3-0.1c0.1,0,0.2-0.1,0.3-0.2c0.1-0.1,0.1-0.2,0.2-0.3
				c0-0.1,0.1-0.2,0-0.3v-7h-1.6V138.5z M84.2,138.5h-2.1v-1.4c0-0.1,0-0.3,0.1-0.4c0.1-0.1,0.1-0.2,0.2-0.3
				c0.1-0.1,0.2-0.2,0.3-0.2c0.1-0.1,0.2-0.1,0.4-0.1c0,0,0,0,0,0c0,0,0,0,0,0c0,0,0,0,0.1,0c0,0,0.1,0,0.1,0c0.1,0,0.2,0,0.3,0
				c0.2,0,0.3,0,0.6,0V138.5z"/>
			<path class="st0" d="M99.6,132.7c-0.1,0-0.2,0.1-0.3,0.2c-0.1,0.1-0.1,0.2-0.2,0.3c0,0.1-0.1,0.2-0.1,0.3c0,0.1,0,0.2,0.1,0.3
				c0,0.1,0.1,0.2,0.2,0.3c0.1,0.1,0.2,0.1,0.3,0.2c0.1,0,0.2,0.1,0.3,0.1c0.1,0,0.2,0,0.3-0.1c0.1,0,0.2-0.1,0.3-0.2
				c0.1-0.1,0.1-0.2,0.2-0.3c0-0.1,0.1-0.2,0.1-0.3c0-0.1,0-0.2-0.1-0.3c0-0.1-0.1-0.2-0.2-0.3c-0.1-0.1-0.2-0.1-0.3-0.2
				c-0.1,0-0.2-0.1-0.3-0.1C99.8,132.7,99.7,132.7,99.6,132.7z"/>
			<path class="st0" d="M103.6,138.5h-0.9v-3.7h-1.6v4.8c0,0.2,0,0.3-0.1,0.5c-0.1,0.1-0.2,0.2-0.3,0.3c-0.1,0.1-0.2,0.2-0.4,0.2
				c-0.1,0-0.3,0.1-0.4,0.1c-0.2,0-0.3,0-0.4-0.1c-0.1,0-0.3-0.1-0.4-0.2c-0.1-0.1-0.2-0.2-0.3-0.3c-0.1-0.1-0.1-0.3-0.1-0.5v-2.4
				h-1.6v2.4c0,0.4,0.1,0.8,0.2,1.1c0.2,0.3,0.4,0.6,0.6,0.8c0.3,0.2,0.6,0.4,0.9,0.5c0.3,0.1,0.7,0.2,1,0.2c0.3,0,0.6,0,0.9-0.1
				c0.3-0.1,0.6-0.2,0.8-0.4c0.3-0.2,0.5-0.4,0.6-0.7c0.2-0.3,0.3-0.6,0.4-0.9h0.9h0.1h3v-1.6H103.6L103.6,138.5z"/>
			<rect x="106.7" y="138.5" class="st0" width="3.1" height="1.6"/>
			<rect x="109.9" y="138.5" class="st0" width="3.1" height="1.6"/>
			<path class="st0" d="M114.6,141.2c-0.1-0.1-0.2-0.1-0.3-0.2c-0.1,0-0.2-0.1-0.3-0.1c-0.1,0-0.2,0-0.3,0.1c-0.1,0-0.2,0.1-0.3,0.2
				c-0.1,0.1-0.1,0.2-0.2,0.3c0,0.1-0.1,0.2-0.1,0.3c0,0.1,0,0.2,0.1,0.3c0,0.1,0.1,0.2,0.2,0.3c0.1,0.1,0.2,0.1,0.3,0.2
				c0.1,0,0.2,0.1,0.3,0.1c0.1,0,0.2,0,0.3-0.1c0.1,0,0.2-0.1,0.3-0.2c0.1-0.1,0.1-0.2,0.2-0.3c0-0.1,0.1-0.2,0.1-0.3
				c0-0.1,0-0.2-0.1-0.3C114.7,141.4,114.7,141.3,114.6,141.2z"/>
			<path class="st0" d="M116.5,141.2c-0.1-0.1-0.2-0.1-0.3-0.2c-0.1,0-0.2-0.1-0.3-0.1c-0.1,0-0.2,0-0.3,0.1c-0.1,0-0.2,0.1-0.3,0.2
				c-0.1,0.1-0.1,0.2-0.2,0.3c0,0.1-0.1,0.2-0.1,0.3c0,0.1,0,0.2,0.1,0.3c0,0.1,0.1,0.2,0.2,0.3c0.1,0.1,0.2,0.1,0.3,0.2
				c0.1,0,0.2,0.1,0.3,0.1c0.1,0,0.2,0,0.3-0.1c0.1,0,0.2-0.1,0.3-0.2c0.1-0.1,0.1-0.2,0.2-0.3c0-0.1,0.1-0.2,0.1-0.3
				c0-0.1,0-0.2-0.1-0.3C116.7,141.4,116.6,141.3,116.5,141.2z"/>
			<path class="st0" d="M117.1,134.7h-1.6v3.8H113v1.6h3.3c0.1,0,0.2,0,0.3-0.1c0.1,0,0.2-0.1,0.3-0.2c0.1-0.1,0.1-0.2,0.2-0.3
				c0-0.1,0.1-0.2,0.1-0.3c0,0,0,0,0,0s0,0,0,0V134.7z"/>
			<path class="st0" d="M122.1,138.5h-0.9c0-0.1,0-0.2,0-0.3c0-0.1,0-0.2,0-0.3c0-0.4,0-0.8,0-1.2s0-0.8,0-1.2l0-0.1h-1.6
				c0,0.4,0,0.8,0,1.2c0,0.4,0,0.8,0,1.2c0,0.3,0,0.6,0,0.9c0,0.3,0,0.6-0.1,0.9c-0.1,0.3-0.1,0.5-0.2,0.8c-0.1,0.2-0.2,0.5-0.4,0.6
				c-0.2,0.2-0.4,0.3-0.6,0.4c-0.3,0.1-0.6,0.2-0.9,0.2v1.6c0.6,0,1.1-0.1,1.5-0.2s0.8-0.4,1.1-0.7c0.3-0.3,0.5-0.6,0.7-1
				c0.2-0.4,0.3-0.8,0.4-1.2h1.1h0h3.1v-1.6H122.1L122.1,138.5z"/>
			<rect x="125.2" y="138.5" class="st0" width="3.1" height="1.6"/>
			<rect x="128.4" y="138.5" class="st0" width="3.1" height="1.6"/>
			<path class="st0" d="M134.9,135.9h-1.6v2.6h-1.8v1.6h2.6c0.1,0,0.2,0,0.3-0.1c0.1,0,0.2-0.1,0.3-0.2c0.1-0.1,0.1-0.2,0.2-0.3
				c0-0.1,0.1-0.2,0.1-0.3c0,0,0,0,0,0s0,0,0,0V135.9z"/>
			<path class="st0" d="M133.3,134.4c-0.1-0.1-0.1-0.2-0.1-0.3c0-0.1,0-0.2,0.1-0.3c0.1-0.1,0.2-0.1,0.4-0.1l1.1,0V133h-1.1
				c-0.2,0-0.4,0-0.5,0.1c-0.2,0.1-0.3,0.2-0.4,0.3c-0.1,0.1-0.2,0.2-0.2,0.4c-0.1,0.1-0.1,0.3-0.1,0.4c0,0.1,0,0.1,0,0.2
				c0,0.1,0,0.1,0.1,0.2h-0.4v0.7h2.7v-0.7h-1.2C133.5,134.5,133.4,134.5,133.3,134.4z"/>
			<rect x="136.1" y="132.3" class="st0" width="1.6" height="7.8"/>
			<path class="st0" d="M141.6,132.8c-0.1,0-0.2-0.1-0.3-0.1c-0.1,0-0.2,0-0.3,0.1c-0.1,0-0.2,0.1-0.3,0.2c-0.1,0.1-0.1,0.2-0.2,0.3
				c0,0.1-0.1,0.2-0.1,0.3c0,0.1,0,0.2,0.1,0.3c0,0.1,0.1,0.2,0.2,0.3c0.1,0.1,0.2,0.1,0.3,0.2c0.1,0,0.2,0.1,0.3,0.1
				c0.1,0,0.2,0,0.3-0.1c0.1,0,0.2-0.1,0.3-0.2c0.1-0.1,0.1-0.2,0.2-0.3c0-0.1,0.1-0.2,0.1-0.3c0-0.1,0-0.2-0.1-0.3
				c0-0.1-0.1-0.2-0.2-0.3C141.8,132.9,141.7,132.8,141.6,132.8z"/>
			<path class="st0" d="M143.1,138.5h-0.9c0-0.1,0-0.2,0-0.3c0-0.1,0-0.2,0-0.3c0-0.4,0-0.8,0-1.2s0-0.8,0-1.2l0-0.1h-1.6
				c0,0.4,0,0.8,0,1.2c0,0.4,0,0.8,0,1.2c0,0.3,0,0.6,0,0.9c0,0.3,0,0.6-0.1,0.9c-0.1,0.3-0.1,0.5-0.2,0.8c-0.1,0.2-0.2,0.5-0.4,0.6
				c-0.2,0.2-0.4,0.3-0.6,0.4c-0.3,0.1-0.6,0.2-0.9,0.2v1.6c0.6,0,1.1-0.1,1.5-0.2s0.8-0.4,1.1-0.7c0.3-0.3,0.5-0.6,0.7-1
				c0.2-0.4,0.3-0.8,0.4-1.2h1.1h0h3.1v-1.6H143.1L143.1,138.5z"/>
			<rect x="146.2" y="138.5" class="st0" width="3.1" height="1.6"/>
			<path class="st0" d="M156,141.2c-0.1-0.1-0.2-0.1-0.3-0.2c-0.1,0-0.2-0.1-0.3-0.1c-0.1,0-0.2,0-0.3,0.1c-0.1,0-0.2,0.1-0.3,0.2
				c-0.1,0.1-0.1,0.2-0.2,0.3c0,0.1-0.1,0.2-0.1,0.3c0,0.1,0,0.2,0.1,0.3c0,0.1,0.1,0.2,0.2,0.3c0.1,0.1,0.2,0.1,0.3,0.2
				c0.1,0,0.2,0.1,0.3,0.1c0.1,0,0.2,0,0.3-0.1c0.1,0,0.2-0.1,0.3-0.2c0.1-0.1,0.1-0.2,0.2-0.3c0-0.1,0.1-0.2,0.1-0.3
				c0-0.1,0-0.2-0.1-0.3C156.1,141.4,156.1,141.3,156,141.2z"/>
			<path class="st0" d="M160.9,138.5h-1h-0.2h-0.9c0-0.6-0.1-1.1-0.3-1.5c-0.2-0.4-0.3-0.8-0.6-1.1c-0.2-0.3-0.5-0.5-0.8-0.7
				s-0.6-0.3-0.9-0.4c-0.3-0.1-0.6-0.2-1-0.2c-0.3,0-0.6-0.1-0.9-0.1c-0.1,0-0.1,0-0.2,0c-0.1,0-0.1,0-0.2,0c-0.1,0-0.1,0-0.2,0
				c-0.1,0-0.1,0-0.2,0l-0.1,1.6c0.2,0,0.3,0,0.4,0c0.1,0,0.2,0,0.3,0c0.2,0,0.4,0,0.6,0c0.2,0,0.5,0,0.7,0.1c0.2,0,0.4,0.1,0.7,0.2
				c0.2,0.1,0.4,0.2,0.6,0.4c0.2,0.2,0.3,0.4,0.4,0.7c0.1,0.3,0.2,0.6,0.2,1h-4.8h0h-3.1v1.6h3.1h0h7.2h0.2h1.8c0.1,0,0.2,0,0.3-0.1
				c0.1,0,0.2-0.1,0.3-0.2c0.1-0.1,0.1-0.2,0.2-0.3c0-0.1,0.1-0.2,0-0.3v-7h-1.6V138.5z"/>
			<rect x="164" y="132.3" class="st0" width="1.6" height="7.8"/>
		</g>
	</g>
	<g>
		<rect x="33.8" y="108.4" class="st0" width="132.4" height="1.3"/>
	</g>
</g>
</svg>
