<?xml version="1.0" encoding="utf-8"?>
<!-- Generator: Adobe Illustrator 26.5.0, SVG Export Plug-In . SVG Version: 6.00 Build 0)  -->
<svg version="1.1" id="Calque_1" xmlns="http://www.w3.org/2000/svg" xmlns:xlink="http://www.w3.org/1999/xlink" x="0px" y="0px"
	 viewBox="0 0 200 200" style="enable-background:new 0 0 200 200;" xml:space="preserve">
<style type="text/css">
	.st0{fill:#FFFFFF;}
	.st1{fill-rule:evenodd;clip-rule:evenodd;fill:none;stroke:#FFFFFF;stroke-width:2;stroke-miterlimit:10;}
</style>
<g>
	<g>
		<path class="st0" d="M21.8,140.8h2.7l-0.5,2.6c-0.3,0.2-0.7,0.4-1.2,0.5c-0.5,0.1-0.9,0.2-1.4,0.2c-0.7,0-1.3-0.2-1.7-0.5
			c-0.5-0.5-0.8-1.1-0.8-2c0-0.6,0.1-1.1,0.3-1.7c0.3-0.6,0.7-1.1,1.2-1.5c0.5-0.4,1.1-0.5,1.8-0.5s1.3,0.2,1.7,0.5
			c0.4,0.3,0.7,0.8,0.8,1.4l-1.2,0.1c-0.1-0.3-0.3-0.6-0.5-0.8c-0.2-0.2-0.5-0.3-0.9-0.3c-0.4,0-0.8,0.1-1.1,0.3
			c-0.3,0.2-0.6,0.5-0.8,1c-0.2,0.4-0.3,0.9-0.3,1.4c0,0.5,0.1,0.9,0.3,1.1s0.6,0.4,1,0.4c0.3,0,0.5,0,0.8-0.1
			c0.3-0.1,0.5-0.2,0.7-0.3l0.2-0.9h-1.5L21.8,140.8z"/>
		<path class="st0" d="M25.2,144.1l1.3-6h1.2l-1.3,6H25.2z"/>
		<path class="st0" d="M27.9,144.1l1.3-6h4.5l-0.2,1h-3.2l-0.3,1.4H33l-0.2,1h-3.1l-0.4,1.6h3.5l-0.2,1H27.9z"/>
		<path class="st0" d="M35.3,144.2l3-6.2h0.8l-3,6.2H35.3z"/>
		<path class="st0" d="M45.2,141.9l1.3,0.2c-0.2,0.7-0.6,1.2-1.1,1.6c-0.5,0.4-1.1,0.5-1.7,0.5c-0.7,0-1.3-0.2-1.7-0.7
			c-0.4-0.4-0.6-1.1-0.6-1.9c0-0.7,0.1-1.3,0.4-1.9s0.7-1,1.2-1.3c0.5-0.3,1-0.5,1.6-0.5c0.7,0,1.2,0.2,1.6,0.5
			c0.4,0.3,0.6,0.8,0.7,1.4l-1.2,0.1c-0.1-0.3-0.2-0.6-0.4-0.8c-0.2-0.2-0.4-0.2-0.7-0.2c-0.3,0-0.7,0.1-1,0.3
			c-0.3,0.2-0.5,0.5-0.7,1c-0.2,0.4-0.3,0.9-0.3,1.3c0,0.5,0.1,0.9,0.3,1.1c0.2,0.3,0.5,0.4,0.9,0.4c0.3,0,0.6-0.1,0.9-0.3
			C44.9,142.6,45.1,142.3,45.2,141.9z"/>
		<path class="st0" d="M47.3,144.1l1.3-6h1.2l-1,5h3.1l-0.2,1H47.3z"/>
		<path class="st0" d="M54,138h1.2l-0.7,3.3l-0.2,0.8c0,0.1,0,0.1,0,0.2c0,0.2,0.1,0.4,0.3,0.6c0.2,0.2,0.4,0.2,0.8,0.2
			c0.3,0,0.5-0.1,0.7-0.2c0.2-0.1,0.3-0.3,0.5-0.5s0.2-0.6,0.3-1.1l0.7-3.3h1.2l-0.7,3.3c-0.1,0.7-0.3,1.2-0.5,1.6
			c-0.2,0.4-0.5,0.7-0.9,0.9c-0.4,0.2-0.9,0.3-1.5,0.3c-0.7,0-1.2-0.2-1.6-0.5c-0.4-0.3-0.6-0.8-0.6-1.3c0-0.1,0-0.2,0-0.4
			c0-0.1,0.1-0.3,0.1-0.7L54,138z"/>
		<path class="st0" d="M59.3,142.1l1.2-0.1c0,0.4,0.1,0.6,0.2,0.8c0.2,0.2,0.5,0.3,1,0.3c0.4,0,0.7-0.1,0.9-0.2
			c0.2-0.1,0.3-0.3,0.3-0.5c0-0.2-0.1-0.3-0.2-0.5c-0.1-0.1-0.4-0.2-0.9-0.4c-0.5-0.2-0.8-0.4-1-0.5c-0.2-0.1-0.4-0.3-0.5-0.5
			c-0.1-0.2-0.2-0.5-0.2-0.8c0-0.5,0.2-0.9,0.5-1.3c0.4-0.3,0.9-0.5,1.6-0.5c0.7,0,1.3,0.2,1.6,0.5c0.4,0.3,0.6,0.8,0.6,1.3
			l-1.2,0.1c0-0.3-0.1-0.5-0.3-0.7s-0.4-0.2-0.8-0.2c-0.3,0-0.6,0.1-0.7,0.2c-0.1,0.1-0.2,0.3-0.2,0.5c0,0.2,0.1,0.3,0.2,0.4
			c0.1,0.1,0.4,0.3,0.9,0.5c0.7,0.3,1.1,0.5,1.3,0.7c0.3,0.3,0.4,0.6,0.4,1.1c0,0.5-0.2,1-0.6,1.4s-1,0.6-1.8,0.6
			c-0.5,0-1-0.1-1.4-0.3c-0.4-0.2-0.6-0.4-0.8-0.7S59.2,142.5,59.3,142.1z"/>
		<path class="st0" d="M67.6,144.1h-1.2l1.1-5h-1.8l0.2-1h4.8l-0.2,1h-1.7L67.6,144.1z"/>
		<path class="st0" d="M70.4,144.1l1.3-6h4.5l-0.2,1h-3.2l-0.3,1.4h3.1l-0.2,1h-3.1l-0.4,1.6h3.5l-0.2,1H70.4z"/>
		<path class="st0" d="M77.6,144.1h-1.2l1.3-6h2.7c0.5,0,0.8,0,1.1,0.1c0.3,0.1,0.5,0.3,0.6,0.5c0.2,0.3,0.2,0.6,0.2,0.9
			c0,0.5-0.2,0.9-0.5,1.3s-0.8,0.5-1.4,0.6c0.2,0.1,0.3,0.3,0.5,0.6c0.3,0.5,0.6,1.1,0.9,2h-1.3c-0.1-0.3-0.3-0.9-0.6-1.6
			c-0.2-0.4-0.3-0.7-0.5-0.8c-0.1-0.1-0.3-0.1-0.6-0.1h-0.5L77.6,144.1z M78.3,140.6H79c0.7,0,1.1,0,1.3-0.1s0.4-0.2,0.5-0.4
			c0.1-0.2,0.2-0.3,0.2-0.5c0-0.2-0.1-0.4-0.3-0.5c-0.1-0.1-0.3-0.1-0.7-0.1h-1.4L78.3,140.6z"/>
	</g>
	<g>
		<path class="st0" d="M85.5,144.4l1.1-5.3h1.7c0.3,0,0.5,0,0.7,0c0.2,0,0.4,0.1,0.6,0.2c0.2,0.1,0.3,0.2,0.4,0.4s0.1,0.4,0.1,0.6
			c0,0.3-0.1,0.5-0.2,0.8c-0.2,0.2-0.4,0.4-0.7,0.5c0.3,0.1,0.5,0.2,0.6,0.4c0.1,0.2,0.2,0.4,0.2,0.7c0,0.3-0.1,0.6-0.3,0.8
			c-0.2,0.3-0.4,0.5-0.7,0.6c-0.3,0.1-0.6,0.2-0.9,0.2L85.5,144.4L85.5,144.4z M86.3,143.8h1.2c0.3,0,0.5,0,0.7,0
			c0.2,0,0.4-0.1,0.5-0.2c0.1-0.1,0.3-0.2,0.3-0.4c0.1-0.2,0.1-0.3,0.1-0.5c0-0.3-0.1-0.4-0.2-0.6c-0.2-0.1-0.5-0.2-0.9-0.2h-1.4
			L86.3,143.8z M86.8,141.4h1.1c0.5,0,0.9-0.1,1.1-0.2c0.2-0.2,0.3-0.4,0.3-0.7c0-0.1,0-0.3-0.1-0.4c-0.1-0.1-0.2-0.2-0.3-0.2
			c-0.1-0.1-0.3-0.1-0.7-0.1h-1.1L86.8,141.4z"/>
		<path class="st0" d="M91.5,143c0-0.8,0.2-1.4,0.7-1.9c0.4-0.4,0.8-0.6,1.4-0.6c0.5,0,0.8,0.1,1.1,0.4s0.4,0.7,0.4,1.2
			c0,0.4-0.1,0.9-0.3,1.2c-0.2,0.4-0.4,0.7-0.8,0.9c-0.3,0.2-0.7,0.3-1,0.3c-0.3,0-0.6-0.1-0.8-0.2c-0.2-0.1-0.4-0.3-0.6-0.5
			C91.5,143.5,91.5,143.3,91.5,143z M92.1,142.9c0,0.4,0.1,0.6,0.3,0.8c0.2,0.2,0.4,0.3,0.7,0.3c0.1,0,0.3,0,0.4-0.1
			c0.1-0.1,0.3-0.1,0.4-0.3c0.1-0.1,0.2-0.3,0.3-0.4c0.1-0.1,0.1-0.3,0.2-0.5c0.1-0.2,0.1-0.5,0.1-0.7c0-0.3-0.1-0.6-0.3-0.8
			c-0.2-0.2-0.4-0.3-0.7-0.3c-0.2,0-0.4,0.1-0.6,0.1c-0.2,0.1-0.3,0.2-0.5,0.4c-0.1,0.2-0.2,0.4-0.3,0.7
			C92.1,142.5,92.1,142.7,92.1,142.9z"/>
		<path class="st0" d="M96.4,144.4l0.8-3.9h0.7l-0.8,3.9H96.4z M97.4,139.8l0.2-0.7h0.7l-0.2,0.7H97.4z"/>
		<path class="st0" d="M99.1,143.1l0.7,0c0,0.2,0,0.3,0.1,0.5c0.1,0.1,0.2,0.2,0.3,0.3c0.2,0.1,0.3,0.1,0.5,0.1
			c0.3,0,0.5-0.1,0.7-0.2c0.1-0.1,0.2-0.3,0.2-0.4c0-0.1,0-0.2-0.1-0.3c-0.1-0.1-0.3-0.2-0.7-0.4c-0.3-0.1-0.6-0.3-0.7-0.3
			c-0.2-0.1-0.3-0.2-0.4-0.3s-0.1-0.3-0.1-0.5c0-0.3,0.1-0.6,0.4-0.8c0.2-0.2,0.6-0.3,1-0.3c0.5,0,0.9,0.1,1.1,0.3
			c0.3,0.2,0.4,0.5,0.4,0.9l-0.6,0c0-0.2-0.1-0.4-0.2-0.6c-0.2-0.1-0.4-0.2-0.7-0.2c-0.2,0-0.4,0.1-0.5,0.2s-0.2,0.2-0.2,0.3
			c0,0.1,0.1,0.2,0.2,0.3c0.1,0.1,0.3,0.2,0.6,0.3c0.5,0.2,0.8,0.4,0.9,0.5c0.2,0.2,0.3,0.4,0.3,0.7c0,0.2-0.1,0.4-0.2,0.6
			c-0.1,0.2-0.3,0.3-0.5,0.4c-0.2,0.1-0.5,0.2-0.9,0.2c-0.4,0-0.8-0.1-1.1-0.3C99.2,144,99.1,143.6,99.1,143.1z"/>
		<path class="st0" d="M103.8,143.1l0.7,0c0,0.2,0,0.3,0.1,0.5c0.1,0.1,0.2,0.2,0.3,0.3c0.2,0.1,0.3,0.1,0.5,0.1
			c0.3,0,0.5-0.1,0.7-0.2c0.1-0.1,0.2-0.3,0.2-0.4c0-0.1,0-0.2-0.1-0.3c-0.1-0.1-0.3-0.2-0.7-0.4c-0.3-0.1-0.6-0.3-0.7-0.3
			c-0.2-0.1-0.3-0.2-0.4-0.3c-0.1-0.1-0.1-0.3-0.1-0.5c0-0.3,0.1-0.6,0.4-0.8c0.2-0.2,0.6-0.3,1-0.3c0.5,0,0.9,0.1,1.1,0.3
			c0.3,0.2,0.4,0.5,0.4,0.9l-0.6,0c0-0.2-0.1-0.4-0.2-0.6c-0.2-0.1-0.4-0.2-0.7-0.2c-0.2,0-0.4,0.1-0.5,0.2s-0.2,0.2-0.2,0.3
			c0,0.1,0.1,0.2,0.2,0.3c0.1,0.1,0.3,0.2,0.6,0.3c0.5,0.2,0.8,0.4,0.9,0.5c0.2,0.2,0.3,0.4,0.3,0.7c0,0.2-0.1,0.4-0.2,0.6
			c-0.1,0.2-0.3,0.3-0.5,0.4s-0.5,0.2-0.9,0.2c-0.4,0-0.8-0.1-1.1-0.3C103.9,144,103.8,143.6,103.8,143.1z"/>
		<path class="st0" d="M108.5,143c0-0.8,0.2-1.4,0.7-1.9c0.4-0.4,0.8-0.6,1.4-0.6c0.5,0,0.8,0.1,1.1,0.4s0.4,0.7,0.4,1.2
			c0,0.4-0.1,0.9-0.3,1.2c-0.2,0.4-0.4,0.7-0.8,0.9s-0.7,0.3-1,0.3c-0.3,0-0.6-0.1-0.8-0.2c-0.2-0.1-0.4-0.3-0.6-0.5
			C108.6,143.5,108.5,143.3,108.5,143z M109.2,142.9c0,0.4,0.1,0.6,0.3,0.8c0.2,0.2,0.4,0.3,0.7,0.3c0.1,0,0.3,0,0.4-0.1
			c0.1-0.1,0.3-0.1,0.4-0.3s0.2-0.3,0.3-0.4c0.1-0.1,0.1-0.3,0.2-0.5c0.1-0.2,0.1-0.5,0.1-0.7c0-0.3-0.1-0.6-0.3-0.8
			c-0.2-0.2-0.4-0.3-0.7-0.3c-0.2,0-0.4,0.1-0.6,0.1c-0.2,0.1-0.3,0.2-0.5,0.4c-0.1,0.2-0.2,0.4-0.3,0.7
			C109.2,142.5,109.2,142.7,109.2,142.9z"/>
		<path class="st0" d="M113.5,144.4l0.8-3.9h0.6l-0.1,0.7c0.3-0.3,0.5-0.5,0.7-0.6c0.2-0.1,0.5-0.2,0.7-0.2c0.3,0,0.6,0.1,0.7,0.3
			s0.3,0.4,0.3,0.7c0,0.1,0,0.4-0.1,0.7l-0.5,2.3h-0.7l0.5-2.4c0.1-0.2,0.1-0.4,0.1-0.5c0-0.1,0-0.2-0.1-0.3
			c-0.1-0.1-0.2-0.1-0.4-0.1c-0.3,0-0.6,0.1-0.9,0.4s-0.5,0.7-0.6,1.2l-0.4,1.8L113.5,144.4L113.5,144.4z"/>
		<path class="st0" d="M118.7,142.8l0.1-0.7h2l-0.1,0.7H118.7z"/>
		<path class="st0" d="M121.6,144.4l3-5.3h0.8l0.9,5.3h-0.7l-0.3-1.5h-2.2l-0.9,1.5H121.6z M123.6,142.3h1.8l-0.2-1.3
			c-0.1-0.5-0.1-1-0.1-1.3c-0.1,0.3-0.3,0.7-0.5,1.1L123.6,142.3z"/>
		<path class="st0" d="M127.9,144.8l0.7,0.1c0,0.1,0,0.3,0.1,0.3c0,0.1,0.1,0.1,0.2,0.2c0.1,0.1,0.3,0.1,0.5,0.1
			c0.4,0,0.7-0.1,0.9-0.3c0.1-0.1,0.2-0.4,0.3-0.9l0.1-0.3c-0.3,0.3-0.7,0.5-1.1,0.5c-0.4,0-0.7-0.1-1-0.4c-0.3-0.3-0.4-0.7-0.4-1.2
			c0-0.4,0.1-0.8,0.3-1.2s0.5-0.6,0.7-0.8c0.3-0.2,0.6-0.3,0.9-0.3c0.5,0,0.9,0.2,1.2,0.7l0.1-0.6h0.6l-0.8,3.7
			c-0.1,0.4-0.2,0.7-0.3,1c-0.1,0.2-0.3,0.4-0.6,0.5c-0.2,0.1-0.5,0.2-0.9,0.2c-0.3,0-0.6,0-0.8-0.1s-0.4-0.2-0.5-0.3
			c-0.1-0.2-0.2-0.3-0.2-0.5C127.9,144.9,127.9,144.9,127.9,144.8z M128.7,142.7c0,0.3,0,0.5,0.1,0.6c0.1,0.2,0.2,0.3,0.3,0.4
			c0.1,0.1,0.3,0.1,0.5,0.1c0.2,0,0.4-0.1,0.6-0.2c0.2-0.2,0.4-0.4,0.5-0.7s0.2-0.6,0.2-0.9c0-0.3-0.1-0.6-0.3-0.8s-0.4-0.3-0.7-0.3
			c-0.2,0-0.3,0-0.5,0.1c-0.2,0.1-0.3,0.2-0.4,0.4c-0.1,0.2-0.2,0.4-0.3,0.6C128.8,142.4,128.7,142.6,128.7,142.7z"/>
		<path class="st0" d="M133,144.4l0.8-3.9h0.6l-0.2,0.8c0.2-0.3,0.4-0.5,0.6-0.7s0.4-0.2,0.6-0.2c0.1,0,0.3,0,0.5,0.1l-0.3,0.6
			c-0.1-0.1-0.2-0.1-0.4-0.1c-0.2,0-0.5,0.1-0.7,0.4c-0.2,0.3-0.4,0.7-0.6,1.4l-0.3,1.6L133,144.4L133,144.4z"/>
		<path class="st0" d="M136.6,143c0-0.8,0.2-1.4,0.7-1.9c0.4-0.4,0.8-0.6,1.4-0.6c0.5,0,0.8,0.1,1.1,0.4s0.4,0.7,0.4,1.2
			c0,0.4-0.1,0.9-0.3,1.2c-0.2,0.4-0.4,0.7-0.8,0.9s-0.7,0.3-1,0.3c-0.3,0-0.6-0.1-0.8-0.2c-0.2-0.1-0.4-0.3-0.6-0.5
			C136.7,143.5,136.6,143.3,136.6,143z M137.3,142.9c0,0.4,0.1,0.6,0.3,0.8c0.2,0.2,0.4,0.3,0.7,0.3c0.1,0,0.3,0,0.4-0.1
			c0.1-0.1,0.3-0.1,0.4-0.3c0.1-0.1,0.2-0.3,0.3-0.4s0.1-0.3,0.2-0.5c0.1-0.2,0.1-0.5,0.1-0.7c0-0.3-0.1-0.6-0.3-0.8
			c-0.2-0.2-0.4-0.3-0.7-0.3c-0.2,0-0.4,0.1-0.6,0.1c-0.2,0.1-0.3,0.2-0.5,0.4s-0.2,0.4-0.3,0.7
			C137.3,142.5,137.3,142.7,137.3,142.9z"/>
		<path class="st0" d="M141.5,144.4l1.1-5.3h0.7l-1.1,5.3H141.5z"/>
		<path class="st0" d="M144.3,143c0-0.8,0.2-1.4,0.7-1.9c0.4-0.4,0.8-0.6,1.4-0.6c0.5,0,0.8,0.1,1.1,0.4s0.4,0.7,0.4,1.2
			c0,0.4-0.1,0.9-0.3,1.2c-0.2,0.4-0.4,0.7-0.8,0.9c-0.3,0.2-0.7,0.3-1,0.3c-0.3,0-0.6-0.1-0.8-0.2c-0.2-0.1-0.4-0.3-0.6-0.5
			C144.4,143.5,144.3,143.3,144.3,143z M145,142.9c0,0.4,0.1,0.6,0.3,0.8c0.2,0.2,0.4,0.3,0.7,0.3c0.1,0,0.3,0,0.4-0.1
			c0.1-0.1,0.3-0.1,0.4-0.3c0.1-0.1,0.2-0.3,0.3-0.4s0.1-0.3,0.2-0.5c0.1-0.2,0.1-0.5,0.1-0.7c0-0.3-0.1-0.6-0.3-0.8
			c-0.2-0.2-0.4-0.3-0.7-0.3c-0.2,0-0.4,0.1-0.6,0.1c-0.2,0.1-0.3,0.2-0.5,0.4s-0.2,0.4-0.3,0.7C145,142.5,145,142.7,145,142.9z"/>
		<path class="st0" d="M149.2,144.8l0.7,0.1c0,0.1,0,0.3,0.1,0.3c0,0.1,0.1,0.1,0.2,0.2c0.1,0.1,0.3,0.1,0.5,0.1
			c0.4,0,0.7-0.1,0.9-0.3c0.1-0.1,0.2-0.4,0.3-0.9l0.1-0.3c-0.3,0.3-0.7,0.5-1.1,0.5c-0.4,0-0.7-0.1-1-0.4c-0.3-0.3-0.4-0.7-0.4-1.2
			c0-0.4,0.1-0.8,0.3-1.2s0.5-0.6,0.7-0.8c0.3-0.2,0.6-0.3,0.9-0.3c0.5,0,0.9,0.2,1.2,0.7l0.1-0.6h0.6l-0.8,3.7
			c-0.1,0.4-0.2,0.7-0.3,1c-0.1,0.2-0.3,0.4-0.6,0.5c-0.2,0.1-0.5,0.2-0.9,0.2c-0.3,0-0.6,0-0.8-0.1c-0.2-0.1-0.4-0.2-0.5-0.3
			c-0.1-0.2-0.2-0.3-0.2-0.5C149.2,144.9,149.2,144.9,149.2,144.8z M150.1,142.7c0,0.3,0,0.5,0.1,0.6c0.1,0.2,0.2,0.3,0.3,0.4
			c0.1,0.1,0.3,0.1,0.5,0.1c0.2,0,0.4-0.1,0.6-0.2c0.2-0.2,0.4-0.4,0.5-0.7s0.2-0.6,0.2-0.9c0-0.3-0.1-0.6-0.3-0.8
			c-0.2-0.2-0.4-0.3-0.7-0.3c-0.2,0-0.3,0-0.5,0.1c-0.2,0.1-0.3,0.2-0.4,0.4s-0.2,0.4-0.3,0.6C150.1,142.4,150.1,142.6,150.1,142.7z
			"/>
		<path class="st0" d="M154.4,144.4l0.8-3.9h0.7l-0.8,3.9H154.4z M155.3,139.8l0.2-0.7h0.7l-0.2,0.7H155.3z"/>
		<path class="st0" d="M157,143.1l0.7,0c0,0.2,0,0.3,0.1,0.5s0.2,0.2,0.3,0.3c0.2,0.1,0.3,0.1,0.5,0.1c0.3,0,0.5-0.1,0.7-0.2
			c0.1-0.1,0.2-0.3,0.2-0.4c0-0.1,0-0.2-0.1-0.3c-0.1-0.1-0.3-0.2-0.7-0.4c-0.3-0.1-0.6-0.3-0.7-0.3c-0.2-0.1-0.3-0.2-0.4-0.3
			s-0.1-0.3-0.1-0.5c0-0.3,0.1-0.6,0.4-0.8c0.2-0.2,0.6-0.3,1-0.3c0.5,0,0.9,0.1,1.1,0.3c0.3,0.2,0.4,0.5,0.4,0.9l-0.6,0
			c0-0.2-0.1-0.4-0.2-0.6c-0.2-0.1-0.4-0.2-0.7-0.2c-0.2,0-0.4,0.1-0.5,0.2c-0.1,0.1-0.2,0.2-0.2,0.3c0,0.1,0.1,0.2,0.2,0.3
			c0.1,0.1,0.3,0.2,0.6,0.3c0.5,0.2,0.8,0.4,0.9,0.5c0.2,0.2,0.3,0.4,0.3,0.7c0,0.2-0.1,0.4-0.2,0.6c-0.1,0.2-0.3,0.3-0.5,0.4
			c-0.2,0.1-0.5,0.2-0.9,0.2c-0.4,0-0.8-0.1-1.1-0.3C157.2,144,157,143.6,157,143.1z"/>
		<path class="st0" d="M163.2,143.9l-0.1,0.5c-0.2,0-0.3,0.1-0.5,0.1c-0.3,0-0.5-0.1-0.6-0.2c-0.1-0.1-0.2-0.2-0.2-0.4
			c0-0.1,0-0.3,0.1-0.6l0.5-2.2h-0.5l0.1-0.5h0.5l0.2-0.9l0.7-0.5l-0.3,1.4h0.6l-0.1,0.5H163l-0.4,2.1c-0.1,0.3-0.1,0.4-0.1,0.5
			c0,0.1,0,0.1,0.1,0.2c0,0,0.1,0.1,0.2,0.1C163,143.9,163.1,143.9,163.2,143.9z"/>
		<path class="st0" d="M164.7,144.4l0.8-3.9h0.7l-0.8,3.9H164.7z M165.6,139.8l0.2-0.7h0.7l-0.2,0.7H165.6z"/>
		<path class="st0" d="M169.8,144c-0.4,0.3-0.7,0.5-1.1,0.5c-0.4,0-0.7-0.1-0.9-0.4c-0.2-0.3-0.4-0.7-0.4-1.2c0-0.5,0.1-0.9,0.3-1.3
			c0.2-0.4,0.4-0.7,0.7-0.9c0.3-0.2,0.6-0.3,0.9-0.3c0.2,0,0.5,0.1,0.6,0.2c0.2,0.1,0.3,0.3,0.5,0.6l0.1-0.7h0.6l-1.1,5.3h-0.7
			L169.8,144z M168.1,142.9c0,0.4,0.1,0.7,0.2,0.8c0.2,0.2,0.4,0.3,0.6,0.3c0.2,0,0.4-0.1,0.6-0.2c0.2-0.2,0.4-0.4,0.5-0.7
			c0.1-0.3,0.2-0.7,0.2-1c0-0.3-0.1-0.6-0.2-0.7c-0.2-0.2-0.4-0.3-0.6-0.3s-0.4,0.1-0.6,0.2c-0.2,0.2-0.4,0.5-0.5,0.8
			C168.1,142.4,168.1,142.6,168.1,142.9z"/>
		<path class="st0" d="M175,143.7c-0.5,0.5-0.9,0.8-1.4,0.8c-0.3,0-0.5-0.1-0.7-0.3c-0.2-0.2-0.3-0.4-0.3-0.6c0-0.2,0-0.4,0.1-0.8
			l0.5-2.2h0.7l-0.5,2.5c0,0.2-0.1,0.4-0.1,0.5c0,0.1,0,0.3,0.1,0.3s0.2,0.1,0.4,0.1c0.2,0,0.4,0,0.5-0.1c0.2-0.1,0.3-0.2,0.5-0.4
			c0.1-0.2,0.2-0.3,0.3-0.5c0.1-0.1,0.1-0.4,0.2-0.7l0.3-1.7h0.7l-0.8,3.9h-0.6L175,143.7z"/>
		<path class="st0" d="M180.3,143.1l0.6,0.1c-0.1,0.3-0.3,0.6-0.6,0.9s-0.7,0.4-1.2,0.4c-0.3,0-0.5-0.1-0.8-0.2
			c-0.2-0.1-0.4-0.3-0.5-0.6c-0.1-0.3-0.2-0.5-0.2-0.9c0-0.4,0.1-0.8,0.3-1.2c0.2-0.4,0.4-0.7,0.8-0.9c0.3-0.2,0.6-0.3,1-0.3
			c0.5,0,0.8,0.1,1.1,0.4c0.3,0.3,0.4,0.7,0.4,1.2c0,0.2,0,0.4-0.1,0.6h-2.8c0,0.1,0,0.1,0,0.2c0,0.4,0.1,0.6,0.3,0.8
			c0.2,0.2,0.4,0.3,0.6,0.3c0.2,0,0.4-0.1,0.7-0.2C180,143.6,180.2,143.4,180.3,143.1z M178.4,142.2h2.2c0-0.1,0-0.1,0-0.1
			c0-0.3-0.1-0.6-0.2-0.8c-0.2-0.2-0.4-0.3-0.6-0.3c-0.3,0-0.5,0.1-0.8,0.3C178.7,141.5,178.5,141.8,178.4,142.2z"/>
	</g>
	<g>
		<path class="st0" d="M106.4,54c18.3,0,20.7,22,13.6,32.3c-0.1,0.2-0.2,0.4-0.1,0.2c2.6,2.8,5.4,5.2,7.4,8.2c1.9,3,2.9,6.6,4.2,9.6
			c1.2-4.2,2.6-9,4-13.8c3.2-10.9,6.3-21.7,9.5-32.6c0.6-2.2,1.9-3.5,4.3-3.6c3.3-0.1,4.4,0.7,5.3,4c4.8,17.2,9.7,34.4,14.5,51.6
			c1.5,5.2,3,10.4,4.4,15.6c0.7,2.5-0.3,4.8-2.2,5.9c-1.7,1-4.3,0.7-5.6-0.8c-0.7-0.9-1.2-2.1-1.6-3.2c-1.1-3.6-2.2-7.2-3.1-10.8
			c-0.3-1.3-1-1.6-2.2-1.6c-6.1,0.1-12.3,0.1-18.4,0c-1.3,0-2,0.3-2.4,1.7c-1.1,4-2.3,7.9-3.5,11.9c-0.7,2.5-3,4-5.2,3.5
			c-2.8-0.6-4.5-3.2-4.1-5.9c0.1-0.7,0.1-1.3,0.3-2.5c-0.8,0.6-1.3,0.9-1.7,1.3c-4.6,4.6-10.3,6.7-16.7,6.8c-5.1,0.1-10.1,0-15.2,0
			c-5.2,0-6.9-1.7-7-6.8c0-0.5,0-1.1,0-2.1c-1,0.7-1.7,1.1-2.4,1.6c-6.8,4.9-14.5,7.6-22.8,7.3C42.7,131.1,28,120,23.7,102.1
			C20.3,87.8,24.2,75.5,34,65c5.8-6.2,13.4-9.6,21.9-10.6c5.9-0.4,13.5,0.8,16.3,1.5c2.2,0.6,3.3,2.3,3.7,4.4
			c0.4,2.1-0.6,4.1-2.3,4.8c-1.7,0.7-4,0.6-5.8,0.1c-9.9-2.4-18.6-0.2-26,6.6c-9.4,8.6-11.6,22-6.2,33.6
			c8.5,18.1,32.7,21.6,45.9,6.6c2.4-2.7,3.8-5.6,3.7-9.5c-0.3-14,0-27.9-0.2-41.9c0-3.3,1-5.5,4.2-6.6C94.9,54,88.2,54,106.4,54z
			 M95.1,121.4c4.4,0,8.6,0,12.8,0c6.9-0.1,12.1-5.1,12.9-11.3c1.1-8.7-3.8-14.3-10.1-15.4c-5-0.9-10.3-0.2-15.6-0.2
			C95.1,103.5,95.1,112.3,95.1,121.4z M95.1,84.1c3.4,0,6.5,0.1,9.7,0c4.2-0.2,8.1-3.8,8.8-7.9c0.8-4.4-1.4-9.5-5.6-10.7
			c-4.1-1.1-8.5-1-12.9-1.4C95.1,71.1,95.1,77.4,95.1,84.1z M157.8,105.3c-2.6-9.2-5.2-18.4-7.8-27.5c-0.1,0-0.3,0-0.4,0
			c-2.6,9.1-5.3,18.1-8,27.5C147.2,105.3,152.4,105.3,157.8,105.3z"/>
		<path class="st1" d="M80.2,64.9c-10.7,7.7-20.9,8.6-27.6,13.7c-1.3,0.9-2.6,1.9-3.9,3.2c-0.8,0.5-1.5,1.1-2,1.6
			c-4.6,4.6-6.1,11-4.5,16.5c1.5,5.7,6.4,9.9,12.5,10.6c0.7,0.1,1.5,0.1,2.2,0.1c4.3,0,8.6-1.7,11.6-5.3c3.8-4.6,6-14.5,7.9-22.3
			c1.8-7.3,2.7-12.7,3.1-15.4C79.7,66.6,79.9,65.8,80.2,64.9z"/>
	</g>
</g>
</svg>
