<?xml version="1.0" encoding="utf-8"?>
<!-- Generator: Adobe Illustrator 26.5.0, SVG Export Plug-In . SVG Version: 6.00 Build 0)  -->
<svg version="1.1" id="Calque_1" xmlns="http://www.w3.org/2000/svg" xmlns:xlink="http://www.w3.org/1999/xlink" x="0px" y="0px"
	 viewBox="0 0 200 200" style="enable-background:new 0 0 200 200;" xml:space="preserve">
<style type="text/css">
	.st0{fill:#FFFFFF;}
</style>
<g>
	<g>
		<path class="st0" d="M154.4,119.4c0,0.1,0.1,0.2,0.1,0.3c0.6,0.8,0.7,1.7,0.6,2.6c-0.3,2-1,3.9-2.3,5.5c-0.1,0.1-0.2,0.3-0.2,0.4
			c-0.2,0.6-0.4,1.1-0.6,1.6c-0.3,0.7-0.5,1.3-0.6,2c0,0.2,0,0.4,0,0.6c0.1,0.6,0.3,1.2,0.6,1.7c0.5,1.1,0.3,2-0.3,3
			c-0.5,0.8-1.1,1.5-2,2c-0.3,0.2-0.6,0.3-1,0.3c-0.5,0.1-0.8-0.2-0.8-0.6c0-0.4,0.1-0.7,0.3-1.1c0.3-0.6,0.6-1.1,0.9-1.7
			c0.3-0.4,0.5-0.9,0.8-1.3c0.2-0.3,0.3-0.7,0.5-1c0.2-0.4,0.2-0.9-0.1-1.3c-0.2-0.3-0.3-0.7-0.5-1c-0.4-1-0.3-2.1,0.1-3.1
			c0.2-0.4,0.1-0.7-0.2-1c-1.1-1.1-1.6-2.4-1.8-3.9c0-0.4-0.1-0.7-0.1-1.1c0-0.3,0.1-0.6,0.2-0.8c0.2-0.4,0.6-0.6,1.1-0.6
			c0.5,0,1,0.2,1.4,0.5c0.4,0.3,0.6,0.5,0.9,0.9c0.1,0.2,0.3,0.4,0.4,0.6c0.1,0.1,0.1,0.2,0.2,0.2c0.2,0,0.2-0.2,0.2-0.3
			c0.1-0.2,0.2-0.5,0.3-0.7c0.2-0.7,0.5-1.5,0.6-2.2c0-0.2,0-0.5,0-0.7c0-0.3-0.1-0.4-0.4-0.5c-0.5-0.1-1-0.3-1.5-0.4
			c-0.4-0.1-0.7-0.2-1.1-0.3c-0.3-0.1-0.6-0.2-0.8-0.5c-0.6-0.6-1.1-1.3-1.5-2c0-0.1-0.1-0.1-0.1-0.2c0-0.1,0-0.2,0.2-0.2
			c0.2,0,0.3,0.1,0.5,0.1c2.1,0.6,4.1,1.3,6.2,1.8c0.1,0,0.1,0,0.2,0.1c0.6,0.2,0.6,0.2,0.8-0.4c0.4-1.2,0.5-2.5,0.4-3.8
			c0-0.3-0.1-0.5-0.3-0.8c-0.1-0.2-0.2-0.3-0.2-0.5c0-0.2,0.1-0.3,0.3-0.3c0.3,0.1,0.5,0.2,0.7,0.4c0.6,0.4,0.6,0.4,0.7-0.3
			c0-0.9,0-1.8-0.2-2.7c-0.1-0.5-0.2-0.5-0.7-0.5c-0.7-0.1-1.5-0.1-2.2-0.1c-0.6,0-1.3-0.1-1.9-0.1c-0.3,0-0.6-0.1-0.9-0.3
			c-0.7-0.4-1.2-0.9-1.7-1.5c0,0-0.1-0.1-0.1-0.1c-0.1-0.2-0.1-0.3,0.2-0.3c0.2,0,0.4,0,0.6,0c1.2,0,2.3,0,3.5,0.1
			c0.3,0,0.6,0,0.9,0.1c0.9,0.1,1.6,0.3,2.4,0.8c0.5,0.3,1,0.7,1.4,1.1c0.6,0.5,1,1.2,1.2,1.9c0.5,1.7,0.5,3.3,0.2,5
			c0,0.1,0,0.1,0,0.2c-0.1,0.3-0.2,0.3-0.5,0.3c0,0-0.1,0-0.1,0c-0.3-0.1-0.3-0.1-0.3,0.2c-0.1,0.5-0.1,1-0.1,1.6
			c-0.1,0.9-0.3,1.8-0.6,2.7c-0.1,0.1-0.1,0.3-0.2,0.4c-0.2,0.4-0.2,0.4-0.6,0.2c-0.8-0.3-1.6-0.6-2.5-0.9
			C154.7,119.4,154.5,119.4,154.4,119.4 M149.6,124.8c0,0.4,0.1,0.6,0.2,0.9c0.1,0.1,0.2,0.2,0.3,0.2c0.3-0.1,0.6-0.2,0.7-0.5
			c0.1-0.4,0.2-0.8,0.1-1.2c0-0.2-0.1-0.3-0.3-0.3c-0.5-0.1-1,0.1-1.1,0.6C149.6,124.6,149.6,124.7,149.6,124.8"/>
		<path class="st0" d="M115.9,159.2c-0.6,0.1-1.2,0.1-1.7,0c-2.1-0.1-3.9-1.7-3.8-3.9c0.1-1.8,0.9-3.3,2.3-4.6
			c1.3-1.2,2.8-2.1,4.5-2.9c2.2-1.1,4.6-1.9,7-2.6c0.1,0,0.2-0.1,0.4-0.1c0.3-0.1,0.4,0,0.4,0.3c0,0.1,0,0.2,0,0.2
			c0,0.7-0.1,1.4-0.4,2c-0.1,0.3-0.4,0.5-0.7,0.6c-2.5,0.7-5,1.5-7.3,2.6c-1.2,0.6-2.4,1.2-3.4,2c-0.4,0.3-0.8,0.7-1.1,1
			c-0.3,0.4-0.5,0.8-0.6,1.2c-0.1,0.2,0,0.4,0.2,0.6c0.4,0.3,0.9,0.5,1.4,0.6c0.7,0.1,1.5,0.2,2.2,0.1c1.5-0.1,3-0.5,4.5-0.9
			c3.3-1,6.4-2.6,9.2-4.4c1.5-1,3-2.1,4.3-3.3c0.9-0.8,1.6-1.7,2.3-2.5c0.5-0.6,0.4-0.8-0.2-1.3c-0.2-0.1-0.3-0.2-0.5-0.3
			c-0.2-0.1-0.4-0.2-0.7-0.3c-0.7-0.3-0.9-0.7-1-1.4c0-0.7,0-1.4,0.2-2.1c0-0.1,0-0.2,0.1-0.2c0.1-0.1,0.2-0.1,0.3-0.1
			c0.5,0.5,1.2,0.8,1.9,1.2c0.8,0.5,1.3,1.2,1.4,2.1c0.2,1.2,0,2.4-0.3,3.6c-0.2,0.6-0.6,1.1-0.9,1.7c-1,1.4-2.1,2.5-3.4,3.6
			c-3.1,2.6-6.5,4.6-10.4,6c-1.6,0.6-3.2,1-4.9,1.2C116.7,159.2,116.3,159.2,115.9,159.2"/>
		<path class="st0" d="M137.2,137.7c0-0.2,0-0.6,0.1-0.9c0.1-0.4,0.4-0.7,0.8-0.8c0.4-0.1,0.8-0.2,1.2-0.1c0.5,0,1,0.1,1.4,0.3
			c0.2,0.1,0.4,0.1,0.5-0.1c0.7-0.8,1.3-1.7,1.7-2.6c0.2-0.3,0.1-0.4-0.3-0.5c-0.3-0.1-0.7-0.2-1-0.3c-0.5-0.1-0.8-0.4-0.9-0.9
			c-0.1-0.7-0.3-1.4-0.4-2c0-0.1,0-0.1,0-0.2c0-0.2,0.1-0.3,0.3-0.2c0.5,0.2,0.9,0.3,1.4,0.4c0.8,0.2,1.3,0.6,1.6,1.4
			c0.4,1.1,0.7,2.2,0.8,3.3c0,0.5-0.1,1-0.3,1.4c-0.3,0.7-0.7,1.4-1.1,2c-0.1,0.2-0.2,0.4,0,0.7c0.6,1.2,0.8,2.5,0.7,3.8
			c-0.1,1-0.4,1.9-1,2.7c-0.9,1.2-2.1,2.2-3.6,2.9c-0.3,0.1-0.6,0.2-0.9,0.3c-0.5,0.1-0.7-0.2-0.6-0.6c0.1-0.3,0.2-0.6,0.4-0.9
			c0.5-0.7,1.1-1.4,1.7-2.1c0.6-0.8,1.2-1.5,1.8-2.4c0.3-0.5,0.6-1.1,0.7-1.6c0.1-0.2,0.1-0.4-0.1-0.5c-0.3-0.4-0.5-0.4-0.8-0.1
			c-0.3,0.3-0.6,0.5-0.9,0.7c-0.3,0.2-0.6,0.4-0.9,0.5c-0.6,0.2-1.2,0.1-1.6-0.4c-0.3-0.3-0.5-0.6-0.6-1
			C137.4,139.1,137.3,138.5,137.2,137.7"/>
		<path class="st0" d="M150.3,101.2c0.8,0,1.5-0.1,2.3-0.1c1.5-0.1,3-0.1,4.4-0.2c0.4,0,0.8,0.1,1.1,0.3c0.6,0.4,1.2,0.8,1.8,1.2
			l0,0c0.1,0.1,0.2,0.1,0.2,0.2c0,0.1-0.2,0.1-0.2,0.1c-0.4,0-0.8,0-1.2,0.1c-1.9,0.1-3.7,0.2-5.6,0.3c-0.4,0-0.7,0-1-0.2
			c-0.6-0.4-1.2-0.8-1.8-1.1c0,0-0.1-0.1-0.1-0.1c-0.1-0.1-0.2-0.1-0.2-0.2C150.1,101.3,150.1,101.2,150.3,101.2
			C150.3,101.2,150.3,101.2,150.3,101.2"/>
		<path class="st0" d="M152,111.2c0,0,0,0.1,0,0.1c-0.1,1.1,0,2.1,0,3.2c0,0,0,0.1,0,0.1c0,0.3-0.1,0.3-0.4,0.2
			c-0.1,0-0.1-0.1-0.2-0.1c-0.6-0.4-1.1-1-1.6-1.6c-0.2-0.3-0.3-0.7-0.3-1c0-0.7,0-1.5,0.1-2.2c0-0.2,0-0.3,0.1-0.5
			c0.1-0.4,0.2-0.5,0.6-0.2c0.6,0.5,1.1,1,1.5,1.6C151.9,110.8,152,111,152,111.2"/>
		<path class="st0" d="M145.1,137.7c-0.1-0.2-0.1-0.4,0-0.6c0.2-1,0.5-1.9,0.9-2.9c0-0.1,0.1-0.1,0.1-0.2c0.1-0.1,0.2-0.2,0.3-0.1
			c0.1,0.1,0.1,0.1,0.2,0.2c0.4,0.6,0.8,1.1,1,1.8c0.1,0.3,0.1,0.5,0,0.8c-0.3,1-0.5,2-0.7,3c0,0.1,0,0.3-0.2,0.4
			c-0.2,0-0.3-0.1-0.4-0.2C145.8,139.2,145.3,138.5,145.1,137.7"/>
		<path class="st0" d="M143.8,121.1c0-0.2,0.1-0.3,0.2-0.3c0.4-0.1,0.9-0.3,1.3-0.4c0.3-0.1,0.4,0,0.6,0.2c0.1,0.1,0.2,0.3,0.2,0.4
			c0.3,0.6,0.5,1.2,0.7,1.8c0.1,0.4,0,0.4-0.3,0.5c-0.4,0.1-0.8,0.2-1.2,0.3c-0.3,0.1-0.5,0-0.7-0.2c0,0,0,0,0-0.1
			C144.1,122.7,143.9,121.9,143.8,121.1"/>
		<path class="st0" d="M128.1,142.6c-0.2-0.5-0.2-0.9-0.3-1.4c0-0.4,0-0.4,0.4-0.5c0.4-0.1,0.7-0.1,1.1-0.2c0.4-0.1,0.5,0,0.7,0.3
			c0.3,0.7,0.5,1.4,0.6,2.2c0.1,0.4,0,0.5-0.4,0.6c-0.4,0.1-0.7,0.2-1.1,0.2c-0.3,0-0.6-0.1-0.7-0.4
			C128.3,143.2,128.2,142.9,128.1,142.6"/>
		<path class="st0" d="M145.8,129.9c-0.2,0-0.3,0-0.4-0.2c-0.1-0.2-0.2-0.3-0.3-0.5c-0.3-0.6-0.5-1.2-0.6-1.9
			c-0.1-0.4,0-0.4,0.3-0.5c0.4-0.1,0.8-0.2,1.1-0.3c0.4-0.1,0.5,0,0.7,0.3c0.4,0.7,0.7,1.5,0.9,2.2c0.1,0.3,0,0.4-0.3,0.5
			C146.7,129.7,146.3,129.8,145.8,129.9"/>
		<path class="st0" d="M160.8,92.9c-1.8-5.9-4.7-11.5-8.4-16.5l4.7,0.3c-3.2-6-7.5-11.3-12.7-15.9l4.2,0.3
			c-5.4-5.3-11.7-9.6-18.7-12.7l3.3-2c-7.1-3.3-14.8-5.4-22.6-6c24.6,7,42.3,27.8,42.9,52l0,0L160.8,92.9z"/>
	</g>
	<g>
		<path class="st0" d="M40.2,105.4c0.1-1,0.3-2,0.7-3c0.5-1.3,1.6-1.9,3-2c1.4-0.1,2.6,0.3,3.6,1.2c1.5,1.2,2.4,2.7,3.2,4.4
			c1.4,2.7,2.2,5.5,2.9,8.4c0.5,2,0.8,4.1,1,6.2c0.1,0.7,0,0.8-0.7,0.6c-0.7-0.2-1.4-0.4-2.1-0.8c-0.3-0.1-0.4-0.3-0.4-0.6
			c-0.4-3.3-1.1-6.5-2.1-9.7c-0.5-1.7-1.2-3.4-2-5c-0.5-1-1.2-2-2-2.8c-0.1-0.1-0.3-0.2-0.4-0.3c-0.2-0.1-0.3-0.1-0.5,0.1
			c-0.2,0.2-0.3,0.5-0.4,0.8c-0.4,1.3-0.6,2.5-0.6,3.8c0,4.5,1.1,8.8,2.6,13c0.9,2.5,1.9,4.8,3.2,7.1c0.7,1.1,1.5,2.2,2.3,3.2
			c0.6,0.7,1.2,1.5,1.9,2.1c0.2,0.2,0.5,0.5,0.8,0.6c0.2,0.1,0.3,0.1,0.3-0.1c0.1-0.2,0-0.5,0-0.7c-0.1-0.3-0.2-0.6-0.4-1
			c-0.1-0.3-0.2-0.5-0.2-0.8c-0.1-0.4,0-0.8,0.3-1.2c0.2-0.3,0.5-0.5,0.9-0.6c0.9-0.2,1.8-0.2,2.6-0.1c1.1,0.1,2.2,0.5,3.3,1
			c0.6,0.3,1.2,0.7,1.7,1.2c0.4,0.3,0.6,0.7,0.8,1.2c0,0.1,0.1,0.3,0.1,0.4c0,0.2-0.1,0.3-0.3,0.3c-0.9,0.1-1.8,0.1-2.6-0.1
			c-0.1,0-0.2-0.1-0.2-0.1c-0.2-0.1-0.3-0.2-0.2-0.4c0.2-0.5,0-0.8-0.3-1.1c-0.5-0.5-1.1-0.8-1.8-1.1c-0.4-0.1-0.5-0.1-0.6,0.3
			c-0.1,0.4-0.1,0.7,0.1,1c0.1,0.2,0.2,0.5,0.3,0.7c0.1,0.2,0.2,0.5,0.2,0.7c0.1,0.7-0.2,1.2-0.9,1.5c-0.5,0.2-1,0.2-1.5,0.2
			c-2.3-0.1-4.3-1-5.9-2.6c-1.3-1.3-2.3-2.8-3.2-4.3c-2.9-5.1-4.9-10.5-5.9-16.2C40.2,109.2,40.1,107.4,40.2,105.4"/>
		<path class="st0" d="M80.2,153.5c-0.1-0.2-0.2-0.4-0.4-0.5c-0.5-0.5-1-0.9-1.6-1.3c-0.2-0.1-0.4-0.3-0.6-0.4
			c-0.3-0.3-0.3-0.4,0.1-0.6c0.7-0.4,1.5-0.6,2.3-0.8c0.2,0,0.4,0,0.6,0.1c0.4,0.2,0.8,0.3,1.2,0.5c0.4,0.1,0.4,0.1,0.7-0.2
			c0.6-0.8,1-1.7,1.4-2.6c0.2-0.4,0.4-0.8,0.6-1.1c0.1-0.2,0.3-0.3,0.5-0.4c0.7-0.3,1.5-0.5,2.3-0.7c0.1,0,0.1,0,0.2,0
			c0.2,0,0.3,0,0.2,0.2c0,0,0,0.1-0.1,0.1c-0.6,1.3-1.3,2.6-2,3.9c-0.2,0.3-0.4,0.6-0.5,0.8c-0.4,0.6-0.9,0.9-1.6,1
			c-0.2,0-0.5,0.1-0.7,0.1c-0.1,0-0.2,0.1-0.1,0.2c0.1,0.1,0.3,0.3,0.4,0.4c0.3,0.3,0.5,0.6,0.6,1c0.1,0.4,0,0.7-0.2,1
			c-0.3,0.3-0.6,0.5-0.9,0.6c-1.5,0.7-3.1,0.9-4.8,0.5c-1-0.2-1.9-0.5-2.8-0.8c-0.6-0.2-1.2-0.4-1.9-0.6c-0.6-0.1-1.2-0.1-1.9,0.1
			c-0.6,0.3-1.3,0.5-2,0.7c-1,0.2-1.9,0.1-2.8-0.4c-0.4-0.3-0.9-0.5-1.3-0.9c-0.7-0.6-1.3-1.2-1.8-1.9c-0.2-0.2-0.3-0.4-0.2-0.7
			c0.2-0.3,0.5-0.3,0.8-0.3c0.6,0,1.1,0.2,1.7,0.4c1.1,0.4,2.1,0.8,3.1,1.2c0.5,0.2,1,0.4,1.5,0.5c0.5,0.1,1,0.1,1.5-0.1
			c0.2-0.1,0.5-0.2,0.7-0.3c1.2-0.6,2.4-0.6,3.6-0.1c0.9,0.3,1.8,0.7,2.7,1.1c0.4,0.2,0.8,0.3,1.2,0.4
			C79.9,153.5,80,153.6,80.2,153.5"/>
		<path class="st0" d="M63.4,144.8c-0.4,0-0.6-0.1-0.9-0.2c-0.4-0.2-0.8-0.4-1.2-0.7c-0.2-0.1-0.5-0.3-0.7-0.4
			c-0.7-0.4-1.4-0.5-2.1-0.3c-0.9,0.2-1.9,0.3-2.8,0.2c-1-0.1-1.7-0.7-2.5-1.7c-0.7-1.1-1.3-2.5-1.4-2.8c-0.1-0.2-0.1-0.4,0-0.6
			c0.2-0.2,0.4-0.2,0.6-0.1c0.2,0,0.4,0.1,0.6,0.2c0.8,0.4,1.5,0.9,2.2,1.4c0.8,0.6,1.5,1.1,2.4,1.6c0.7,0.4,1.4,0.6,2.3,0.4
			c0.2-0.1,0.5-0.1,0.7-0.1c0.4-0.1,0.8-0.1,1.2-0.2c0.5,0,0.9,0,1.3,0.2c0.4,0.2,0.9,0.3,1.3,0.6c0.7,0.4,1.4,0.8,2.2,1.1
			c0.3,0.1,0.3,0.2,0.1,0.4c-0.1,0.1-0.2,0.2-0.3,0.2C65.3,144.6,64.3,144.8,63.4,144.8"/>
		<path class="st0" d="M86.6,159.3c-0.4,0.1-0.5,0-0.3-0.3c0.4-1.1,0.6-2.2,0.9-3.3c0.2-0.7,0.4-1.5,0.6-2.2c0.1-0.5,0.4-1,0.9-1.3
			c0.5-0.4,1.1-0.7,1.7-1c0.1,0,0.2-0.1,0.3-0.1c0.1,0.1,0,0.2,0,0.3c-0.1,0.6-0.3,1.2-0.4,1.8c-0.3,1.3-0.6,2.6-1,3.9
			c-0.2,0.7-0.6,1.2-1.2,1.6c-0.4,0.3-0.7,0.5-1.1,0.7C86.8,159.2,86.7,159.3,86.6,159.3"/>
		<path class="st0" d="M66.1,148.3c-0.2,0-0.3,0-0.4-0.1c-0.1-0.1,0.1-0.2,0.1-0.3c0.5-0.7,1-1.4,1.5-2.1c0.8-1.1,1.6-2.1,2.4-3.2
			c0.3-0.3,0.6-0.5,0.9-0.7c0.6-0.2,1.3-0.4,1.9-0.7c0.1,0,0.2,0,0.2,0c0.1,0,0.2,0.1,0.2,0.2c0,0.1-0.1,0.1-0.1,0.2
			c-1.1,1.6-2.1,3.2-3.3,4.8c-0.2,0.3-0.5,0.6-0.7,0.8c-0.2,0.2-0.4,0.4-0.7,0.5C67.5,148,66.8,148.2,66.1,148.3"/>
		<path class="st0" d="M66.5,139.7c-0.1-0.2-0.3-0.3-0.4-0.5c-0.6-0.5-0.6-1.2,0.1-1.7c0.3-0.2,0.6-0.4,1-0.5
			c1.1-0.3,2.1-0.4,3.2-0.3c0.2,0,0.4,0,0.5,0.2c0.1,0.2-0.2,0.3-0.3,0.4c-0.1,0.1-0.3,0.2-0.5,0.3c-0.4,0.2-0.8,0.3-1.2,0.2
			c-0.2-0.1-0.5-0.1-0.7-0.1c-0.1,0-0.2,0-0.2,0.1c0,0.1,0,0.2,0.1,0.2c0.1,0.1,0.2,0.2,0.3,0.3c0.1,0.1,0.2,0.2,0.4,0.3
			c0.5,0.5,0.4,0.9-0.1,1.3c-0.3,0.2-0.6,0.3-0.9,0.4c-0.9,0.2-1.8,0.1-2.6-0.2c-0.7-0.2-1.2-0.7-1.7-1.1c-0.1-0.1-0.1-0.2-0.1-0.3
			c0.1-0.1,0.2-0.1,0.3-0.1c0.4,0.1,0.7,0.2,1.1,0.4c0.5,0.2,1,0.4,1.6,0.6C66.3,139.7,66.4,139.8,66.5,139.7"/>
		<path class="st0" d="M46.7,132.4c0.3,0,0.7,0.1,1,0.1c0.5,0.1,0.9,0.3,1.2,0.7c0.7,0.8,1.4,1.6,2.2,2.3c0.1,0.1,0.3,0.2,0.2,0.4
			c-0.1,0.2-0.3,0.2-0.5,0.2c-0.9,0.1-1.7,0-2.5-0.2c-0.2-0.1-0.3-0.2-0.5-0.3c-0.7-0.6-1.2-1.3-1.9-1.9c-0.2-0.2-0.4-0.5-0.7-0.7
			c-0.3-0.3-0.2-0.4,0.2-0.5C45.9,132.4,46.3,132.4,46.7,132.4"/>
		<path class="st0" d="M74,149.4c-0.2,0-0.3-0.1-0.3-0.2c-0.1-0.4-0.2-0.8-0.3-1.2c-0.1-0.3,0.1-0.5,0.3-0.6
			c0.3-0.2,0.7-0.3,1.1-0.4c0.5-0.1,0.9-0.2,1.4-0.3c0.3,0,0.4,0,0.4,0.3c0.1,0.4,0.2,0.8,0.3,1.2c0,0.2,0,0.4-0.2,0.5
			C75.9,149,75,149.3,74,149.4"/>
		<path class="st0" d="M75.6,159.6c-0.1,0-0.2-0.1-0.3-0.2c-0.1-0.4-0.3-0.8-0.3-1.2c0-0.3,0.1-0.5,0.3-0.6c0.3-0.2,0.6-0.3,0.9-0.3
			c0.5-0.2,1.1-0.3,1.6-0.3c0.3,0,0.4,0,0.5,0.3c0.1,0.4,0.2,0.8,0.3,1.2c0.1,0.3,0,0.4-0.3,0.5c-0.8,0.4-1.7,0.6-2.6,0.7
			C75.8,159.6,75.7,159.6,75.6,159.6C75.7,159.6,75.7,159.6,75.6,159.6"/>
		<path class="st0" d="M39.2,93.1c1.8-5.9,4.5-11.5,8.1-16.5l-4.6,0.4c3.1-6,7.3-11.4,12.3-15.9l-4.2,0.3
			c5.2-5.4,11.5-9.7,18.3-12.8l-3.3-2c7-3.4,14.5-5.4,22.2-6.1c-24.1,7-41.3,28-41.7,52.2l0,0L39.2,93.1z"/>
	</g>
	<rect x="101.5" y="50.8" transform="matrix(0.7071 -0.7071 0.7071 0.7071 -7.917 90.8211)" class="st0" width="8.4" height="8.4"/>
	
		<rect x="89.2" y="50.8" transform="matrix(0.7071 -0.7071 0.7071 0.7071 -11.5001 82.1695)" class="st0" width="8.4" height="8.4"/>
	<path class="st0" d="M71.6,62c-0.1-0.5-0.5-0.5-0.6,0c-0.8,2.2-1.5,5.6-1.5,10.1c0,9,6.2,16.3,16.3,16.3c0,0,23,0.7,30.5-0.2
		c6.2-0.8,13.7-6.7,13.8-16.1c0-3.2-0.8-6.6-1.7-9.5l-5.9,5.9c2.7,2.8,2.9,8.8,0.7,12.2c-0.1,0.2-5,0.4-11.4,0.9
		c-11,0.8-26.1-0.5-26.1-0.5c-3.2-0.3-6.1-1.5-8.5-3.5C72.8,74,72.2,67.7,71.6,62"/>
	<path class="st0" d="M98.5,79.4c4-1.7,8.8-2.9,14.7-3.7l4.9-5.9c-12.5-8.7-27.4-6.6-33.2-4.5c-0.9,0.3-1.8,0.8-2.6,1.4
		c-1.9,1.5-2.7,3.2-1.8,5.2c1.9,3.4,6.9,5.1,17.1,10.7l1.5-2.1c-2.7-1.7-8.2-5.2-10.1-7.5c-0.5-0.7-1.6-2-0.1-2.7
		c3.5-1.6,12.7-0.5,15.7,1.3c-3,0.3-6.8,1.9-10.6,4.4L98.5,79.4z"/>
	<path class="st0" d="M94.2,81.6c-3.9,2.3-7.1,5.2-10.2,8.8h0c-3.6,4.3-5.2,9.8-5.8,15.8c-0.2,2.5-0.2,11,6.4,17.4
		c7.2,7,16.7,6,18,5.9c0.7-0.2,13.2-0.8,15.7-16.4c0.6-3.8,0.3-6.8-1.3-8.5c-2.3-2.4-5.2-2.6-10.2-2.3c-3,0.2-6.8,1.4-11.6,0.5
		c-5.8-1-9-4-10.3-5.6c-0.2-0.3,0.1-0.6,0.4-0.5c1.5,0.5,5.6,1.9,9.4,2c4.4,0.1,8.4-0.6,12.2-1c4.4-0.4,8.7-0.5,12.9,2.5
		c4.3,3.1,3.6,12.3,3.4,14.5c-1.2,13.8-10.3,24.4-24.5,24.4c-11,0-20.4-7.4-23.3-17.4c-1-3.4-1.5-7.1-1.5-10.8c0-8.1,3-16,7.6-22.4
		c2.5-3.4,5.4-6.4,8.3-8.9L94.2,81.6z"/>
	
		<rect x="94.7" y="111.3" transform="matrix(0.7072 -0.707 0.707 0.7072 -52.7026 103.7159)" class="st0" width="8.4" height="8.4"/>
</g>
</svg>
