<?xml version="1.0" encoding="utf-8"?>
<!-- Generator: Adobe Illustrator 26.5.0, SVG Export Plug-In . SVG Version: 6.00 Build 0)  -->
<svg version="1.1" id="Calque_1" xmlns="http://www.w3.org/2000/svg" xmlns:xlink="http://www.w3.org/1999/xlink" x="0px" y="0px"
	 viewBox="0 0 200 200" style="enable-background:new 0 0 200 200;" xml:space="preserve">
<style type="text/css">
	.st0{fill:#FFFFFF;}
	.st1{clip-path:url(#SVGID_00000013181514019505148610000003684003372391951804_);fill:#FFFFFF;}
	.st2{clip-path:url(#SVGID_00000147205947045933401250000004958435786171110275_);fill:#FFFFFF;}
	.st3{clip-path:url(#SVGID_00000069359494127577096800000014820279670646488493_);fill:#FFFFFF;}
	.st4{fill-rule:evenodd;clip-rule:evenodd;fill:#FFFFFF;}
</style>
<g>
	<g>
		<path class="st0" d="M169,65.2c2.3,7.1,3.6,14.7,3.6,22.6c0,40.1-32.5,72.6-72.6,72.6c-40.1,0-72.6-32.5-72.6-72.6
			c0-7.9,1.3-15.5,3.6-22.6c-4.3,9.5-6.7,20-6.7,31.1c0,41.8,33.9,75.7,75.7,75.7c41.8,0,75.7-33.9,75.7-75.7
			C175.7,85.3,173.3,74.7,169,65.2"/>
	</g>
	<g>
		<defs>
			<path id="SVGID_00000139997130761456911700000001704894487666945155_" d="M153.6,142.6c-14.3,14.3-33.4,22.2-53.6,22.2
				c-20.2,0-39.3-7.9-53.6-22.2c-6-6-10.9-12.9-14.6-20.5c3.6,9.9,9.3,18.9,17,26.6c13.7,13.7,31.9,21.3,51.2,21.3
				c19.4,0,37.6-7.6,51.2-21.2c7.7-7.7,13.4-16.8,17-26.7C164.6,129.6,159.7,136.6,153.6,142.6"/>
		</defs>
		<use xlink:href="#SVGID_00000139997130761456911700000001704894487666945155_"  style="overflow:visible;fill:#FFFFFF;"/>
		<clipPath id="SVGID_00000071539312558375620090000010234294815440461224_">
			<use xlink:href="#SVGID_00000139997130761456911700000001704894487666945155_"  style="overflow:visible;"/>
		</clipPath>
		
			<rect x="31.8" y="122" style="clip-path:url(#SVGID_00000071539312558375620090000010234294815440461224_);fill:#FFFFFF;" width="136.4" height="48"/>
	</g>
	<g>
		<path class="st0" d="M136.7,115.5c-3.6,4.3-7.9,8.2-12.9,11.4c-25.4,16.1-59.1,8.5-75.1-16.9c-16.1-25.4-8.6-59.1,16.9-75.2
			c5-3.2,10.4-5.4,15.8-6.8c-7.7,1.1-15.4,3.8-22.4,8.2C32.4,53,24.5,88.1,41.3,114.6c16.8,26.5,51.8,34.4,78.3,17.6
			C126.7,127.7,132.4,122,136.7,115.5"/>
	</g>
	<g>
		<defs>
			<path id="SVGID_00000073001950940569245960000006263677151973196724_" d="M35.5,72.7c-3.2,14.2-0.7,28.7,7.1,41
				c7.8,12.3,19.8,20.8,34,24c8,1.8,16,1.8,23.8,0c-6.3,0.7-12.7,0.4-18.9-1c-14.8-3.3-27.5-12.2-35.6-25.1
				c-8.1-12.8-10.8-28.1-7.4-42.9c1.4-6.2,3.8-12.1,7.1-17.4C40.7,57.6,37.3,64.8,35.5,72.7"/>
		</defs>
		<use xlink:href="#SVGID_00000073001950940569245960000006263677151973196724_"  style="overflow:visible;fill:#FFFFFF;"/>
		<clipPath id="SVGID_00000149371573512888937180000004793191878351058062_">
			<use xlink:href="#SVGID_00000073001950940569245960000006263677151973196724_"  style="overflow:visible;"/>
		</clipPath>
		<polygon style="clip-path:url(#SVGID_00000149371573512888937180000004793191878351058062_);fill:#FFFFFF;" points="-7.5,76.6 
			51.8,170.3 140.2,114.3 80.9,20.6 		"/>
	</g>
	<g>
		<path class="st0" d="M66.8,114c-3.4-3-6.3-6.7-8.7-10.8C46,82.1,53.3,55.1,74.4,43c21.1-12.1,48.1-4.8,60.2,16.3
			c2.4,4.2,4,8.6,4.9,13c-0.6-6.3-2.6-12.6-5.9-18.4c-12.6-22-40.7-29.7-62.7-17c-22,12.6-29.7,40.7-17,62.7
			C57.2,105.5,61.7,110.3,66.8,114"/>
	</g>
	<g>
		<defs>
			<path id="SVGID_00000173850931820372488650000004554670147708718983_" d="M71.6,38C61.3,43.9,54,53.3,51,64.7
				c-1.7,6.4-2,12.9-0.9,19.2c-0.4-5.1,0.1-10.3,1.5-15.3c3.2-11.9,10.9-21.8,21.5-27.9c10.7-6.1,23.1-7.7,35-4.5
				c5,1.3,9.7,3.5,13.9,6.4c-4.9-4.1-10.6-7.2-17-8.9c-3.8-1.1-7.8-1.6-11.6-1.6C85.8,32.2,78.3,34.2,71.6,38"/>
		</defs>
		<use xlink:href="#SVGID_00000173850931820372488650000004554670147708718983_"  style="overflow:visible;fill:#FFFFFF;"/>
		<clipPath id="SVGID_00000179643942185020968210000001920847064865051830_">
			<use xlink:href="#SVGID_00000173850931820372488650000004554670147708718983_"  style="overflow:visible;"/>
		</clipPath>
		
			<rect x="40.9" y="17.5" transform="matrix(0.8678 -0.4969 0.4969 0.8678 -17.5505 50.1338)" style="clip-path:url(#SVGID_00000179643942185020968210000001920847064865051830_);fill:#FFFFFF;" width="89" height="81.1"/>
	</g>
	<g>
		<path class="st4" d="M78.8,58.2c0.4,0.4,0.9,0,1-0.5c-0.2-0.2-0.7-0.5-1-0.2V58.2z"/>
		<path class="st4" d="M98.4,58.2c-1-0.2-0.9,1.1-0.1,1.2C98.5,59.2,98.7,58.6,98.4,58.2z"/>
		<path class="st4" d="M99.8,58.2h-0.6c-0.3,0.4-0.1,1.2,0.4,1.2C99.9,59.2,100.1,58.6,99.8,58.2z"/>
		<path class="st4" d="M84.3,61.1c0.2-0.2,0.4-0.2,0.4-0.7c-0.1-0.2-0.2-0.5-0.6-0.5C83.6,60,83.6,61.1,84.3,61.1z"/>
		<path class="st4" d="M82.9,61.1c0.5-0.2,0.6-1.2-0.1-1.2c-0.2,0.1-0.4,0.2-0.4,0.6C82.4,60.8,82.5,61.1,82.9,61.1z"/>
		<path class="st4" d="M91.7,66.6h1.1v-3.9v-1.3v-2.9c0-0.1,0-0.3-0.1-0.3c-0.6,0.5-1.2,1.1-1,2.7v4.5V66.6z"/>
		<path class="st4" d="M105.4,63.1c-0.2,0.3-0.1,1-0.1,1.5h0.1v0.3c0,0.1,0,0.3-0.1,0.3h-0.1h-4.1h-0.9c0-0.2-0.2-0.3-0.1-0.7
			c0.3-1.1,0-2.9,0.1-4.2c-0.5,0.2-1,0.5-1.1,1.2c-0.1,0.3,0.2,1-0.1,1c-1.7-0.2-2.4,0.8-2.2,2.8v0.2c-0.2,0.2-0.2,0.7-0.3,1h1.4H98
			h2.1h1.1h3.9h0.1c0.2-0.6,1.1,0.1,1.8-0.5c-0.7,0.6-1.6-0.1-1.8,0.5c1-0.1,2.4,0.2,3.2-0.2c-0.4-0.1-0.2-0.9-0.4-1.2
			c-1.9,0.9-2.4-2.8-0.4-2.3c-0.2-1,0.8-1.4,0.3-2.2C107.5,62,105.9,61.8,105.4,63.1z M98.9,65.3h-0.6h-0.1c-1-0.3-0.1-1.9,0.8-1.5
			C99.1,64,99.4,65.4,98.9,65.3z M101,65.6c0.2,0.4,1,0,1.4,0.2C102,65.7,101.2,66,101,65.6z M106.6,65.3c0,0.3-0.4,0.2-0.3,0.7
			C106.2,65.5,106.6,65.6,106.6,65.3z"/>
		<path class="st4" d="M113.5,62.4c-2.4-0.1-4.1,0.8-3.5,4.2h1.7h0.6c0.2,1.5-1.1,1.3-1.8,1.7c1.5,0.7,2.7-0.4,3.1-1.7h0.1h2.1h1.4
			h1.4c0.5,2.3,3.2,1.8,3.8,0h0.8h0.6h5.5h2.4c0.7,0.7,1,1.8,2.2,1.7c1-0.2,1.6-0.8,1.7-2.2c-0.1-0.8-0.3-1.6-0.8-1.9
			c-0.3-0.2-0.5-0.3-0.8-0.5c-0.3-0.4-0.5,0.1-0.8,0.2c-0.5,0.2-0.9,0.6-1.1,1.2v0.2h-0.3h-1.1c-1-0.1-0.9-1.5-1.6-2.2v-0.2
			c-0.1-0.2-0.1-0.6-0.4-0.7c-0.2-0.3-0.4-0.8-0.8-0.8c0-0.1,0-0.2-0.2-0.2c-0.1,0-0.2,0-0.3-0.2h-1c-0.9-0.1-0.1,1,0,1.4
			c0.3-0.1,0.7-0.4,1,0c0.8,0.5,1.1,1.7,1.4,2.8h-0.3h-0.1c-2-0.1-4.4,0.2-6.2-0.2c0-0.3-0.1-0.4-0.3-0.5c0-0.2-0.2-0.3-0.3-0.5
			h-0.1c-0.5-0.2-1-1.1-1.4-0.4c-0.2,0.1-0.3,0.3-0.6,0.4c-0.4,0.2-0.5,0.7-0.8,0.8v0.2c-1.4,0.3-3.7,0.3-5,0V62.4z M110.6,64.6
			c0.2,0.3-0.1,0.3,0.1,0.7C110.5,64.9,110.9,64.9,110.6,64.6z M112.3,64.3v1h-1.3c-0.1-1.1,0.4-1.5,1.3-1.3V64.3z M133.2,65.1v-0.2
			c0.1-0.5-0.1-0.5-0.2-0.7c0.1,0.2,0.4,0.2,0.2,0.7c0.4-0.1,0.5,0.2,0.8,0.2c0.5,0.5,0.3,1.9-0.4,1.8c0,0.4-0.4,0.2-0.4,0.5
			c0-0.3,0.5-0.1,0.4-0.5c-0.3,0.1-0.5,0-0.7-0.2C132.6,66.4,132.5,65.1,133.2,65.1z M132.1,65.6c0-0.2-0.2-0.1-0.1,0.2
			C131.9,65.5,132.1,65.4,132.1,65.6z M119.8,65.1c0.4-0.2,1.1-0.2,1.3,0.3c0,0.1,0,0.2,0.1,0.2c0.2,0.8-0.2,1-0.5,1.3
			C119.6,67.2,119.2,65.8,119.8,65.1z"/>
		<path class="st4" d="M82.1,66.6h2.5h1h2.4h0.1h2c0.6-2.1,0.1-5.6,0.3-8.2h-0.1c-0.3,0.3-0.8,0.5-1,1v5.7c0,0.1,0,0.2-0.1,0.2h-5.1
			v-0.2v-0.3v-0.7v-0.2v-1c0.2-0.9-0.3-0.6-0.4-0.2c-0.3,0.2-0.4,0.4-0.7,0.5c0.2,0.5,0.2,1.2,0.1,1.8c-0.1,0-0.2,0-0.1,0.2h-0.2
			h-1.7H81c0-0.2-0.2-0.3-0.2-0.7H81v-1.9v-2.3v-0.8c-0.4-0.1-0.4,0.3-0.9,0.2c-2.2-0.2-3,1.2-2.7,4h1.4c0.4,0,1-0.1,1,0.4v0.8
			c-1.8,0.8-4.7,0.1-6.9,0.3h-0.6c0.1-0.5-0.1-0.6-0.1-1c-0.1-2.2-2.4-1.8-4.4-1.8c-0.7,0.2-0.3-0.7-0.4-1.2
			c1.1-0.4,2.1-1.1,3.4-1.3c0-0.4,0.2-0.5,0.3-0.9v-0.2c0.1-0.2,0.2-0.4,0.3-0.6c-0.6,0.1-1.1,0.4-1.5,0.6c-0.2,0-0.2,0.2-0.4,0.2
			c-0.5,0.2-1,0.4-1.4,0.7c-0.3,0-0.6,0.2-0.8,0.3c-0.2,0.2-0.5,0.2-0.7,0.3v3.3H71c-0.3-0.2-0.7-0.2-0.8-0.2c0.1,0,0.4,0,0.8,0.2h0
			c0,0,0,0,0,0c0,0,0,0,0,0c0.2,0.4,0.3,0.7,0.2,1.3c0,0.1,0,0.2-0.1,0.2h-0.3h-7.9c0-0.1-0.1-0.2-0.1-0.2v-2.7
			c-0.5,0-1.3,0.9-1,2.3v0.3c0,0.1-0.1,0.2-0.1,0.2h-0.3h-0.3c-1.5,0.5-1.5-1-1.8-2c-0.3-0.1-0.3-0.6-0.6-0.8
			c-0.4,0.2-0.5,0.8-0.7,1.2c-0.3,0.3,0,0.7,0.3,0.8c0.1,0.3,0.3,0.5,0.3,1c0.5,1.6-0.7,2.6-1.7,3c1.5,0.4,2.5-0.5,2.9-1.8h0.4h0.3
			h2.4h1.7c0.6-0.1,1.3-0.3,2-0.3c-0.7,0-1.4,0.2-2,0.3h3.9h0.1h2.1h1.1h10H82.1z M70.8,62.7c-0.6,0-1,0.1-1.3,0.1
			C69.8,62.8,70.2,62.8,70.8,62.7z M70.7,63.3C70.8,63.3,70.8,63.3,70.7,63.3L70.7,63.3C70.8,63.3,70.8,63.3,70.7,63.3z M70.8,63.2
			L70.8,63.2L70.8,63.2c-0.2,0-0.5-0.1-0.6-0.1C70.4,63.2,70.6,63.2,70.8,63.2c0.1,0,0.2-0.1,0.4-0.2C71.1,63.2,71,63.2,70.8,63.2z
			 M62.4,65.3c-0.4,0-0.1-0.6,0-0.7C62.3,64.7,62,65.2,62.4,65.3z M66.2,65.9c-0.7,0-1.6,0.4-2.3,0.4C64.6,66.3,65.4,66,66.2,65.9
			c-1.1-0.4-0.6-0.5,0.7-0.5C65.6,65.4,65.1,65.5,66.2,65.9z M78.7,61.2c-0.1,0.4-0.3,0.5-0.4,0.8C78.4,61.8,78.6,61.6,78.7,61.2z
			 M79.9,62.2c-0.1,0.1-0.3,0.2-0.6,0.2h-0.7v-0.2v-0.3c0.1-0.6,0.4-0.9,1.1-0.8c0,0.2,0.1,0.2,0.1,0.3V62.2z M79.3,60.2
			c-0.1,0.8,0.5,0.2,0.6,0.5C79.9,60.5,79.3,61,79.3,60.2z M80.3,62.6L80.3,62.6c0.1,0.1,0.2,0.1,0.3,0.2
			C80.5,62.7,80.4,62.7,80.3,62.6z"/>
		<path class="st4" d="M62.2,68.1c-0.3,0-0.2-0.5-0.6-0.3c-0.2,0.1-0.5,0.3-0.4,0.8C61.7,69.1,62.2,68.9,62.2,68.1z"/>
		<path class="st4" d="M63.6,68c-0.7-0.7-1.3,0.7-0.6,1C63.5,68.9,63.7,68.6,63.6,68z"/>
		<path class="st4" d="M128.2,69.3c0.2-0.1,0.4-0.2,0.4-0.7c-0.1-0.2-0.2-0.3-0.3-0.5c-0.4,0-0.7,0.3-0.7,0.9
			C127.9,69,127.8,69.4,128.2,69.3z"/>
		<polygon class="st4" points="57.7,96.9 62.2,96.9 62.2,86.6 71.1,86.6 71.1,83 62.2,83 62.2,76.3 71.8,76.3 71.8,72.7 57.7,72.7 
					"/>
		<rect x="76.1" y="72.7" class="st4" width="4.4" height="42.5"/>
		<polygon class="st4" points="100,93.2 90,93.2 90,72.7 85.6,72.7 85.6,96.9 100,96.9 		"/>
		<path class="st4" d="M109.4,72.7l-7.8,24.2h4.6l2.1-6.8h7.7l2.2,6.8h4.8l-7.9-24.2H109.4z M109,86.7l1.9-6
			c0.4-1.4,0.8-3.1,1.2-4.5h0.1c0.4,1.4,0.8,3.1,1.2,4.5l1.9,6H109z"/>
		<polygon class="st4" points="130.8,72.7 126.3,72.7 126.3,96.9 130.8,96.9 130.8,86.2 141,86.2 141,96.9 145.5,96.9 145.5,72.7 
			141,72.7 141,82.4 130.8,82.4 		"/>
		<path class="st4" d="M162.2,72.7h-5.6l-7.8,24.2h4.6l2.1-6.8h7.7l2.2,6.8h4.8L162.2,72.7z M156.1,86.7l1.9-6
			c0.4-1.4,0.8-3.1,1.2-4.5h0.1c0.4,1.4,0.8,3.1,1.2,4.5l1.9,6H156.1z"/>
		<path class="st4" d="M90.3,107.8l3.9,6.6h2.9V99.3h-2.6v5.3c0,2.3,0,4.2,0.2,6.3h0c-0.7-1.6-1.6-3.4-2.6-5l-3.9-6.5h-3.2v15.1h2.6
			V109c0-2.5,0-4.5-0.2-6.4l0.1,0C88.4,104.3,89.4,106.1,90.3,107.8z"/>
		<path class="st4" d="M109.8,104.6c0,2.3,0,4.2,0.3,6.3H110c-0.7-1.6-1.6-3.4-2.6-5l-3.9-6.5h-3.2v15.1h2.5V109
			c0-2.5,0-4.5-0.2-6.4l0.1,0c0.7,1.7,1.7,3.5,2.7,5.2l4,6.6h2.9V99.3h-2.5V104.6z"/>
		<path class="st4" d="M121.9,99.1c-4.3,0-7.2,3.3-7.2,7.9c0,4.4,2.7,7.7,7,7.7c4.2,0,7.2-2.9,7.2-7.9
			C129,102.4,126.3,99.1,121.9,99.1z M121.9,112.4c-2.6,0-4.2-2.4-4.2-5.5c0-3.1,1.5-5.7,4.2-5.7c2.8,0,4.2,2.7,4.2,5.5
			C126,110,124.5,112.4,121.9,112.4z"/>
		<path class="st4" d="M138,106.2c-0.6,1.8-1.1,3.7-1.5,5.5h-0.1c-0.4-1.8-0.9-3.6-1.5-5.5l-2.1-6.9h-3l4.9,15.1h3.1l5.2-15.1h-2.9
			L138,106.2z"/>
		<polygon class="st4" points="147.5,107.7 153.2,107.7 153.2,105.5 147.5,105.5 147.5,101.6 153.6,101.6 153.6,99.3 144.8,99.3 
			144.8,114.4 153.9,114.4 153.9,112.2 147.5,112.2 		"/>
		<polygon class="st4" points="71.4,52.9 74,52.9 74,52.2 71.4,52.2 71.4,50.1 74.2,50.1 74.2,49.4 70.5,49.4 70.5,55.8 71.4,55.8 
					"/>
		<path class="st4" d="M78.3,55.9c1.8,0,3.2-1.2,3.2-3.4c0-1.9-1.2-3.3-3.2-3.3c-1.9,0-3.3,1.4-3.3,3.4
			C75.1,54.6,76.4,55.9,78.3,55.9z M78.3,49.9c1.5,0,2.2,1.3,2.2,2.6c0,1.5-0.8,2.7-2.2,2.7c-1.4,0-2.3-1.3-2.3-2.6
			C76.1,51.2,76.8,49.9,78.3,49.9z"/>
		<path class="st4" d="M83.6,53.1c0-1.1,0-1.9-0.1-2.7h0c0.3,0.7,0.8,1.4,1.3,2.2l2.2,3.3H88v-6.5h-0.9v2.7c0,1,0,1.8,0.1,2.7h0
			c-0.3-0.7-0.7-1.3-1.2-2.1l-2.2-3.3h-1v6.5h0.9V53.1z"/>
		<path class="st4" d="M94.3,55c0.7-0.6,1-1.5,1-2.5c0-1.1-0.4-1.8-1-2.3c-0.6-0.5-1.5-0.8-2.8-0.8c-0.7,0-1.4,0.1-1.9,0.1v6.4
			c0.5,0.1,1,0.1,1.7,0.1C92.6,55.9,93.6,55.6,94.3,55z M90.4,50.1c0.2,0,0.6-0.1,1.1-0.1c1.9,0,2.9,1,2.9,2.5c0,1.7-1,2.7-3,2.7
			c-0.3,0-0.7,0-0.9,0V50.1z"/>
		<path class="st4" d="M97.5,53.8h2.5l0.7,2h1l-2.4-6.5h-1.1l-2.4,6.5h0.9L97.5,53.8z M98.3,51.3c0.1-0.4,0.3-0.8,0.4-1.2h0
			c0.1,0.4,0.2,0.8,0.4,1.2l0.7,1.9h-2.1L98.3,51.3z"/>
		<polygon class="st4" points="103.2,55.8 104.1,55.8 104.1,50.1 106.3,50.1 106.3,49.4 101.1,49.4 101.1,50.1 103.2,50.1 		"/>
		<rect x="107" y="49.4" class="st4" width="0.9" height="6.5"/>
		<path class="st4" d="M112.3,55.9c1.8,0,3.2-1.2,3.2-3.4c0-1.9-1.2-3.3-3.1-3.3c-1.9,0-3.2,1.4-3.2,3.4
			C109.1,54.6,110.4,55.9,112.3,55.9z M112.3,49.9c1.5,0,2.2,1.3,2.2,2.6c0,1.5-0.8,2.7-2.2,2.7c-1.4,0-2.2-1.3-2.2-2.6
			C110.1,51.2,110.8,49.9,112.3,49.9z"/>
		<path class="st4" d="M117.6,53.1c0-1.1,0-1.9-0.1-2.7h0c0.3,0.7,0.8,1.4,1.3,2.2l2.2,3.3h0.9v-6.5h-0.9v2.7c0,1,0,1.8,0.1,2.7h0
			c-0.3-0.7-0.7-1.3-1.2-2.1l-2.2-3.3h-1v6.5h0.9V53.1z"/>
		<path class="st4" d="M88,126.1c-0.6-0.6-1.6-0.9-3-0.7c0,0.4-0.1,0.9,0.2,1c0.6,0,0.7,0.4,1.5,0.3c0.4,0.4,0.6,1,0.5,2
			c-1,1-3.5,0.3-5.2,0.5h-0.2c-0.1,0-0.1-0.1-0.1-0.1c0,0,0,0,0,0c0,0-0.1,0-0.1-0.1h0c0,0,0,0-0.1,0c0,0,0,0-0.1,0
			c-1.1-1,0.5-4.5-1.4-4h-0.2c-0.7,0.3-1.7,0.1-2,0.7h-0.5c-0.7,0.6-1.8,0.9-2.2,1.7c-0.9,0.3-1.2,2.8,0,3c4.5,0.4,10.7,0.4,15.2,0
			c0.2,0,0.3-0.2,0.5-0.2c0-0.4-0.1-0.6-0.3-0.9C89.7,127.8,88,126.1,88,126.1z M77.3,129.1c-0.1-0.2-0.2-0.5-0.5-0.5
			c0.1-1.2,0.9-1.7,2.2-1.7C79.3,128.4,78.6,129.1,77.3,129.1z"/>
		<path class="st4" d="M75.1,121.7c0,0.8,0.7,1,1.5,1c0.4-0.8-0.2-1.5-1.2-1.5C75.3,121.4,75.3,121.7,75.1,121.7z"/>
		<path class="st4" d="M80.3,122.7C80.2,119.5,77,122.7,80.3,122.7L80.3,122.7z"/>
		<path class="st4" d="M105.7,123.7c-0.2,0-0.3,0.1-0.3,0.3c-0.8,0.1-0.4,1.4-0.5,2.2h0.3c0.1,0.2,0.2,0.3,0.5,0.3
			c0.7,0.6,2.4,0.1,3.5,0.3h0.3c2.4,3.7-7.1,2.8-8.7,1.7v-12.2c-0.7-0.3-1.1-0.8-1.7-1.2c-1.3,5.7,3.7,16.2-5,14.2
			c-0.1,0.6,0.1,0.9,0.5,1c0.1,0,0.1,0.1,0.2,0.1c0,0,0,0,0,0c0.1,0,0.2,0.1,0.2,0.1c0,0,0,0,0.1,0c0.1,0,0.2,0,0.3,0
			c0,0,0.1,0,0.1,0c0.1,0,0.2,0,0.2,0c0.1,0,0.2,0,0.3,0c0,0,0.1,0,0.1,0c4.5,0.6,10.8,0.2,15.2,0c1-2.1,0.5-6.9,0.3-9.5
			C109.1,121.4,106.8,122,105.7,123.7z M107.4,124.9c-0.1-1.2,0.7-1.6,1.7-1.7C111.1,123.8,108.8,126.1,107.4,124.9z"/>
		<path class="st4" d="M109.4,117.7c-0.1-0.7-2.1-1.3-2,0C107.8,118.2,109.3,118.9,109.4,117.7z"/>
		<path class="st4" d="M95.5,126.6c0.3-0.3,0.2-1.1,0.2-1.7v-8.2c-0.1-0.5,0.3-1.6-0.2-1.7C93.3,116.1,92.9,125.5,95.5,126.6z"/>
	</g>
	<g>
		<path class="st0" d="M66.5,149c-0.3,0-1-0.2-1.6-0.6c-1.6-1-2.2-2.7-1.1-4.6c1.1-1.8,3-2.3,4.7-1.2c0.7,0.4,1.1,0.8,1.2,1.1
			l-0.6,0.5c-0.2-0.3-0.5-0.6-1-0.9c-1.3-0.8-2.7-0.5-3.6,1c-0.8,1.4-0.6,2.7,0.8,3.6c0.5,0.3,1,0.4,1.3,0.5L66.5,149z"/>
		<path class="st0" d="M68.7,147.9c-0.5,1-0.1,1.8,0.7,2.2c0.6,0.3,1,0.4,1.3,0.4l-0.1,0.6c-0.3,0-0.9-0.1-1.6-0.4
			c-1.3-0.7-1.6-1.9-1-3.2c0.6-1.3,1.9-1.9,3.1-1.3c1.4,0.7,1.1,2.1,0.8,2.9c-0.1,0.2-0.2,0.3-0.2,0.3L68.7,147.9z M71.2,148.5
			c0.3-0.5,0.4-1.3-0.4-1.8c-0.8-0.4-1.5,0.2-1.8,0.7L71.2,148.5z"/>
		<path class="st0" d="M72.9,148.8c0.2-0.5,0.4-1,0.5-1.4l0.7,0.3l-0.3,0.9l0,0c0.5-0.5,1.1-0.7,1.6-0.4c0.1,0.1,0.1,0.1,0.2,0.1
			l-0.3,0.8c-0.1-0.1-0.2-0.1-0.3-0.1c-0.6-0.2-1.1,0-1.5,0.5c-0.1,0.1-0.1,0.2-0.2,0.4l-1,2.3l-0.8-0.3L72.9,148.8z"/>
		<path class="st0" d="M77.7,154c-0.2,0-0.8,0-1.4-0.2c-1.3-0.5-1.8-1.7-1.4-3.1c0.5-1.4,1.8-2,3.3-1.5c0.5,0.2,0.9,0.5,1,0.6
			l-0.4,0.5c-0.2-0.2-0.4-0.4-0.9-0.5c-1-0.4-1.9,0.2-2.2,1.1c-0.4,1,0,1.9,0.9,2.2c0.5,0.2,0.8,0.2,1.1,0.2L77.7,154z"/>
		<polygon class="st0" points="80.8,147.9 81.6,148.1 79.4,154.7 78.6,154.5 		"/>
		<path class="st0" d="M81.9,153.2c-0.3,1.1,0.3,1.8,1.1,2c0.6,0.2,1,0.2,1.3,0.1l0,0.6c-0.3,0.1-0.9,0.1-1.6-0.1
			c-1.4-0.4-2-1.5-1.6-2.9c0.4-1.4,1.5-2.2,2.8-1.9c1.5,0.4,1.5,1.8,1.3,2.7c0,0.2-0.1,0.3-0.1,0.4L81.9,153.2z M84.5,153.2
			c0.2-0.5,0.1-1.4-0.8-1.6c-0.8-0.2-1.4,0.5-1.6,1L84.5,153.2z"/>
		<path class="st0" d="M94.5,150.7l-0.7,5.7c0,0.4-0.1,0.9-0.1,1.2l-0.8-0.1l0.1-0.8h0c-0.3,0.5-0.9,0.8-1.7,0.8
			c-1.1-0.1-1.9-1.2-1.7-2.6c0.2-1.6,1.3-2.4,2.4-2.3c0.7,0.1,1.2,0.5,1.3,0.9h0l0.3-2.8L94.5,150.7z M93.2,154.7c0-0.1,0-0.3,0-0.3
			c-0.1-0.6-0.5-1.1-1.1-1.1c-0.9-0.1-1.5,0.6-1.6,1.7c-0.1,0.9,0.3,1.8,1.2,1.9c0.6,0.1,1.1-0.3,1.4-0.8c0.1-0.1,0.1-0.2,0.1-0.4
			L93.2,154.7z"/>
		<path class="st0" d="M95.7,155.5c0,1.2,0.7,1.7,1.6,1.7c0.6,0,1-0.1,1.3-0.2l0.1,0.6c-0.3,0.1-0.8,0.3-1.6,0.3
			c-1.5-0.1-2.3-1.1-2.2-2.5c0-1.4,0.9-2.5,2.3-2.5c1.5,0,1.9,1.4,1.9,2.3c0,0.2,0,0.3,0,0.4L95.7,155.5z M98.2,155
			c0-0.5-0.2-1.4-1.1-1.4c-0.9,0-1.3,0.7-1.4,1.3L98.2,155z"/>
		<path class="st0" d="M101.9,154.5c0-0.5-0.1-1-0.1-1.5l0.7-0.1l0.1,0.9h0c0.2-0.7,0.7-1.1,1.2-1.1c0.1,0,0.2,0,0.3,0l0,0.8
			c-0.1,0-0.2,0-0.3,0c-0.6,0-1,0.5-1.1,1.2c0,0.1,0,0.3,0,0.4l0.2,2.5l-0.8,0.1L101.9,154.5z"/>
		<path class="st0" d="M105.4,155.2c0.2,1.2,1,1.5,1.8,1.4c0.6-0.1,1-0.2,1.3-0.4l0.2,0.6c-0.3,0.2-0.8,0.4-1.5,0.5
			c-1.5,0.2-2.4-0.6-2.6-2c-0.2-1.4,0.5-2.7,1.8-2.8c1.5-0.2,2.1,1.1,2.3,1.9c0,0.2,0,0.3,0,0.4L105.4,155.2z M107.8,154.3
			c-0.1-0.5-0.4-1.4-1.4-1.2c-0.9,0.1-1.1,1-1.1,1.6L107.8,154.3z M107.4,150.3l-1,1.5l-0.6,0.1l0.7-1.5L107.4,150.3z"/>
		<path class="st0" d="M110.1,156.7l-0.9-4l-0.6,0.1l-0.1-0.6l0.6-0.1l-0.1-0.2c-0.1-0.6-0.1-1.3,0.3-1.7c0.3-0.4,0.7-0.7,1.4-0.8
			c0.5-0.1,1.1-0.1,1.5,0l1.5,6.6l-0.8,0.2l-1.4-6.1c-0.1-0.1-0.4,0-0.7,0c-0.9,0.2-1,0.9-0.9,1.7l0.1,0.2l1.1-0.3l0.1,0.6l-1.1,0.3
			l0.9,4L110.1,156.7z"/>
		<path class="st0" d="M114.8,153.3c0.4,1.1,1.2,1.3,2,1.1c0.6-0.2,0.9-0.4,1.2-0.6l0.3,0.5c-0.3,0.2-0.7,0.5-1.4,0.8
			c-1.4,0.4-2.5-0.2-3-1.6c-0.4-1.3,0-2.7,1.3-3.1c1.5-0.5,2.3,0.7,2.5,1.5c0.1,0.2,0.1,0.3,0.1,0.4L114.8,153.3z M117,151.9
			c-0.1-0.5-0.6-1.3-1.6-0.9c-0.8,0.3-1,1.1-0.8,1.7L117,151.9z"/>
		<path class="st0" d="M118.3,149.5l1,0.7c0.3,0.1,0.5,0.3,0.7,0.5l0,0c0-0.3,0.1-0.6,0.2-0.9l0.2-1.2l0.9-0.3l-0.6,2.7l2.4,1.6
			l-0.9,0.4l-1-0.7c-0.3-0.2-0.5-0.4-0.8-0.6l0,0c0,0.3-0.1,0.6-0.2,0.9l-0.2,1.3l-0.9,0.4l0.6-2.9l-2.4-1.6L118.3,149.5z"/>
		<path class="st0" d="M122.1,146.3c0.1,0.3,0.1,0.6-0.3,0.7c-0.3,0.1-0.6,0-0.7-0.2c-0.1-0.3,0-0.6,0.3-0.7
			C121.7,145.9,122,146,122.1,146.3 M123.8,152.2l-2-4.3l0.8-0.4l2,4.3L123.8,152.2z"/>
		<path class="st0" d="M128.5,147.1c0.8,1.5,0.1,2.8-0.9,3.4c-1.1,0.6-2.4,0.2-3.2-1.1c-0.8-1.4-0.3-2.7,0.9-3.3
			C126.5,145.4,127.8,145.8,128.5,147.1 M125.2,148.9c0.5,0.9,1.4,1.3,2.1,0.9c0.7-0.4,0.9-1.4,0.4-2.3c-0.4-0.7-1.2-1.4-2.1-0.9
			C124.8,147.1,124.8,148.1,125.2,148.9"/>
		<path class="st0" d="M128.7,145.7c-0.3-0.4-0.5-0.7-0.7-1.1l0.6-0.4l0.5,0.6l0,0c0-0.5,0.2-1.2,0.8-1.6c0.5-0.3,1.6-0.6,2.5,0.8
			l1.5,2.4l-0.7,0.5l-1.5-2.3c-0.4-0.6-1-1-1.7-0.5c-0.5,0.3-0.6,0.9-0.5,1.3c0,0.1,0.1,0.3,0.2,0.4l1.5,2.4l-0.7,0.5L128.7,145.7z"
			/>
	</g>
</g>
</svg>
