<?xml version="1.0" encoding="utf-8"?>
<!-- Generator: Adobe Illustrator 26.5.0, SVG Export Plug-In . SVG Version: 6.00 Build 0)  -->
<svg version="1.1" id="Calque_1" xmlns="http://www.w3.org/2000/svg" xmlns:xlink="http://www.w3.org/1999/xlink" x="0px" y="0px"
	 viewBox="0 0 200 200" style="enable-background:new 0 0 200 200;" xml:space="preserve">
<style type="text/css">
	.st0{fill:#FFFFFF;}
</style>
<g>
	<g>
		<rect x="13" y="116.4" class="st0" width="79.8" height="0.4"/>
		<path class="st0" d="M101.3,70.7c-0.3,0-0.6,0.1-0.7,0.4L98,74.9l-0.1,0.3c0,0.2,0,0.4,0.1,0.7l2.6,3.9c0.2,0.2,0.4,0.4,0.7,0.4
			c0.2,0,0.3,0,0.4-0.1c0.4-0.2,0.5-0.8,0.2-1.1l-1.7-2.6h4c0.5,0,0.8-0.4,0.8-0.8c0-0.4-0.4-0.8-0.8-0.8h-4L102,72
			c0.2-0.4,0.1-0.9-0.3-1.1C101.6,70.7,101.4,70.7,101.3,70.7"/>
		<path class="st0" d="M98.5,70.7c-0.3,0-0.6,0.1-0.7,0.4l-2.6,3.9l-0.1,0.3c-0.1,0.2,0,0.4,0.1,0.7l2.6,3.9
			c0.2,0.2,0.4,0.4,0.7,0.4c0.2,0,0.3,0,0.5-0.1c0.4-0.2,0.5-0.8,0.2-1.1l-2.3-3.5l2.3-3.5c0.2-0.4,0.1-0.9-0.3-1.1
			C98.9,70.7,98.7,70.7,98.5,70.7"/>
		<path class="st0" d="M95.8,70.7c-0.3,0-0.5,0.1-0.7,0.4l-5.2,7.9c-0.2,0.4-0.1,0.9,0.2,1.1c0.1,0.1,0.3,0.1,0.5,0.1
			c0.3,0,0.6-0.1,0.7-0.4l5.2-7.9c0.2-0.4,0.1-0.9-0.3-1.1C96.1,70.7,96,70.7,95.8,70.7"/>
		<path class="st0" d="M97.4,84.3c-4.9,0-8.9-4-8.9-8.9s4-8.9,8.9-8.9c4.9,0,8.9,4,8.9,8.9S102.3,84.3,97.4,84.3 M97.4,65.4
			c-5.5,0-10,4.5-10,10s4.5,10,10,10c5.5,0,10-4.5,10-10C107.4,69.9,102.9,65.4,97.4,65.4"/>
	</g>
	<g>
		<path class="st0" d="M28.7,65.3H13v1.1h0.6c1.8,0,2.9,0.2,3.4,0.4c0.5,0.3,0.9,0.8,1,1.6c0.2,0.8,0.2,2.5,0.2,5.2v16.6
			c0,2.8-0.1,4.6-0.2,5.4s-0.5,1.3-1.1,1.7c-0.6,0.4-1.6,0.5-3.1,0.5H13v1.1h15.7v-1.1h-1c-1.6,0-2.6-0.2-3.2-0.6s-0.9-1-1-1.8
			c-0.1-0.8-0.2-2.6-0.2-5.2V73.8c0-2.8,0.1-4.6,0.3-5.3c0.2-0.7,0.5-1.3,1.1-1.5c0.5-0.3,1.6-0.4,3.3-0.4h0.7L28.7,65.3"/>
		<path class="st0" d="M28.7,65.3H13v1.1h0.6c1.8,0,2.9,0.2,3.4,0.4c0.5,0.3,0.9,0.8,1,1.6c0.2,0.8,0.2,2.5,0.2,5.2v16.6
			c0,2.8-0.1,4.6-0.2,5.4s-0.5,1.3-1.1,1.7c-0.6,0.4-1.6,0.5-3.1,0.5H13v1.1h15.7v-1.1h-1c-1.6,0-2.6-0.2-3.2-0.6s-0.9-1-1-1.8
			c-0.1-0.8-0.2-2.6-0.2-5.2V73.8c0-2.8,0.1-4.6,0.3-5.3c0.2-0.7,0.5-1.3,1.1-1.5c0.5-0.3,1.6-0.4,3.3-0.4h0.7L28.7,65.3"/>
		<path class="st0" d="M67.9,85.8l5.9-14.2l5.9,14.2H67.9 M76.1,65.3h-0.9l-9.7,23.2c-0.7,1.7-1.1,2.6-1.2,2.9
			c-1,2.6-1.9,4.3-2.6,5.1c-0.7,0.8-1.8,1.3-3.3,1.6v1.1h9.9v-1.1c-1.1,0-1.9-0.3-2.6-0.8c-0.7-0.5-1-1.3-1-2.3c0-0.9,0.6-2.9,1.9-6
			l0.9-2.1h12.7l2.6,6.2c0.8,1.8,1.1,2.9,1.1,3.2c0,0.7-0.3,1.2-0.9,1.4s-1.7,0.4-3.3,0.4v1.1h13.1v-1.1c-1.2-0.1-2-0.4-2.6-0.9
			c-0.6-0.4-1-1.1-1.4-1.9l-1.5-3.5L76.1,65.3"/>
		<path class="st0" d="M46.6,65.3H30.4v8.1h1.1c0.4-2.2,0.9-3.8,1.5-4.8c0.7-1.1,1.4-1.7,2.1-1.9s2.2-0.3,4.4-0.3h5v23.9
			c0,2.8-0.1,4.6-0.2,5.4c-0.2,0.8-0.5,1.3-1.1,1.7c-0.6,0.4-1.6,0.6-3,0.6h-1.7v1.1h8.1V65.3"/>
		<path class="st0" d="M46.6,65.3H30.4v8.1h1.1c0.4-2.2,0.9-3.8,1.5-4.8c0.7-1.1,1.4-1.7,2.1-1.9s2.2-0.3,4.4-0.3h5v23.9
			c0,2.8-0.1,4.6-0.2,5.4c-0.2,0.8-0.5,1.3-1.1,1.7c-0.6,0.4-1.6,0.6-3,0.6h-1.7v1.1h8.1V65.3"/>
		<path class="st0" d="M64.5,65.3H48.3v33.9h8.1v-1.1h-1.8c-1.5,0-2.5-0.2-3-0.6c-0.6-0.4-0.9-0.9-1.1-1.7c-0.2-0.8-0.2-2.6-0.2-5.4
			V66.5h5c2.2,0,3.7,0.1,4.4,0.3s1.5,0.8,2.1,1.9c0.7,1.1,1.2,2.6,1.5,4.8h1.1L64.5,65.3"/>
		<rect x="13" y="107.8" class="st0" width="1.2" height="6.1"/>
		<polygon class="st0" points="18.6,107.8 14.7,107.8 14.7,108.8 16.1,108.8 16.1,113.9 17.3,113.9 17.3,108.8 18.6,108.8 		"/>
		<path class="st0" d="M20,111.6l0.6-2.7h0l0.6,2.7H20z M21.4,107.8h-1.5l-1.6,6.1h1.3l0.3-1.3h1.6l0.3,1.3h1.3L21.4,107.8"/>
		<polygon class="st0" points="24.6,107.8 23.4,107.8 23.4,113.9 26.8,113.9 26.8,112.9 24.6,112.9 		"/>
		<rect x="27.4" y="107.8" class="st0" width="1.2" height="6.1"/>
		<path class="st0" d="M30.9,111.6l0.6-2.7h0l0.6,2.7H30.9z M32.2,107.8h-1.5l-1.6,6.1h1.3l0.3-1.3h1.6l0.3,1.3h1.3L32.2,107.8"/>
		<polygon class="st0" points="38.3,107.8 37.2,107.8 37.2,112 37.2,112 35.7,107.8 34.3,107.8 34.3,113.9 35.4,113.9 35.4,109.6 
			35.4,109.6 36.9,113.9 38.3,113.9 		"/>
		<polygon class="st0" points="44.8,107.8 40.9,107.8 40.9,108.8 42.2,108.8 42.2,113.9 43.4,113.9 43.4,108.8 44.8,108.8 		"/>
		<path class="st0" d="M46.5,110.5v-1.8h0.6c0.6,0,0.9,0.3,0.9,0.8c0,0.7-0.3,0.9-0.9,0.9H46.5 M47.5,107.8h-2.3v6.1h1.2v-2.6h0.7
			c0.5,0,0.7,0.3,0.7,0.8l0,1.2c0,0.2,0,0.5,0.2,0.6h1.3v0c-0.2-0.1-0.3-0.4-0.3-1.1c0-1.3-0.1-1.8-1-1.9v0c0.7-0.2,1-0.7,1-1.5
			C49.2,108.3,48.6,107.8,47.5,107.8"/>
		<path class="st0" d="M51.4,111.6l0.6-2.7h0l0.6,2.7H51.4z M52.7,107.8h-1.5l-1.6,6.1h1.3l0.3-1.3h1.6l0.3,1.3h1.3L52.7,107.8"/>
		<path class="st0" d="M56,113v-4.3h0.5c0.9,0,1.1,0.7,1.1,2.1c0,1.6-0.2,2.2-1,2.2H56 M56.8,107.8h-2v6.1h1.9c1.6,0,2.1-1,2.1-3.1
			C58.8,109,58.5,107.8,56.8,107.8"/>
		<polygon class="st0" points="63,107.8 59.6,107.8 59.6,113.9 63.1,113.9 63.1,112.9 60.9,112.9 60.9,111.2 62.9,111.2 62.9,110.2 
			60.9,110.2 60.9,108.8 63,108.8 		"/>
		<path class="st0" d="M67.1,111.6l0.6-2.7h0l0.6,2.7H67.1z M68.5,107.8H67l-1.6,6.1h1.3l0.3-1.3h1.6l0.3,1.3h1.3L68.5,107.8"/>
		<path class="st0" d="M72.5,107.7c-1.6,0-2,1.1-2,3.1c0,2.1,0.3,3.2,1.8,3.2c0.6,0,1-0.2,1.3-0.7h0v0.6h0.9v-3.3h-2v0.9h0.8v0.6
			c0,0.7-0.5,1-0.8,1c-0.7,0-0.8-0.9-0.8-2.4c0-1.5,0.2-2.1,0.8-2.1c0.5,0,0.7,0.6,0.7,1h1.2C74.4,108.4,73.8,107.7,72.5,107.7"/>
		<polygon class="st0" points="78.6,107.8 75.2,107.8 75.2,113.9 78.7,113.9 78.7,112.9 76.5,112.9 76.5,111.2 78.5,111.2 
			78.5,110.2 76.5,110.2 76.5,108.8 78.6,108.8 		"/>
		<polygon class="st0" points="83.4,107.8 82.2,107.8 82.2,112 82.2,112 80.8,107.8 79.3,107.8 79.3,113.9 80.5,113.9 80.5,109.6 
			80.5,109.6 82,113.9 83.4,113.9 		"/>
		<path class="st0" d="M86.2,107.7c-1.8,0-2.1,1.3-2.1,3.2s0.2,3.2,2.1,3.2c1.6,0,1.9-1.1,1.9-2.4h-1.2c0,1.3-0.3,1.5-0.8,1.5
			c-0.5,0-0.8-0.3-0.8-2.2c0-1.7,0.1-2.3,0.8-2.3c0.6,0,0.7,0.4,0.7,1.3H88C88,109,87.9,107.7,86.2,107.7"/>
		<polygon class="st0" points="92.8,107.8 91.5,107.8 90.6,110.2 90.6,110.2 89.8,107.8 88.4,107.8 90,111.5 90,113.9 91.2,113.9 
			91.2,111.5 		"/>
	</g>
	<g>
		<path class="st0" d="M13.2,125.4v-6.4h1.5v6.4H13.2z"/>
		<path class="st0" d="M17.8,121.3v-0.4c0-0.5-0.2-0.8-0.5-0.8c-0.5,0-0.6,0.2-0.6,0.7l0,3.2c0,0.4,0.1,0.6,0.5,0.6
			c0.5,0,0.6-0.5,0.6-0.9v-0.6h1.5v0.8c0,1.1-0.6,1.9-2.2,1.9c-1.4,0-1.9-0.7-1.9-2v-2.6c0-1.4,0.6-2,2-2c1.3,0,2,0.5,2,1.8v0.5
			H17.8z"/>
		<path class="st0" d="M19.7,125.4v-6.4h3.4v1.3h-1.9v1.2h1.9v1.3h-1.9v1.4h2v1.3H19.7z"/>
		<path class="st0" d="M25.5,123.7V123h1.6v0.8H25.5z"/>
		<path class="st0" d="M29.1,125.4l1.2-5h1.3l1.1,5h-1l-0.2-1.3h-1.1l-0.2,1.3H29.1z M30.5,123.4h0.8L31,122c0-0.2-0.1-0.5-0.1-0.7
			c0-0.1,0-0.2,0-0.3h0c0,0.1,0,0.2,0,0.3c0,0.2,0,0.5-0.1,0.7L30.5,123.4z"/>
		<path class="st0" d="M34,125.9c0,0.1,0,0.1,0.1,0.2c0.1,0,0.2,0.1,0.3,0.1c0.4,0,0.4-0.3,0.4-0.6v-0.4l0,0
			c-0.2,0.4-0.4,0.5-0.8,0.5c-0.7,0-0.9-0.7-0.9-1.3v-1.4c0-1,0.3-1.3,0.9-1.3c0.4,0,0.6,0.1,0.8,0.5h0v-0.4h0.9v3.6
			c0,0.8-0.2,1.4-1.4,1.4c-0.6,0-1-0.2-1.1-0.8H34z M34.3,122.3c-0.4,0-0.4,0.4-0.4,0.7v1.2c0,0.4,0.1,0.6,0.4,0.6
			c0.3,0,0.4-0.2,0.4-0.7v-1.1C34.8,122.8,34.8,122.3,34.3,122.3z"/>
		<path class="st0" d="M36.4,123c0-0.9,0.4-1.4,1.3-1.4c1.2,0,1.3,0.6,1.3,1.6v0.5h-1.7v0.5c0,0.5,0.2,0.6,0.5,0.6
			c0.3,0,0.4-0.2,0.4-0.7H39c0,0.8-0.3,1.4-1.2,1.4c-1,0-1.4-0.5-1.4-1.6V123z M38.1,123.1v-0.3c0-0.4-0.1-0.5-0.5-0.5
			c-0.4,0-0.4,0.3-0.4,0.7v0.2H38.1z"/>
		<path class="st0" d="M40.7,122.1L40.7,122.1c0.2-0.4,0.6-0.5,0.8-0.5c0.5,0,0.9,0.3,0.9,1v2.9h-0.9v-2.5c0-0.4,0-0.6-0.4-0.6
			c-0.3,0-0.4,0.3-0.4,0.7v2.4h-0.9v-3.7h0.9V122.1z"/>
		<path class="st0" d="M44.5,123v-0.4c0-0.2-0.1-0.3-0.3-0.3c-0.3,0-0.3,0.4-0.3,0.8v0.9c0,0.7,0.1,0.9,0.3,0.9
			c0.3,0,0.3-0.3,0.3-0.6V124h0.9v0.3c0,0.8-0.3,1.2-1.2,1.2c-0.8,0-1.2-0.4-1.2-1.4v-1.2c0-1,0.5-1.3,1.2-1.3
			c0.9,0,1.2,0.5,1.2,1.1v0.3H44.5z"/>
		<path class="st0" d="M46,123c0-0.9,0.4-1.4,1.3-1.4c1.2,0,1.3,0.6,1.3,1.6v0.5h-1.7v0.5c0,0.5,0.2,0.6,0.5,0.6
			c0.3,0,0.4-0.2,0.4-0.7h0.9c0,0.8-0.3,1.4-1.2,1.4c-1,0-1.4-0.5-1.4-1.6V123z M47.7,123.1v-0.3c0-0.4-0.1-0.5-0.5-0.5
			c-0.4,0-0.4,0.3-0.4,0.7v0.2H47.7z"/>
		<path class="st0" d="M51.1,125.4v-5H52v5H51.1z"/>
		<path class="st0" d="M54.2,125.4c-0.5,0.1-1.2,0.1-1.2-0.6v-2.5h-0.4v-0.6h0.3v-1h0.9v1h0.4v0.6h-0.4v2.3c0,0.2,0.3,0.1,0.4,0.1
			V125.4z"/>
		<path class="st0" d="M56.4,125.4c-0.1-0.1-0.1-0.3-0.1-0.4h0c-0.1,0.2-0.2,0.3-0.3,0.4c-0.1,0.1-0.3,0.1-0.4,0.1
			c-0.7,0-1-0.4-1-1.1c0-0.9,0.6-1.1,1.3-1.3c0.4-0.2,0.5-0.3,0.4-0.6c0-0.2-0.2-0.2-0.4-0.2c-0.4,0-0.5,0.2-0.5,0.5h-0.8
			c0-0.7,0.2-1.2,1.3-1.2c1.2,0,1.2,0.6,1.2,1.1v2.2c0,0.2,0,0.4,0.1,0.5H56.4z M56.3,123.5c-0.2,0.1-0.5,0.3-0.7,0.5
			c-0.1,0.1-0.1,0.3-0.1,0.5c0,0.3,0.1,0.5,0.4,0.5c0.5,0,0.4-0.6,0.4-1V123.5z"/>
		<path class="st0" d="M58.2,125.4v-5H59v5H58.2z"/>
		<path class="st0" d="M60,121.2v-0.8h0.9v0.8H60z M60,125.4v-3.7h0.9v3.7H60z"/>
		<path class="st0" d="M61.7,123c0-0.9,0.4-1.4,1.3-1.4c1.2,0,1.3,0.6,1.3,1.6v0.5h-1.7v0.5c0,0.5,0.2,0.6,0.5,0.6
			c0.3,0,0.4-0.2,0.4-0.7h0.9c0,0.8-0.3,1.4-1.2,1.4c-1,0-1.4-0.5-1.4-1.6V123z M63.4,123.1v-0.3c0-0.4-0.1-0.5-0.5-0.5
			c-0.4,0-0.4,0.3-0.4,0.7v0.2H63.4z"/>
		<path class="st0" d="M65.9,122.1L65.9,122.1c0.2-0.4,0.6-0.5,0.8-0.5c0.5,0,0.9,0.3,0.9,1v2.9h-0.9v-2.5c0-0.4,0-0.6-0.4-0.6
			c-0.3,0-0.4,0.3-0.4,0.7v2.4h-0.9v-3.7h0.9V122.1z"/>
		<path class="st0" d="M69.3,122.1L69.3,122.1c0.2-0.4,0.6-0.5,0.8-0.5c0.5,0,0.9,0.3,0.9,1v2.9h-0.9v-2.5c0-0.4,0-0.6-0.4-0.6
			c-0.3,0-0.4,0.3-0.4,0.7v2.4h-0.9v-3.7h0.9V122.1z"/>
		<path class="st0" d="M71.7,123c0-0.9,0.4-1.4,1.3-1.4c1.2,0,1.3,0.6,1.3,1.6v0.5h-1.7v0.5c0,0.5,0.2,0.6,0.5,0.6
			c0.3,0,0.4-0.2,0.4-0.7h0.9c0,0.8-0.3,1.4-1.2,1.4c-1,0-1.4-0.5-1.4-1.6V123z M73.4,123.1v-0.3c0-0.4-0.1-0.5-0.5-0.5
			c-0.4,0-0.4,0.3-0.4,0.7v0.2H73.4z"/>
		<path class="st0" d="M77.6,122.1L77.6,122.1c0.2-0.4,0.4-0.5,0.8-0.5c0.6,0,0.9,0.3,0.9,1.3v1.4c0,0.6-0.2,1.2-0.9,1.2
			c-0.3,0-0.6-0.1-0.8-0.5h0v1.6h-0.8v-5h0.9V122.1z M77.6,124.2c0,0.4,0.1,0.7,0.4,0.7c0.3,0,0.4-0.3,0.4-0.6V123
			c0-0.4,0-0.7-0.4-0.7c-0.4,0-0.4,0.5-0.4,0.8V124.2z"/>
		<path class="st0" d="M80,123.7c0-1.3,0-2.1,1.3-2.1c1.3,0,1.3,0.8,1.3,2.1c0,1.3-0.2,1.9-1.3,1.8C80.2,125.6,80,125,80,123.7z
			 M80.8,124.2c0,0.5,0,0.7,0.5,0.7c0.4,0,0.4-0.2,0.4-0.7V123c0-0.4,0-0.7-0.4-0.7c-0.5,0-0.5,0.4-0.5,0.7V124.2z"/>
		<path class="st0" d="M85,124.9L85,124.9c-0.1,0.4-0.4,0.7-0.8,0.7c-0.7,0-0.8-0.4-0.8-1v-2.9h0.9v2.6c0,0.2,0,0.4,0.1,0.5
			c0.1,0.1,0.2,0.1,0.3,0.1c0.4,0,0.4-0.5,0.4-0.8v-2.4h0.9v3.7H85V124.9z"/>
		<path class="st0" d="M87.5,122.4L87.5,122.4c0.1-0.3,0.2-0.4,0.4-0.5c0.2-0.2,0.4-0.2,0.5-0.2v1c-0.5,0-0.8,0.1-0.9,0.6v2.2h-0.9
			v-3.7h0.8V122.4z"/>
		<path class="st0" d="M90.6,125.4v-5h0.9v5H90.6z"/>
		<path class="st0" d="M92.4,123c0-0.9,0.4-1.4,1.3-1.4c1.2,0,1.3,0.6,1.3,1.6v0.5h-1.7v0.5c0,0.5,0.2,0.6,0.5,0.6
			c0.3,0,0.4-0.2,0.4-0.7h0.9c0,0.8-0.3,1.4-1.2,1.4c-1,0-1.4-0.5-1.4-1.6V123z M94.1,123.1v-0.3c0-0.4-0.1-0.5-0.5-0.5
			c-0.4,0-0.4,0.3-0.4,0.7v0.2H94.1z"/>
		<path class="st0" d="M98.8,123v-0.4c0-0.2-0.1-0.3-0.3-0.3c-0.3,0-0.3,0.4-0.3,0.8v0.9c0,0.7,0.1,0.9,0.3,0.9
			c0.3,0,0.3-0.3,0.3-0.6V124h0.9v0.3c0,0.8-0.3,1.2-1.2,1.2c-0.8,0-1.2-0.4-1.2-1.4v-1.2c0-1,0.5-1.3,1.2-1.3
			c0.9,0,1.2,0.5,1.2,1.1v0.3H98.8z"/>
		<path class="st0" d="M100.3,123.7c0-1.3,0-2.1,1.3-2.1c1.3,0,1.3,0.8,1.3,2.1c0,1.3-0.2,1.9-1.3,1.8
			C100.5,125.6,100.3,125,100.3,123.7z M101.2,124.2c0,0.5,0,0.7,0.5,0.7c0.4,0,0.4-0.2,0.4-0.7V123c0-0.4,0-0.7-0.4-0.7
			c-0.5,0-0.5,0.4-0.5,0.7V124.2z"/>
		<path class="st0" d="M104.6,122.1L104.6,122.1c0.2-0.4,0.6-0.5,0.8-0.5c0.3,0,0.7,0.1,0.8,0.5h0c0.2-0.3,0.4-0.5,0.9-0.5
			c0.6,0,0.9,0.4,0.9,0.8v3.1h-0.9v-2.5c0-0.3,0-0.7-0.4-0.7c-0.4,0-0.4,0.3-0.4,0.7v2.5h-0.9v-2.6c0-0.3,0-0.6-0.4-0.6
			c-0.4,0-0.4,0.3-0.4,0.7v2.5h-0.9v-3.7h0.9V122.1z"/>
		<path class="st0" d="M109.7,122.1L109.7,122.1c0.2-0.4,0.6-0.5,0.8-0.5c0.3,0,0.7,0.1,0.8,0.5h0c0.2-0.3,0.4-0.5,0.9-0.5
			c0.6,0,0.9,0.4,0.9,0.8v3.1h-0.9v-2.5c0-0.3,0-0.7-0.4-0.7c-0.4,0-0.4,0.3-0.4,0.7v2.5h-0.9v-2.6c0-0.3,0-0.6-0.4-0.6
			c-0.4,0-0.4,0.3-0.4,0.7v2.5h-0.9v-3.7h0.9V122.1z"/>
		<path class="st0" d="M114,123c0-0.9,0.4-1.4,1.3-1.4c1.2,0,1.3,0.6,1.3,1.6v0.5h-1.7v0.5c0,0.5,0.2,0.6,0.5,0.6
			c0.3,0,0.4-0.2,0.4-0.7h0.9c0,0.8-0.3,1.4-1.2,1.4c-1,0-1.4-0.5-1.4-1.6V123z M115.7,123.1v-0.3c0-0.4-0.1-0.5-0.5-0.5
			c-0.4,0-0.4,0.3-0.4,0.7v0.2H115.7z"/>
		<path class="st0" d="M118.2,122.4L118.2,122.4c0.1-0.3,0.2-0.4,0.4-0.5c0.2-0.2,0.4-0.2,0.5-0.2v1c-0.5,0-0.8,0.1-0.9,0.6v2.2
			h-0.9v-3.7h0.8V122.4z"/>
		<path class="st0" d="M120.9,123v-0.4c0-0.2-0.1-0.3-0.3-0.3c-0.3,0-0.3,0.4-0.3,0.8v0.9c0,0.7,0.1,0.9,0.3,0.9
			c0.3,0,0.3-0.3,0.3-0.6V124h0.9v0.3c0,0.8-0.3,1.2-1.2,1.2c-0.8,0-1.2-0.4-1.2-1.4v-1.2c0-1,0.5-1.3,1.2-1.3
			c0.9,0,1.2,0.5,1.2,1.1v0.3H120.9z"/>
		<path class="st0" d="M122.4,123c0-0.9,0.4-1.4,1.3-1.4c1.2,0,1.3,0.6,1.3,1.6v0.5h-1.7v0.5c0,0.5,0.2,0.6,0.5,0.6
			c0.3,0,0.4-0.2,0.4-0.7h0.9c0,0.8-0.3,1.4-1.2,1.4c-1,0-1.4-0.5-1.4-1.6V123z M124.2,123.1v-0.3c0-0.4-0.1-0.5-0.5-0.5
			c-0.4,0-0.4,0.3-0.4,0.7v0.2H124.2z"/>
		<path class="st0" d="M127.4,123c0-0.9,0.4-1.4,1.3-1.4c1.2,0,1.3,0.6,1.3,1.6v0.5h-1.7v0.5c0,0.5,0.2,0.6,0.5,0.6
			c0.3,0,0.4-0.2,0.4-0.7h0.9c0,0.8-0.3,1.4-1.2,1.4c-1,0-1.4-0.5-1.4-1.6V123z M129.1,123.1v-0.3c0-0.4-0.1-0.5-0.5-0.5
			c-0.4,0-0.4,0.3-0.4,0.7v0.2H129.1z"/>
		<path class="st0" d="M130.5,121.7h1l0.3,0.7c0,0.1,0.1,0.2,0.1,0.3h0c0-0.1,0.1-0.2,0.1-0.4l0.3-0.7h1l-0.9,1.8l1,1.9h-1l-0.3-0.6
			c-0.1-0.2-0.1-0.4-0.2-0.6h0c0,0.2-0.1,0.4-0.2,0.6l-0.2,0.6h-1l1-1.9L130.5,121.7z"/>
		<path class="st0" d="M135,125.4c-0.5,0.1-1.2,0.1-1.2-0.6v-2.5h-0.4v-0.6h0.3v-1h0.9v1h0.4v0.6h-0.4v2.3c0,0.2,0.3,0.1,0.4,0.1
			V125.4z"/>
		<path class="st0" d="M135.5,122.9c0-0.8,0.4-1.3,1.3-1.3c1.2,0,1.3,0.6,1.3,1.6v0.5h-1.7v0.5c0,0.5,0.2,0.6,0.5,0.6
			c0.3,0,0.4-0.2,0.4-0.6v-0.1h0.9v0.1c0,0.8-0.4,1.3-1.2,1.3c-1,0-1.4-0.5-1.4-1.5V124V122.9z M136.9,120.3h1l-1,1h-0.7
			L136.9,120.3z M137.3,123.1v-0.3c0-0.4-0.1-0.5-0.5-0.5c-0.4,0-0.4,0.3-0.4,0.6v0.2H137.3z"/>
		<path class="st0" d="M139.7,122.4L139.7,122.4c0.1-0.3,0.2-0.4,0.4-0.5c0.2-0.2,0.4-0.2,0.5-0.2v1c-0.5,0-0.8,0.1-0.9,0.6v2.2
			h-0.9v-3.7h0.8V122.4z"/>
		<path class="st0" d="M141.2,121.2v-0.8h0.9v0.8H141.2z M141.2,125.4v-3.7h0.9v3.7H141.2z"/>
		<path class="st0" d="M142.9,123c0-0.9,0.4-1.4,1.3-1.4c1.2,0,1.3,0.6,1.3,1.6v0.5h-1.7v0.5c0,0.5,0.2,0.6,0.5,0.6
			c0.3,0,0.4-0.2,0.4-0.7h0.9c0,0.8-0.3,1.4-1.2,1.4c-1,0-1.4-0.5-1.4-1.6V123z M144.7,123.1v-0.3c0-0.4-0.1-0.5-0.5-0.5
			c-0.4,0-0.4,0.3-0.4,0.7v0.2H144.7z"/>
		<path class="st0" d="M147.9,124.9L147.9,124.9c-0.1,0.4-0.4,0.7-0.8,0.7c-0.7,0-0.8-0.4-0.8-1v-2.9h0.9v2.6c0,0.2,0,0.4,0.1,0.5
			c0.1,0.1,0.2,0.1,0.3,0.1c0.4,0,0.4-0.5,0.4-0.8v-2.4h0.9v3.7h-0.8V124.9z"/>
		<path class="st0" d="M150.4,122.4L150.4,122.4c0.1-0.3,0.2-0.4,0.4-0.5c0.2-0.2,0.4-0.2,0.5-0.2v1c-0.5,0-0.8,0.1-0.9,0.6v2.2
			h-0.9v-3.7h0.8V122.4z"/>
		<path class="st0" d="M15.1,129.9c0-0.4,0-0.9-0.5-0.9c-0.3,0-0.5,0.1-0.5,0.5c0,0.4,0.2,0.5,0.5,0.7c0.3,0.2,0.9,0.6,1.1,0.8
			c0.3,0.3,0.4,0.6,0.4,1c0,0.9-0.6,1.4-1.5,1.4c-1.1,0-1.5-0.6-1.5-1.5v-0.4H14v0.3c0,0.5,0.1,0.8,0.6,0.8c0.4,0,0.6-0.2,0.6-0.6
			c0-0.3-0.1-0.5-0.4-0.7c-0.5-0.4-1.1-0.7-1.5-1.2c-0.2-0.2-0.2-0.5-0.2-0.8c0-0.9,0.5-1.3,1.5-1.3c1.5,0,1.4,1.1,1.4,1.6H15.1z"/>
		<path class="st0" d="M16.8,131c0-0.9,0.4-1.4,1.3-1.4c1.2,0,1.3,0.6,1.3,1.6v0.5h-1.7v0.5c0,0.5,0.2,0.6,0.5,0.6
			c0.3,0,0.4-0.2,0.4-0.7h0.9c0,0.8-0.3,1.4-1.2,1.4c-1,0-1.4-0.5-1.4-1.6V131z M18.6,131.1v-0.3c0-0.4-0.1-0.5-0.5-0.5
			c-0.4,0-0.4,0.3-0.4,0.7v0.2H18.6z"/>
		<path class="st0" d="M21.6,131v-0.4c0-0.2-0.1-0.3-0.3-0.3c-0.3,0-0.3,0.4-0.3,0.8v0.9c0,0.7,0.1,0.9,0.3,0.9
			c0.3,0,0.3-0.3,0.3-0.6v-0.3h0.9v0.3c0,0.8-0.3,1.2-1.2,1.2c-0.8,0-1.2-0.4-1.2-1.4v-1.2c0-1,0.5-1.3,1.2-1.3
			c0.9,0,1.2,0.5,1.2,1.1v0.3H21.6z"/>
		<path class="st0" d="M24.4,133.4c-0.5,0.1-1.2,0.1-1.2-0.6v-2.5h-0.4v-0.6h0.3v-1h0.9v1h0.4v0.6h-0.4v2.3c0,0.2,0.3,0.1,0.4,0.1
			V133.4z"/>
		<path class="st0" d="M25.1,129.2v-0.8h0.9v0.8H25.1z M25.1,133.4v-3.7h0.9v3.7H25.1z"/>
		<path class="st0" d="M26.8,131.7c0-1.3,0-2.1,1.3-2.1c1.3,0,1.3,0.8,1.3,2.1c0,1.3-0.2,1.9-1.3,1.8C27,133.5,26.8,133,26.8,131.7z
			 M27.7,132.2c0,0.5,0,0.7,0.5,0.7c0.4,0,0.4-0.2,0.4-0.7v-1.2c0-0.4,0-0.7-0.4-0.7c-0.5,0-0.5,0.4-0.5,0.7V132.2z"/>
		<path class="st0" d="M31,130L31,130c0.2-0.4,0.6-0.5,0.8-0.5c0.5,0,0.9,0.3,0.9,1v2.9h-0.9v-2.5c0-0.4,0-0.6-0.4-0.6
			c-0.3,0-0.4,0.3-0.4,0.7v2.4h-0.9v-3.7H31V130z"/>
		<path class="st0" d="M36,130.1L36,130.1c0.2-0.4,0.4-0.5,0.8-0.5c0.6,0,0.9,0.3,0.9,1.3v1.4c0,0.6-0.2,1.2-0.9,1.2
			c-0.3,0-0.6-0.1-0.8-0.5h0v1.6h-0.8v-5H36V130.1z M36,132.2c0,0.4,0.1,0.7,0.4,0.7c0.3,0,0.4-0.3,0.4-0.6V131c0-0.4,0-0.7-0.4-0.7
			c-0.4,0-0.4,0.5-0.4,0.8V132.2z"/>
		<path class="st0" d="M38.4,131.7c0-1.3,0-2.1,1.3-2.1c1.3,0,1.3,0.8,1.3,2.1c0,1.3-0.2,1.9-1.3,1.8
			C38.6,133.5,38.4,133,38.4,131.7z M39.3,132.2c0,0.5,0,0.7,0.5,0.7c0.4,0,0.4-0.2,0.4-0.7v-1.2c0-0.4,0-0.7-0.4-0.7
			c-0.5,0-0.5,0.4-0.5,0.7V132.2z"/>
		<path class="st0" d="M43.4,132.9L43.4,132.9c-0.1,0.4-0.4,0.7-0.8,0.7c-0.7,0-0.8-0.4-0.8-1v-2.9h0.9v2.6c0,0.2,0,0.4,0.1,0.5
			c0.1,0.1,0.2,0.1,0.3,0.1c0.4,0,0.4-0.5,0.4-0.8v-2.4h0.9v3.7h-0.8V132.9z"/>
		<path class="st0" d="M45.9,130.3L45.9,130.3c0.1-0.3,0.2-0.4,0.4-0.5c0.2-0.2,0.4-0.2,0.5-0.2v1c-0.5,0-0.8,0.1-0.9,0.6v2.2h-0.9
			v-3.7h0.8V130.3z"/>
		<path class="st0" d="M49.1,133.4v-5h0.9v5H49.1z"/>
		<path class="st0" d="M52.5,133.4c-0.1-0.1-0.1-0.3-0.1-0.4h0c-0.1,0.2-0.2,0.3-0.3,0.4c-0.1,0.1-0.3,0.1-0.4,0.1
			c-0.7,0-1-0.4-1-1.1c0-0.9,0.6-1.1,1.3-1.3c0.4-0.2,0.5-0.3,0.4-0.6c0-0.2-0.2-0.2-0.4-0.2c-0.4,0-0.5,0.2-0.5,0.5h-0.8
			c0-0.7,0.2-1.2,1.3-1.2c1.2,0,1.2,0.6,1.2,1.1v2.2c0,0.2,0,0.4,0.1,0.5H52.5z M52.4,131.4c-0.2,0.1-0.5,0.3-0.7,0.5
			c-0.1,0.1-0.1,0.3-0.1,0.5c0,0.3,0.1,0.5,0.4,0.5c0.5,0,0.4-0.6,0.4-1V131.4z"/>
		<path class="st0" d="M56.7,130.1L56.7,130.1c0.2-0.4,0.4-0.5,0.8-0.5c0.6,0,0.9,0.3,0.9,1.3v1.4c0,0.6-0.2,1.2-0.9,1.2
			c-0.3,0-0.6-0.1-0.8-0.5h0v1.6h-0.8v-5h0.9V130.1z M56.7,132.2c0,0.4,0.1,0.7,0.4,0.7c0.3,0,0.4-0.3,0.4-0.6V131
			c0-0.4,0-0.7-0.4-0.7c-0.4,0-0.4,0.5-0.4,0.8V132.2z"/>
		<path class="st0" d="M60,130.3L60,130.3c0.1-0.3,0.2-0.4,0.4-0.5c0.2-0.2,0.4-0.2,0.5-0.2v1c-0.5,0-0.8,0.1-0.9,0.6v2.2h-0.9v-3.7
			H60V130.3z"/>
		<path class="st0" d="M61.3,131.7c0-1.3,0-2.1,1.3-2.1c1.3,0,1.3,0.8,1.3,2.1c0,1.3-0.2,1.9-1.3,1.8
			C61.5,133.5,61.3,133,61.3,131.7z M62.2,132.2c0,0.5,0,0.7,0.5,0.7c0.4,0,0.4-0.2,0.4-0.7v-1.2c0-0.4,0-0.7-0.4-0.7
			c-0.5,0-0.5,0.4-0.5,0.7V132.2z"/>
		<path class="st0" d="M65.6,130L65.6,130c0.2-0.4,0.6-0.5,0.8-0.5c0.3,0,0.7,0.1,0.8,0.5h0c0.2-0.3,0.4-0.5,0.9-0.5
			c0.6,0,0.9,0.4,0.9,0.8v3.1h-0.9v-2.5c0-0.3,0-0.7-0.4-0.7c-0.4,0-0.4,0.3-0.4,0.7v2.5h-0.9v-2.6c0-0.3,0-0.6-0.4-0.6
			c-0.4,0-0.4,0.3-0.4,0.7v2.5h-0.9v-3.7h0.9V130z"/>
		<path class="st0" d="M69.8,131.7c0-1.3,0-2.1,1.3-2.1c1.3,0,1.3,0.8,1.3,2.1c0,1.3-0.2,1.9-1.3,1.8C70,133.5,69.8,133,69.8,131.7z
			 M70.7,132.2c0,0.5,0,0.7,0.5,0.7c0.4,0,0.4-0.2,0.4-0.7v-1.2c0-0.4,0-0.7-0.4-0.7c-0.5,0-0.5,0.4-0.5,0.7V132.2z"/>
		<path class="st0" d="M74.5,133.4c-0.5,0.1-1.2,0.1-1.2-0.6v-2.5h-0.4v-0.6h0.3v-1h0.9v1h0.4v0.6h-0.4v2.3c0,0.2,0.3,0.1,0.4,0.1
			V133.4z"/>
		<path class="st0" d="M75.1,129.2v-0.8H76v0.8H75.1z M75.1,133.4v-3.7H76v3.7H75.1z"/>
		<path class="st0" d="M76.8,131.7c0-1.3,0-2.1,1.3-2.1c1.3,0,1.3,0.8,1.3,2.1c0,1.3-0.2,1.9-1.3,1.8C77,133.5,76.8,133,76.8,131.7z
			 M77.7,132.2c0,0.5,0,0.7,0.5,0.7c0.4,0,0.4-0.2,0.4-0.7v-1.2c0-0.4,0-0.7-0.4-0.7c-0.5,0-0.5,0.4-0.5,0.7V132.2z"/>
		<path class="st0" d="M81.1,130L81.1,130c0.2-0.4,0.6-0.5,0.8-0.5c0.5,0,0.9,0.3,0.9,1v2.9h-0.9v-2.5c0-0.4,0-0.6-0.4-0.6
			c-0.3,0-0.4,0.3-0.4,0.7v2.4h-0.9v-3.7h0.9V130z"/>
		<path class="st0" d="M86.8,133L86.8,133c-0.2,0.4-0.4,0.5-0.8,0.5c-0.7,0-0.9-0.7-0.9-1.3v-1.4c0-1,0.3-1.3,0.9-1.3
			c0.4,0,0.6,0.1,0.8,0.5h0c0-0.1,0-0.2,0-0.3v-1.3h0.9v5h-0.9V133z M86.8,131.1c0-0.3,0-0.8-0.4-0.8c-0.4,0-0.4,0.4-0.4,0.7v1.2
			c0,0.4,0.1,0.6,0.4,0.6c0.3,0,0.4-0.2,0.4-0.7V131.1z"/>
		<path class="st0" d="M88.5,131c0-0.9,0.4-1.4,1.3-1.4c1.2,0,1.3,0.6,1.3,1.6v0.5h-1.7v0.5c0,0.5,0.2,0.6,0.5,0.6
			c0.3,0,0.4-0.2,0.4-0.7H91c0,0.8-0.3,1.4-1.2,1.4c-1,0-1.4-0.5-1.4-1.6V131z M90.2,131.1v-0.3c0-0.4-0.1-0.5-0.5-0.5
			c-0.4,0-0.4,0.3-0.4,0.7v0.2H90.2z"/>
		<path class="st0" d="M92.5,132.2c-0.1,0.7,0.2,0.7,0.4,0.7c0.2,0,0.4-0.2,0.4-0.4c0-0.2-0.3-0.3-0.4-0.4l-0.5-0.3
			c-0.4-0.3-0.7-0.6-0.7-1.2c0-0.6,0.5-0.9,1.3-0.9c0.8,0,1.2,0.4,1.2,1.2h-0.9c0-0.4-0.1-0.6-0.4-0.6c-0.2,0-0.4,0.1-0.4,0.3
			c0,0.2,0.2,0.3,0.3,0.4l0.7,0.5c0.2,0.1,0.6,0.5,0.6,0.7c0.1,0.7-0.1,1.3-1.3,1.3c-0.5,0-1.3-0.2-1.2-1.3H92.5z"/>
		<path class="st0" d="M96.4,130.8c0-0.8,0.4-1.3,1.3-1.3c1.2,0,1.3,0.6,1.3,1.6v0.5h-1.7v0.5c0,0.5,0.2,0.6,0.5,0.6
			c0.3,0,0.4-0.2,0.4-0.6v-0.1H99v0.1c0,0.8-0.4,1.3-1.2,1.3c-1,0-1.4-0.5-1.4-1.5v-0.1V130.8z M97.8,128.3h1l-1,1h-0.7L97.8,128.3z
			 M98.1,131.1v-0.3c0-0.4-0.1-0.5-0.5-0.5c-0.4,0-0.4,0.3-0.4,0.6v0.2H98.1z"/>
		<path class="st0" d="M101.2,131v-0.4c0-0.2-0.1-0.3-0.3-0.3c-0.3,0-0.3,0.4-0.3,0.8v0.9c0,0.7,0.1,0.9,0.3,0.9
			c0.3,0,0.3-0.3,0.3-0.6v-0.3h0.9v0.3c0,0.8-0.3,1.2-1.2,1.2c-0.8,0-1.2-0.4-1.2-1.4v-1.2c0-1,0.5-1.3,1.2-1.3
			c0.9,0,1.2,0.5,1.2,1.1v0.3H101.2z"/>
		<path class="st0" d="M102.7,133.4v-5h0.9v1.6h0c0.2-0.4,0.6-0.5,0.8-0.5c0.5,0,0.9,0.3,0.9,1v2.9h-0.9v-2.6c0-0.4,0-0.6-0.4-0.6
			c-0.3,0-0.4,0.3-0.4,0.7v2.5H102.7z"/>
		<path class="st0" d="M107.7,133.4c-0.1-0.1-0.1-0.3-0.1-0.4h0c-0.1,0.2-0.2,0.3-0.3,0.4c-0.1,0.1-0.3,0.1-0.4,0.1
			c-0.7,0-1-0.4-1-1.1c0-0.9,0.6-1.1,1.3-1.3c0.4-0.2,0.5-0.3,0.4-0.6c0-0.2-0.2-0.2-0.4-0.2c-0.4,0-0.5,0.2-0.5,0.5h-0.8
			c0-0.7,0.2-1.2,1.3-1.2c1.2,0,1.2,0.6,1.2,1.1v2.2c0,0.2,0,0.4,0.1,0.5H107.7z M107.6,131.4c-0.2,0.1-0.5,0.3-0.7,0.5
			c-0.1,0.1-0.1,0.3-0.1,0.5c0,0.3,0.1,0.5,0.4,0.5c0.5,0,0.4-0.6,0.4-1V131.4z"/>
		<path class="st0" d="M110.2,130L110.2,130c0.2-0.4,0.6-0.5,0.8-0.5c0.5,0,0.9,0.3,0.9,1v2.9H111v-2.5c0-0.4,0-0.6-0.4-0.6
			c-0.3,0-0.4,0.3-0.4,0.7v2.4h-0.9v-3.7h0.9V130z"/>
		<path class="st0" d="M113.5,133.8c0,0.1,0,0.1,0.1,0.2c0.1,0,0.2,0.1,0.3,0.1c0.4,0,0.4-0.3,0.4-0.6V133l0,0
			c-0.2,0.4-0.4,0.5-0.8,0.5c-0.7,0-0.9-0.7-0.9-1.3v-1.4c0-1,0.3-1.3,0.9-1.3c0.4,0,0.6,0.1,0.8,0.5h0v-0.4h0.9v3.6
			c0,0.8-0.2,1.4-1.4,1.4c-0.6,0-1-0.2-1.1-0.8H113.5z M113.9,130.2c-0.4,0-0.4,0.4-0.4,0.7v1.2c0,0.4,0.1,0.6,0.4,0.6
			c0.3,0,0.4-0.2,0.4-0.7v-1.1C114.3,130.8,114.3,130.2,113.9,130.2z"/>
		<path class="st0" d="M116,131c0-0.9,0.4-1.4,1.3-1.4c1.2,0,1.3,0.6,1.3,1.6v0.5h-1.7v0.5c0,0.5,0.2,0.6,0.5,0.6
			c0.3,0,0.4-0.2,0.4-0.7h0.9c0,0.8-0.3,1.4-1.2,1.4c-1,0-1.4-0.5-1.4-1.6V131z M117.7,131.1v-0.3c0-0.4-0.1-0.5-0.5-0.5
			c-0.4,0-0.4,0.3-0.4,0.7v0.2H117.7z"/>
		<path class="st0" d="M120,132.2c-0.1,0.7,0.2,0.7,0.4,0.7c0.2,0,0.4-0.2,0.4-0.4c0-0.2-0.3-0.3-0.4-0.4l-0.5-0.3
			c-0.4-0.3-0.7-0.6-0.7-1.2c0-0.6,0.5-0.9,1.3-0.9c0.8,0,1.2,0.4,1.2,1.2h-0.9c0-0.4-0.1-0.6-0.4-0.6c-0.2,0-0.4,0.1-0.4,0.3
			c0,0.2,0.2,0.3,0.3,0.4l0.7,0.5c0.2,0.1,0.6,0.5,0.6,0.7c0.1,0.7-0.1,1.3-1.3,1.3c-0.5,0-1.3-0.2-1.2-1.3H120z"/>
		<path class="st0" d="M125.6,133L125.6,133c-0.2,0.4-0.4,0.5-0.8,0.5c-0.7,0-0.9-0.7-0.9-1.3v-1.4c0-1,0.3-1.3,0.9-1.3
			c0.4,0,0.6,0.1,0.8,0.5h0c0-0.1,0-0.2,0-0.3v-1.3h0.9v5h-0.9V133z M125.6,131.1c0-0.3,0-0.8-0.4-0.8c-0.4,0-0.4,0.4-0.4,0.7v1.2
			c0,0.4,0.1,0.6,0.4,0.6c0.3,0,0.4-0.2,0.4-0.7V131.1z"/>
		<path class="st0" d="M127.2,131c0-0.9,0.4-1.4,1.3-1.4c1.2,0,1.3,0.6,1.3,1.6v0.5h-1.7v0.5c0,0.5,0.2,0.6,0.5,0.6
			c0.3,0,0.4-0.2,0.4-0.7h0.9c0,0.8-0.3,1.4-1.2,1.4c-1,0-1.4-0.5-1.4-1.6V131z M128.9,131.1v-0.3c0-0.4-0.1-0.5-0.5-0.5
			c-0.4,0-0.4,0.3-0.4,0.7v0.2H128.9z"/>
		<path class="st0" d="M132.3,133.4v-5h0.9v5H132.3z"/>
		<path class="st0" d="M134.1,130.3v-1.8h0.8v1.8H134.1z"/>
		<path class="st0" d="M135.4,133.4l1.2-5h1.3l1.1,5h-1l-0.2-1.3h-1.1l-0.2,1.3H135.4z M136.8,131.4h0.8l-0.3-1.4
			c0-0.2-0.1-0.5-0.1-0.7c0-0.1,0-0.2,0-0.3h0c0,0.1,0,0.2,0,0.3c0,0.2,0,0.5-0.1,0.7L136.8,131.4z"/>
		<path class="st0" d="M140.4,130L140.4,130c0.2-0.4,0.6-0.5,0.8-0.5c0.3,0,0.7,0.1,0.8,0.5h0c0.2-0.3,0.4-0.5,0.9-0.5
			c0.6,0,0.9,0.4,0.9,0.8v3.1h-0.9v-2.5c0-0.3,0-0.7-0.4-0.7c-0.4,0-0.4,0.3-0.4,0.7v2.5h-0.9v-2.6c0-0.3,0-0.6-0.4-0.6
			c-0.4,0-0.4,0.3-0.4,0.7v2.5h-0.9v-3.7h0.9V130z"/>
		<path class="st0" d="M144.6,128.4h0.9v1.2c0,0.1,0,0.2,0,0.4h0c0.2-0.4,0.4-0.5,0.8-0.5c0.6,0,0.9,0.3,0.9,1.3v1.4
			c0,0.6-0.2,1.3-0.9,1.3c-0.4,0-0.6-0.1-0.8-0.5h0v0.4h-0.8V128.4z M145.5,132.2c0,0.4,0.1,0.7,0.4,0.7c0.3,0,0.4-0.3,0.4-0.6V131
			c0-0.4,0-0.7-0.4-0.7c-0.4,0-0.4,0.5-0.4,0.8V132.2z"/>
		<path class="st0" d="M149.6,133.4c-0.1-0.1-0.1-0.3-0.1-0.4h0c-0.1,0.2-0.2,0.3-0.3,0.4c-0.1,0.1-0.3,0.1-0.4,0.1
			c-0.7,0-1-0.4-1-1.1c0-0.9,0.6-1.1,1.3-1.3c0.4-0.2,0.5-0.3,0.4-0.6c0-0.2-0.2-0.2-0.4-0.2c-0.4,0-0.5,0.2-0.5,0.5h-0.8
			c0-0.7,0.2-1.2,1.3-1.2c1.2,0,1.2,0.6,1.2,1.1v2.2c0,0.2,0,0.4,0.1,0.5H149.6z M149.5,131.4c-0.2,0.1-0.5,0.3-0.7,0.5
			c-0.1,0.1-0.1,0.3-0.1,0.5c0,0.3,0.1,0.5,0.4,0.5c0.5,0,0.4-0.6,0.4-1V131.4z"/>
		<path class="st0" d="M151.9,132.2c-0.1,0.7,0.2,0.7,0.4,0.7c0.2,0,0.4-0.2,0.4-0.4c0-0.2-0.3-0.3-0.4-0.4l-0.5-0.3
			c-0.4-0.3-0.7-0.6-0.7-1.2c0-0.6,0.5-0.9,1.3-0.9c0.8,0,1.2,0.4,1.2,1.2h-0.9c0-0.4-0.1-0.6-0.4-0.6c-0.2,0-0.4,0.1-0.4,0.3
			c0,0.2,0.2,0.3,0.3,0.4l0.7,0.5c0.2,0.1,0.6,0.5,0.6,0.7c0.1,0.7-0.1,1.3-1.3,1.3c-0.5,0-1.3-0.2-1.2-1.3H151.9z"/>
		<path class="st0" d="M154.9,132.2c-0.1,0.7,0.2,0.7,0.4,0.7c0.2,0,0.4-0.2,0.4-0.4c0-0.2-0.3-0.3-0.4-0.4l-0.5-0.3
			c-0.4-0.3-0.7-0.6-0.7-1.2c0-0.6,0.5-0.9,1.3-0.9c0.8,0,1.2,0.4,1.2,1.2h-0.9c0-0.4-0.1-0.6-0.4-0.6c-0.2,0-0.4,0.1-0.4,0.3
			c0,0.2,0.2,0.3,0.3,0.4l0.7,0.5c0.2,0.1,0.6,0.5,0.6,0.7c0.1,0.7-0.1,1.3-1.3,1.3c-0.5,0-1.3-0.2-1.2-1.3H154.9z"/>
		<path class="st0" d="M158.9,133.4c-0.1-0.1-0.1-0.3-0.1-0.4h0c-0.1,0.2-0.2,0.3-0.3,0.4c-0.1,0.1-0.3,0.1-0.4,0.1
			c-0.7,0-1-0.4-1-1.1c0-0.9,0.6-1.1,1.3-1.3c0.4-0.2,0.5-0.3,0.4-0.6c0-0.2-0.2-0.2-0.4-0.2c-0.4,0-0.5,0.2-0.5,0.5h-0.8
			c0-0.7,0.2-1.2,1.3-1.2c1.2,0,1.3,0.6,1.2,1.1v2.2c0,0.2,0,0.4,0.1,0.5H158.9z M158.8,131.4c-0.2,0.1-0.5,0.3-0.7,0.5
			c-0.1,0.1-0.1,0.3-0.1,0.5c0,0.3,0.1,0.5,0.4,0.5c0.5,0,0.4-0.6,0.4-1V131.4z"/>
		<path class="st0" d="M162.1,133L162.1,133c-0.2,0.4-0.4,0.5-0.8,0.5c-0.7,0-0.9-0.7-0.9-1.3v-1.4c0-1,0.3-1.3,0.9-1.3
			c0.4,0,0.6,0.1,0.8,0.5h0c0-0.1,0-0.2,0-0.3v-1.3h0.9v5h-0.9V133z M162.1,131.1c0-0.3,0-0.8-0.4-0.8c-0.4,0-0.4,0.4-0.4,0.7v1.2
			c0,0.4,0.1,0.6,0.4,0.6c0.3,0,0.4-0.2,0.4-0.7V131.1z"/>
		<path class="st0" d="M163.8,131c0-0.9,0.4-1.4,1.3-1.4c1.2,0,1.3,0.6,1.3,1.6v0.5h-1.7v0.5c0,0.5,0.2,0.6,0.5,0.6
			c0.3,0,0.4-0.2,0.4-0.7h0.9c0,0.8-0.3,1.4-1.2,1.4c-1,0-1.4-0.5-1.4-1.6V131z M165.5,131.1v-0.3c0-0.4-0.1-0.5-0.5-0.5
			c-0.4,0-0.4,0.3-0.4,0.7v0.2H165.5z"/>
		<path class="st0" d="M170.4,133L170.4,133c-0.2,0.4-0.4,0.5-0.8,0.5c-0.7,0-0.9-0.7-0.9-1.3v-1.4c0-1,0.3-1.3,0.9-1.3
			c0.4,0,0.6,0.1,0.8,0.5h0c0-0.1,0-0.2,0-0.3v-1.3h0.9v5h-0.9V133z M170.4,131.1c0-0.3,0-0.8-0.4-0.8c-0.4,0-0.4,0.4-0.4,0.7v1.2
			c0,0.4,0.1,0.6,0.4,0.6c0.3,0,0.4-0.2,0.4-0.7V131.1z"/>
		<path class="st0" d="M172.2,130.3v-1.8h0.8v1.8H172.2z"/>
		<path class="st0" d="M173.8,133.4v-5h0.9v5H173.8z"/>
		<path class="st0" d="M176.9,133.4c-0.5,0.1-1.2,0.1-1.2-0.6v-2.5h-0.4v-0.6h0.3v-1h0.9v1h0.4v0.6h-0.4v2.3c0,0.2,0.3,0.1,0.4,0.1
			V133.4z"/>
		<path class="st0" d="M179.2,133.4c-0.1-0.1-0.1-0.3-0.1-0.4h0c-0.1,0.2-0.2,0.3-0.3,0.4c-0.1,0.1-0.3,0.1-0.4,0.1
			c-0.7,0-1-0.4-1-1.1c0-0.9,0.6-1.1,1.3-1.3c0.4-0.2,0.5-0.3,0.4-0.6c0-0.2-0.2-0.2-0.4-0.2c-0.4,0-0.5,0.2-0.5,0.5h-0.8
			c0-0.7,0.2-1.2,1.3-1.2c1.2,0,1.3,0.6,1.2,1.1v2.2c0,0.2,0,0.4,0.1,0.5H179.2z M179.1,131.4c-0.2,0.1-0.5,0.3-0.7,0.5
			c-0.1,0.1-0.1,0.3-0.1,0.5c0,0.3,0.1,0.5,0.4,0.5c0.5,0,0.4-0.6,0.4-1V131.4z"/>
		<path class="st0" d="M180.9,133.4v-5h0.9v5H180.9z"/>
		<path class="st0" d="M182.7,129.2v-0.8h0.9v0.8H182.7z M182.7,133.4v-3.7h0.9v3.7H182.7z"/>
		<path class="st0" d="M184.4,131c0-0.9,0.4-1.4,1.3-1.4c1.2,0,1.3,0.6,1.3,1.6v0.5h-1.7v0.5c0,0.5,0.2,0.6,0.5,0.6
			c0.3,0,0.4-0.2,0.4-0.7h0.9c0,0.8-0.3,1.4-1.2,1.4c-1,0-1.4-0.5-1.4-1.6V131z M186.2,131.1v-0.3c0-0.4-0.1-0.5-0.5-0.5
			c-0.4,0-0.4,0.3-0.4,0.7v0.2H186.2z"/>
	</g>
</g>
</svg>
