<?xml version="1.0" encoding="utf-8"?>
<!-- Generator: Adobe Illustrator 26.5.0, SVG Export Plug-In . SVG Version: 6.00 Build 0)  -->
<svg version="1.1" id="Calque_1" xmlns="http://www.w3.org/2000/svg" xmlns:xlink="http://www.w3.org/1999/xlink" x="0px" y="0px"
	 viewBox="0 0 200 200" style="enable-background:new 0 0 200 200;" xml:space="preserve">
<style type="text/css">
	.st0{fill:#FFFFFF;}
	.st1{clip-path:url(#SVGID_00000123417349326015889220000002821701729734645909_);}
</style>
<g>
	<rect x="13.9" y="69.7" width="172.3" height="60.6"/>
	<g>
		<polyline class="st0" points="29.9,121.5 29.9,117.8 30.5,117.8 30.5,120.9 32,120.9 32,121.5 29.9,121.5 		"/>
		<path class="st0" d="M34.8,120.4H33c0,0.2,0.1,0.4,0.2,0.5c0.1,0.1,0.3,0.2,0.5,0.2c0.3,0,0.5-0.1,0.6-0.2l0.2,0.5
			c-0.2,0.2-0.5,0.3-0.9,0.3c-0.4,0-0.7-0.1-0.9-0.4c-0.2-0.2-0.3-0.6-0.3-1c0-0.4,0.1-0.8,0.4-1c0.2-0.3,0.5-0.4,0.9-0.4
			c0.4,0,0.7,0.1,0.9,0.4c0.2,0.2,0.3,0.5,0.3,0.9C34.8,120.1,34.8,120.2,34.8,120.4 M33,119.9h1.2c0-0.4-0.2-0.6-0.6-0.6
			C33.3,119.3,33.1,119.5,33,119.9"/>
		<path class="st0" d="M39.8,121.5v-1.7c0-0.4-0.1-0.5-0.4-0.5c-0.1,0-0.2,0-0.3,0.1c-0.1,0.1-0.1,0.1-0.2,0.2v2h-0.6v-1.8
			c0-0.1,0-0.2-0.1-0.3c-0.1-0.1-0.2-0.1-0.3-0.1c-0.1,0-0.2,0-0.2,0.1c-0.1,0.1-0.2,0.1-0.2,0.2v1.9h-0.6v-2.7h0.4l0.1,0.2
			c0.2-0.2,0.4-0.3,0.6-0.3c0.3,0,0.6,0.1,0.8,0.3c0.1-0.1,0.2-0.2,0.3-0.2c0.1-0.1,0.3-0.1,0.4-0.1c0.3,0,0.5,0.1,0.7,0.3
			c0.2,0.2,0.2,0.4,0.2,0.7v1.8H39.8"/>
		<path class="st0" d="M42.4,121.2c-0.1,0.1-0.1,0.2-0.3,0.2c-0.1,0.1-0.3,0.1-0.4,0.1c-0.3,0-0.5-0.1-0.6-0.2
			c-0.2-0.1-0.2-0.4-0.2-0.6c0-0.3,0.1-0.6,0.3-0.7c0.2-0.2,0.5-0.3,0.9-0.3c0.1,0,0.2,0,0.2,0c0-0.3-0.2-0.5-0.6-0.5
			c-0.2,0-0.4,0-0.6,0.1l-0.1-0.5c0.2-0.1,0.4-0.2,0.7-0.2c0.4,0,0.7,0.1,0.8,0.3c0.2,0.2,0.3,0.5,0.3,1.1v0.6
			c0,0.4,0.1,0.6,0.2,0.7c0,0.1-0.1,0.1-0.2,0.2c-0.1,0-0.1,0-0.2,0c-0.1,0-0.2,0-0.2-0.1C42.5,121.4,42.5,121.3,42.4,121.2
			 M42.4,120.2c-0.1,0-0.2,0-0.2,0c-0.5,0-0.7,0.2-0.7,0.5c0,0.2,0.1,0.4,0.4,0.4c0.4,0,0.5-0.2,0.5-0.6V120.2z"/>
		<path class="st0" d="M43.5,122.2l0.4-0.5c0.2,0.2,0.4,0.3,0.7,0.3c0.2,0,0.3,0,0.4-0.1c0.1-0.1,0.2-0.1,0.2-0.2
			c0-0.2-0.1-0.2-0.4-0.2c-0.1,0-0.2,0-0.3,0c-0.1,0-0.2,0-0.3,0c-0.4,0-0.6-0.2-0.6-0.5c0-0.1,0-0.2,0.1-0.3
			c0.1-0.1,0.1-0.1,0.2-0.2c-0.3-0.2-0.4-0.5-0.4-0.8c0-0.3,0.1-0.5,0.3-0.7c0.2-0.2,0.4-0.3,0.7-0.3c0.2,0,0.4,0,0.6,0.1l0.2-0.3
			l0.4,0.4l-0.3,0.2c0.1,0.2,0.1,0.3,0.1,0.6c0,0.3-0.1,0.6-0.3,0.7c-0.2,0.2-0.4,0.3-0.7,0.3c0,0-0.1,0-0.2,0l-0.1,0
			c0,0-0.1,0-0.1,0.1c-0.1,0-0.1,0.1-0.1,0.1c0,0.1,0.1,0.1,0.2,0.1c0,0,0.1,0,0.2,0c0.1,0,0.2,0,0.3,0c0.6,0,0.9,0.2,0.9,0.7
			c0,0.3-0.1,0.5-0.3,0.6c-0.2,0.2-0.5,0.2-0.8,0.2C44.1,122.6,43.8,122.5,43.5,122.2 M44.1,119.8c0,0.2,0,0.3,0.1,0.4
			c0.1,0.1,0.2,0.1,0.3,0.1c0.1,0,0.2,0,0.3-0.1c0.1-0.1,0.1-0.2,0.1-0.4c0-0.1,0-0.3-0.1-0.3c-0.1-0.1-0.2-0.1-0.3-0.1
			c-0.1,0-0.2,0-0.3,0.1C44.1,119.5,44.1,119.6,44.1,119.8"/>
		<path class="st0" d="M47.5,121.2c-0.1,0.1-0.1,0.2-0.3,0.2c-0.1,0.1-0.3,0.1-0.4,0.1c-0.3,0-0.5-0.1-0.6-0.2
			c-0.2-0.1-0.2-0.4-0.2-0.6c0-0.3,0.1-0.6,0.3-0.7c0.2-0.2,0.5-0.3,0.9-0.3c0.1,0,0.2,0,0.2,0c0-0.3-0.2-0.5-0.6-0.5
			c-0.2,0-0.4,0-0.6,0.1l-0.1-0.5c0.2-0.1,0.4-0.2,0.7-0.2c0.4,0,0.7,0.1,0.8,0.3c0.2,0.2,0.3,0.5,0.3,1.1v0.6
			c0,0.4,0.1,0.6,0.2,0.7c0,0.1-0.1,0.1-0.2,0.2c-0.1,0-0.1,0-0.2,0c-0.1,0-0.2,0-0.2-0.1C47.6,121.4,47.6,121.3,47.5,121.2
			 M47.5,120.2c-0.1,0-0.2,0-0.2,0c-0.5,0-0.7,0.2-0.7,0.5c0,0.2,0.1,0.4,0.4,0.4c0.4,0,0.5-0.2,0.5-0.6V120.2z"/>
		<polyline class="st0" points="48.6,121.5 48.6,121.3 50,119.4 48.6,119.4 48.6,118.8 50.8,118.8 50.8,119 49.5,121 50.8,121 
			50.8,121.5 48.6,121.5 		"/>
		<path class="st0" d="M51.5,121.5v-2.2h-0.3v-0.5h0.9v2.7H51.5"/>
		<path class="st0" d="M54.5,121.5V120c0-0.2,0-0.4-0.1-0.5c-0.1-0.1-0.2-0.2-0.4-0.2c-0.1,0-0.2,0-0.3,0.1
			c-0.1,0.1-0.2,0.1-0.2,0.2v2h-0.6v-2.7h0.4l0.1,0.3c0.2-0.2,0.4-0.3,0.7-0.3c0.3,0,0.5,0.1,0.7,0.3c0.2,0.2,0.3,0.5,0.3,0.8v1.7
			H54.5"/>
		<path class="st0" d="M58,120.4h-1.8c0,0.2,0.1,0.4,0.2,0.5c0.1,0.1,0.3,0.2,0.5,0.2c0.3,0,0.5-0.1,0.6-0.2l0.2,0.5
			c-0.2,0.2-0.5,0.3-0.9,0.3c-0.4,0-0.7-0.1-0.9-0.4c-0.2-0.2-0.3-0.6-0.3-1c0-0.4,0.1-0.8,0.4-1c0.2-0.3,0.5-0.4,0.9-0.4
			c0.4,0,0.7,0.1,0.9,0.4c0.2,0.2,0.3,0.5,0.3,0.9C58,120.1,58,120.2,58,120.4 M56.2,119.9h1.2c0-0.4-0.2-0.6-0.6-0.6
			C56.5,119.3,56.3,119.5,56.2,119.9"/>
		<path class="st0" d="M61.7,121.5v-0.2c0,0.1-0.1,0.1-0.2,0.2c-0.1,0-0.2,0.1-0.4,0.1c-0.4,0-0.6-0.1-0.8-0.4
			c-0.2-0.2-0.3-0.6-0.3-1c0-0.4,0.1-0.8,0.3-1c0.2-0.3,0.5-0.4,0.9-0.4c0.2,0,0.4,0,0.5,0.1v-1.1l0.6-0.2v3.9H61.7 M61.7,119.5
			c-0.1-0.1-0.3-0.2-0.4-0.2c-0.2,0-0.4,0.1-0.5,0.2c-0.1,0.2-0.2,0.4-0.2,0.7c0,0.6,0.3,0.8,0.8,0.8c0.1,0,0.1,0,0.2-0.1
			c0.1,0,0.1-0.1,0.2-0.1V119.5"/>
		<path class="st0" d="M65.1,120.4h-1.8c0,0.2,0.1,0.4,0.2,0.5c0.1,0.1,0.3,0.2,0.5,0.2c0.3,0,0.5-0.1,0.6-0.2l0.2,0.5
			c-0.2,0.2-0.5,0.3-0.9,0.3c-0.4,0-0.7-0.1-0.9-0.4c-0.2-0.2-0.3-0.6-0.3-1c0-0.4,0.1-0.8,0.4-1c0.2-0.3,0.5-0.4,0.9-0.4
			c0.4,0,0.7,0.1,0.9,0.4c0.2,0.2,0.3,0.5,0.3,0.9C65.2,120.1,65.2,120.2,65.1,120.4 M63.4,119.9h1.2c0-0.4-0.2-0.6-0.6-0.6
			C63.7,119.3,63.4,119.5,63.4,119.9"/>
		<path class="st0" d="M67.3,117.8l0.6-0.2v3c0,0.3,0.1,0.5,0.3,0.6c-0.1,0.2-0.2,0.3-0.5,0.3c-0.3,0-0.4-0.2-0.4-0.6V117.8"/>
		<path class="st0" d="M69,119.3l-0.2-0.3c0.1-0.1,0.2-0.2,0.3-0.3c0-0.1,0.1-0.1,0.1-0.2c0-0.1,0-0.1-0.1-0.2
			c-0.1-0.1-0.1-0.2-0.1-0.3c0-0.3,0.1-0.4,0.4-0.4c0.1,0,0.2,0,0.3,0.1c0.1,0.1,0.1,0.2,0.1,0.4C69.7,118.7,69.4,119,69,119.3"/>
		<path class="st0" d="M72.8,120.4H71c0,0.2,0.1,0.4,0.2,0.5c0.1,0.1,0.3,0.2,0.5,0.2c0.3,0,0.5-0.1,0.6-0.2l0.2,0.5
			c-0.2,0.2-0.5,0.3-0.9,0.3c-0.4,0-0.7-0.1-0.9-0.4c-0.2-0.2-0.3-0.6-0.3-1c0-0.4,0.1-0.8,0.4-1c0.2-0.3,0.5-0.4,0.9-0.4
			c0.4,0,0.7,0.1,0.9,0.3c0.2,0.2,0.3,0.5,0.3,0.9C72.8,120.1,72.8,120.2,72.8,120.4 M71,119.9h1.2c0-0.4-0.2-0.6-0.6-0.6
			C71.3,119.3,71.1,119.5,71,119.9 M72.3,117.7l-0.5,0.7h-0.4l0.4-0.7H72.3"/>
		<path class="st0" d="M75.3,119l-0.3,0.5c-0.1-0.1-0.3-0.2-0.6-0.2c-0.2,0-0.4,0.1-0.5,0.2c-0.1,0.2-0.2,0.4-0.2,0.7
			c0,0.6,0.3,0.9,0.8,0.9c0.2,0,0.4-0.1,0.6-0.2l0.2,0.5c-0.2,0.1-0.3,0.2-0.4,0.2c-0.1,0-0.3,0-0.5,0c-0.4,0-0.7-0.1-0.9-0.4
			c-0.2-0.2-0.3-0.6-0.3-1c0-0.4,0.1-0.8,0.4-1c0.2-0.3,0.6-0.4,1-0.4C74.8,118.8,75.1,118.8,75.3,119"/>
		<path class="st0" d="M75.7,120.2c0-0.4,0.1-0.7,0.3-1c0.2-0.3,0.5-0.4,0.9-0.4c0.4,0,0.7,0.1,0.9,0.4c0.2,0.2,0.3,0.6,0.3,1
			c0,0.4-0.1,0.8-0.3,1c-0.2,0.3-0.5,0.4-0.9,0.4c-0.4,0-0.7-0.1-0.9-0.4C75.8,120.9,75.7,120.6,75.7,120.2 M76.3,120.2
			c0,0.6,0.2,0.9,0.6,0.9c0.2,0,0.3-0.1,0.4-0.2c0.1-0.2,0.2-0.4,0.2-0.7c0-0.6-0.2-0.9-0.6-0.9c-0.2,0-0.3,0.1-0.4,0.2
			C76.3,119.7,76.3,119.9,76.3,120.2"/>
		<path class="st0" d="M80.2,121.5V120c0-0.2,0-0.4-0.1-0.5c-0.1-0.1-0.2-0.2-0.4-0.2c-0.1,0-0.2,0-0.3,0.1
			c-0.1,0.1-0.2,0.1-0.2,0.2v2h-0.6v-2.7H79l0.1,0.3c0.2-0.2,0.4-0.3,0.7-0.3c0.3,0,0.5,0.1,0.7,0.3c0.2,0.2,0.3,0.5,0.3,0.8v1.7
			H80.2"/>
		<path class="st0" d="M81.3,120.2c0-0.4,0.1-0.7,0.3-1c0.2-0.3,0.5-0.4,0.9-0.4c0.4,0,0.7,0.1,0.9,0.4c0.2,0.2,0.3,0.6,0.3,1
			c0,0.4-0.1,0.8-0.3,1c-0.2,0.3-0.5,0.4-0.9,0.4c-0.4,0-0.7-0.1-0.9-0.4C81.5,120.9,81.3,120.6,81.3,120.2 M82,120.2
			c0,0.6,0.2,0.9,0.6,0.9c0.2,0,0.3-0.1,0.4-0.2c0.1-0.2,0.2-0.4,0.2-0.7c0-0.6-0.2-0.9-0.6-0.9c-0.2,0-0.3,0.1-0.4,0.2
			C82,119.7,82,119.9,82,120.2"/>
		<path class="st0" d="M87.2,121.5v-1.7c0-0.4-0.1-0.5-0.4-0.5c-0.1,0-0.2,0-0.3,0.1c-0.1,0.1-0.1,0.1-0.2,0.2v2h-0.6v-1.8
			c0-0.1,0-0.2-0.1-0.3c-0.1-0.1-0.2-0.1-0.3-0.1c-0.1,0-0.2,0-0.2,0.1c-0.1,0.1-0.2,0.1-0.2,0.2v1.9h-0.6v-2.7h0.4l0.1,0.2
			c0.2-0.2,0.4-0.3,0.6-0.3c0.3,0,0.6,0.1,0.8,0.3c0.1-0.1,0.2-0.2,0.3-0.2c0.1-0.1,0.3-0.1,0.4-0.1c0.3,0,0.5,0.1,0.7,0.3
			c0.2,0.2,0.2,0.4,0.2,0.7v1.8H87.2"/>
		<path class="st0" d="M88.6,121.5v-2.2h-0.3v-0.5h0.9v2.7H88.6"/>
		<path class="st0" d="M92.2,120.4h-1.8c0,0.2,0.1,0.4,0.2,0.5c0.1,0.1,0.3,0.2,0.5,0.2c0.3,0,0.5-0.1,0.6-0.2l0.2,0.5
			c-0.2,0.2-0.5,0.3-0.9,0.3c-0.4,0-0.7-0.1-0.9-0.4c-0.2-0.2-0.3-0.6-0.3-1c0-0.4,0.1-0.8,0.4-1c0.2-0.3,0.5-0.4,0.9-0.4
			c0.4,0,0.7,0.1,0.9,0.4c0.2,0.2,0.3,0.5,0.3,0.9C92.3,120.1,92.2,120.2,92.2,120.4 M90.4,119.9h1.2c0-0.4-0.2-0.6-0.6-0.6
			C90.7,119.3,90.5,119.5,90.4,119.9"/>
		<path class="st0" d="M96.5,120.4h-1.8c0,0.2,0.1,0.4,0.2,0.5c0.1,0.1,0.3,0.2,0.5,0.2c0.3,0,0.5-0.1,0.6-0.2l0.2,0.5
			c-0.2,0.2-0.5,0.3-0.9,0.3c-0.4,0-0.7-0.1-0.9-0.4c-0.2-0.2-0.3-0.6-0.3-1c0-0.4,0.1-0.8,0.4-1c0.2-0.3,0.5-0.4,0.9-0.4
			c0.4,0,0.7,0.1,0.9,0.4c0.2,0.2,0.3,0.5,0.3,0.9C96.6,120.1,96.6,120.2,96.5,120.4 M94.8,119.9H96c0-0.4-0.2-0.6-0.6-0.6
			C95,119.3,94.8,119.5,94.8,119.9"/>
		<path class="st0" d="M97.2,119.3h-0.3v-0.5h0.3v-0.6l0.6-0.2v0.8h0.7v0.5h-0.7v1.2c0,0.2,0,0.3,0.1,0.4c0.1,0.1,0.2,0.1,0.3,0.1
			c0.1,0,0.3,0,0.4-0.1v0.6c-0.1,0.1-0.3,0.1-0.6,0.1c-0.3,0-0.4-0.1-0.6-0.2c-0.1-0.2-0.2-0.4-0.2-0.6V119.3"/>
		<path class="st0" d="M102.2,121.5v-0.2c0,0.1-0.1,0.1-0.2,0.2c-0.1,0-0.2,0.1-0.4,0.1c-0.4,0-0.6-0.1-0.8-0.4
			c-0.2-0.2-0.3-0.6-0.3-1c0-0.4,0.1-0.8,0.3-1c0.2-0.3,0.5-0.4,0.9-0.4c0.2,0,0.4,0,0.5,0.1v-1.1l0.6-0.2v3.9H102.2 M102.2,119.5
			c-0.1-0.1-0.3-0.2-0.4-0.2c-0.2,0-0.4,0.1-0.5,0.2c-0.1,0.2-0.2,0.4-0.2,0.7c0,0.6,0.3,0.8,0.8,0.8c0.1,0,0.1,0,0.2-0.1
			c0.1,0,0.1-0.1,0.2-0.1V119.5"/>
		<path class="st0" d="M105,121.5v-0.2c-0.1,0.1-0.2,0.1-0.3,0.2c-0.1,0.1-0.3,0.1-0.4,0.1c-0.6,0-0.9-0.3-0.9-1v-1.8h0.6v1.7
			c0,0.3,0.1,0.5,0.4,0.5c0.1,0,0.3,0,0.4-0.1c0.1-0.1,0.2-0.2,0.2-0.3v-1.9h0.6v2.7H105"/>
		<path class="st0" d="M108.4,121.4v1.1h-0.6v-3.8h0.6v0.2c0.1-0.2,0.3-0.2,0.5-0.2c0.8,0,1.2,0.5,1.2,1.4c0,0.4-0.1,0.8-0.3,1
			c-0.2,0.2-0.5,0.4-0.9,0.4C108.7,121.6,108.5,121.5,108.4,121.4 M108.4,119.5v1.4c0.1,0.1,0.2,0.1,0.4,0.1c0.3,0,0.5-0.1,0.6-0.2
			c0.1-0.1,0.2-0.4,0.2-0.7c0-0.3-0.1-0.5-0.2-0.7c-0.1-0.1-0.3-0.2-0.6-0.2C108.6,119.3,108.5,119.4,108.4,119.5"/>
		<path class="st0" d="M112.1,121.2c-0.1,0.1-0.1,0.2-0.3,0.2c-0.1,0.1-0.3,0.1-0.4,0.1c-0.3,0-0.5-0.1-0.6-0.2
			c-0.2-0.1-0.2-0.4-0.2-0.6c0-0.3,0.1-0.6,0.3-0.7c0.2-0.2,0.5-0.3,0.9-0.3c0.1,0,0.2,0,0.2,0c0-0.3-0.2-0.5-0.6-0.5
			c-0.2,0-0.4,0-0.6,0.1l-0.1-0.5c0.2-0.1,0.4-0.2,0.7-0.2c0.4,0,0.7,0.1,0.8,0.3c0.2,0.2,0.3,0.5,0.3,1.1v0.6
			c0,0.4,0.1,0.6,0.2,0.7c0,0.1-0.1,0.1-0.2,0.2c-0.1,0-0.1,0-0.2,0c-0.1,0-0.2,0-0.2-0.1C112.1,121.4,112.1,121.3,112.1,121.2
			 M112,120.2c-0.1,0-0.2,0-0.2,0c-0.5,0-0.7,0.2-0.7,0.5c0,0.2,0.1,0.4,0.4,0.4c0.4,0,0.5-0.2,0.5-0.6V120.2z"/>
		<path class="st0" d="M114.7,119.4c-0.1-0.1-0.2-0.1-0.3-0.1c-0.1,0-0.3,0.1-0.4,0.2c-0.1,0.1-0.2,0.3-0.2,0.5v1.5h-0.6v-2.7h0.6
			v0.2c0.2-0.2,0.4-0.3,0.7-0.3c0.2,0,0.4,0,0.5,0.1L114.7,119.4"/>
		<path class="st0" d="M115.5,119.3h-0.3v-0.5h0.3v-0.6l0.6-0.2v0.8h0.7v0.5h-0.7v1.2c0,0.2,0,0.3,0.1,0.4c0.1,0.1,0.2,0.1,0.3,0.1
			c0.1,0,0.3,0,0.4-0.1v0.6c-0.1,0.1-0.3,0.1-0.6,0.1c-0.3,0-0.4-0.1-0.6-0.2c-0.1-0.2-0.2-0.4-0.2-0.6V119.3"/>
		<path class="st0" d="M119.6,120.4h-1.8c0,0.2,0.1,0.4,0.2,0.5c0.1,0.1,0.3,0.2,0.5,0.2c0.3,0,0.5-0.1,0.6-0.2l0.2,0.5
			c-0.2,0.2-0.5,0.3-0.9,0.3c-0.4,0-0.7-0.1-0.9-0.4c-0.2-0.2-0.3-0.6-0.3-1c0-0.4,0.1-0.8,0.4-1c0.2-0.3,0.5-0.4,0.9-0.4
			c0.4,0,0.7,0.1,0.9,0.4c0.2,0.2,0.3,0.5,0.3,0.9C119.7,120.1,119.6,120.2,119.6,120.4 M117.8,119.9h1.2c0-0.4-0.2-0.6-0.6-0.6
			C118.1,119.3,117.9,119.5,117.8,119.9"/>
		<path class="st0" d="M121.8,121.5V120c0-0.2,0-0.4-0.1-0.5c-0.1-0.1-0.2-0.2-0.4-0.2c-0.1,0-0.2,0-0.3,0.1
			c-0.1,0.1-0.2,0.1-0.2,0.2v2h-0.6v-2.7h0.4l0.1,0.3c0.2-0.2,0.4-0.3,0.7-0.3c0.3,0,0.5,0.1,0.7,0.3c0.2,0.2,0.3,0.5,0.3,0.8v1.7
			H121.8"/>
		<path class="st0" d="M124.5,121.2c-0.1,0.1-0.1,0.2-0.3,0.2c-0.1,0.1-0.3,0.1-0.4,0.1c-0.3,0-0.5-0.1-0.6-0.2
			c-0.2-0.1-0.2-0.4-0.2-0.6c0-0.3,0.1-0.6,0.3-0.7c0.2-0.2,0.5-0.3,0.9-0.3c0.1,0,0.2,0,0.2,0c0-0.3-0.2-0.5-0.6-0.5
			c-0.2,0-0.4,0-0.6,0.1l-0.1-0.5c0.2-0.1,0.4-0.2,0.7-0.2c0.4,0,0.7,0.1,0.8,0.3c0.2,0.2,0.3,0.5,0.3,1.1v0.6
			c0,0.4,0.1,0.6,0.2,0.7c0,0.1-0.1,0.1-0.2,0.2c-0.1,0-0.1,0-0.2,0c-0.1,0-0.2,0-0.2-0.1C124.5,121.4,124.5,121.3,124.5,121.2
			 M124.4,120.2c-0.1,0-0.2,0-0.2,0c-0.5,0-0.7,0.2-0.7,0.5c0,0.2,0.1,0.4,0.4,0.4c0.4,0,0.5-0.2,0.5-0.6V120.2z"/>
		<path class="st0" d="M127.1,119.4c-0.1-0.1-0.2-0.1-0.3-0.1c-0.1,0-0.3,0.1-0.4,0.2c-0.1,0.1-0.2,0.3-0.2,0.5v1.5h-0.6v-2.7h0.6
			v0.2c0.2-0.2,0.4-0.3,0.7-0.3c0.2,0,0.4,0,0.5,0.1L127.1,119.4"/>
		<path class="st0" d="M128,121.5v-2.2h-0.3v-0.5h0.9v2.7H128"/>
		<path class="st0" d="M130.7,121.2c-0.1,0.1-0.1,0.2-0.3,0.2c-0.1,0.1-0.3,0.1-0.4,0.1c-0.3,0-0.5-0.1-0.6-0.2
			c-0.2-0.1-0.2-0.4-0.2-0.6c0-0.3,0.1-0.6,0.3-0.7c0.2-0.2,0.5-0.3,0.9-0.3c0.1,0,0.2,0,0.2,0c0-0.3-0.2-0.5-0.6-0.5
			c-0.2,0-0.4,0-0.6,0.1l-0.1-0.5c0.2-0.1,0.4-0.2,0.7-0.2c0.4,0,0.7,0.1,0.8,0.3c0.2,0.2,0.3,0.5,0.3,1.1v0.6
			c0,0.4,0.1,0.6,0.2,0.7c0,0.1-0.1,0.1-0.2,0.2c-0.1,0-0.1,0-0.2,0c-0.1,0-0.2,0-0.2-0.1C130.7,121.4,130.7,121.3,130.7,121.2
			 M130.6,120.2c-0.1,0-0.2,0-0.2,0c-0.5,0-0.7,0.2-0.7,0.5c0,0.2,0.1,0.4,0.4,0.4c0.4,0,0.5-0.2,0.5-0.6V120.2z"/>
		<path class="st0" d="M132,119.3h-0.3v-0.5h0.3v-0.6l0.6-0.2v0.8h0.7v0.5h-0.7v1.2c0,0.2,0,0.3,0.1,0.4c0.1,0.1,0.2,0.1,0.3,0.1
			c0.1,0,0.3,0,0.4-0.1v0.6c-0.1,0.1-0.3,0.1-0.6,0.1c-0.3,0-0.4-0.1-0.6-0.2c-0.1-0.2-0.2-0.4-0.2-0.6V119.3"/>
		<path class="st0" d="M135.5,121.5v-2.2h-0.3v-0.5h0.9v2.7H135.5"/>
		<path class="st0" d="M138.5,121.5V120c0-0.2,0-0.4-0.1-0.5c-0.1-0.1-0.2-0.2-0.4-0.2c-0.1,0-0.2,0-0.3,0.1
			c-0.1,0.1-0.2,0.1-0.2,0.2v2h-0.6v-2.7h0.4l0.1,0.3c0.2-0.2,0.4-0.3,0.7-0.3c0.3,0,0.5,0.1,0.7,0.3c0.2,0.2,0.3,0.5,0.3,0.8v1.7
			H138.5"/>
		<path class="st0" d="M139.8,119.3h-0.3v-0.5h0.3v-0.6l0.6-0.2v0.8h0.7v0.5h-0.7v1.2c0,0.2,0,0.3,0.1,0.4c0.1,0.1,0.2,0.1,0.3,0.1
			c0.1,0,0.3,0,0.4-0.1v0.6c-0.1,0.1-0.3,0.1-0.6,0.1c-0.3,0-0.4-0.1-0.6-0.2c-0.1-0.2-0.2-0.4-0.2-0.6V119.3"/>
		<path class="st0" d="M144,120.4h-1.8c0,0.2,0.1,0.4,0.2,0.5c0.1,0.1,0.3,0.2,0.5,0.2c0.3,0,0.5-0.1,0.6-0.2l0.2,0.5
			c-0.2,0.2-0.5,0.3-0.9,0.3c-0.4,0-0.7-0.1-0.9-0.4c-0.2-0.2-0.3-0.6-0.3-1c0-0.4,0.1-0.8,0.4-1c0.2-0.3,0.5-0.4,0.9-0.4
			c0.4,0,0.7,0.1,0.9,0.4c0.2,0.2,0.3,0.5,0.3,0.9C144,120.1,144,120.2,144,120.4 M142.2,119.9h1.2c0-0.4-0.2-0.6-0.6-0.6
			C142.5,119.3,142.3,119.5,142.2,119.9"/>
		<path class="st0" d="M146,119.4c-0.1-0.1-0.2-0.1-0.3-0.1c-0.1,0-0.3,0.1-0.4,0.2c-0.1,0.1-0.2,0.3-0.2,0.5v1.5h-0.6v-2.7h0.6v0.2
			c0.2-0.2,0.4-0.3,0.7-0.3c0.2,0,0.4,0,0.5,0.1L146,119.4"/>
		<path class="st0" d="M148.3,121.5V120c0-0.2,0-0.4-0.1-0.5c-0.1-0.1-0.2-0.2-0.4-0.2c-0.1,0-0.2,0-0.3,0.1
			c-0.1,0.1-0.2,0.1-0.2,0.2v2h-0.6v-2.7h0.4l0.1,0.3c0.2-0.2,0.4-0.3,0.7-0.3c0.3,0,0.5,0.1,0.7,0.3c0.2,0.2,0.3,0.5,0.3,0.8v1.7
			H148.3"/>
		<path class="st0" d="M150.9,121.2c-0.1,0.1-0.1,0.2-0.3,0.2c-0.1,0.1-0.3,0.1-0.4,0.1c-0.3,0-0.5-0.1-0.6-0.2
			c-0.2-0.1-0.2-0.4-0.2-0.6c0-0.3,0.1-0.6,0.3-0.7c0.2-0.2,0.5-0.3,0.9-0.3c0.1,0,0.1,0,0.2,0c0-0.3-0.2-0.5-0.6-0.5
			c-0.2,0-0.4,0-0.6,0.1l-0.1-0.5c0.2-0.1,0.4-0.2,0.7-0.2c0.4,0,0.7,0.1,0.8,0.3c0.2,0.2,0.3,0.5,0.3,1.1v0.6
			c0,0.4,0.1,0.6,0.2,0.7c0,0.1-0.1,0.1-0.2,0.2c-0.1,0-0.1,0-0.2,0c-0.1,0-0.2,0-0.2-0.1C151,121.4,150.9,121.3,150.9,121.2
			 M150.9,120.2c-0.1,0-0.2,0-0.2,0c-0.5,0-0.7,0.2-0.7,0.5c0,0.2,0.1,0.4,0.4,0.4c0.4,0,0.5-0.2,0.5-0.6V120.2z"/>
		<path class="st0" d="M152.2,119.3h-0.3v-0.5h0.3v-0.6l0.6-0.2v0.8h0.7v0.5h-0.7v1.2c0,0.2,0,0.3,0.1,0.4c0.1,0.1,0.2,0.1,0.3,0.1
			c0.1,0,0.3,0,0.4-0.1v0.6c-0.1,0.1-0.3,0.1-0.6,0.1c-0.3,0-0.4-0.1-0.6-0.2c-0.1-0.2-0.2-0.4-0.2-0.6V119.3"/>
		<path class="st0" d="M154.3,121.5v-2.2h-0.3v-0.5h0.9v2.7H154.3"/>
		<path class="st0" d="M155.4,120.2c0-0.4,0.1-0.7,0.3-1c0.2-0.3,0.5-0.4,0.9-0.4c0.4,0,0.7,0.1,0.9,0.4c0.2,0.2,0.3,0.6,0.3,1
			c0,0.4-0.1,0.8-0.3,1c-0.2,0.3-0.5,0.4-0.9,0.4c-0.4,0-0.7-0.1-0.9-0.4C155.5,120.9,155.4,120.6,155.4,120.2 M156,120.2
			c0,0.6,0.2,0.9,0.6,0.9c0.2,0,0.3-0.1,0.4-0.2c0.1-0.2,0.2-0.4,0.2-0.7c0-0.6-0.2-0.9-0.6-0.9c-0.2,0-0.3,0.1-0.4,0.2
			C156.1,119.7,156,119.9,156,120.2"/>
		<path class="st0" d="M160,121.5V120c0-0.2,0-0.4-0.1-0.5c-0.1-0.1-0.2-0.2-0.4-0.2c-0.1,0-0.2,0-0.3,0.1c-0.1,0.1-0.2,0.1-0.2,0.2
			v2h-0.6v-2.7h0.4l0.1,0.3c0.2-0.2,0.4-0.3,0.7-0.3c0.3,0,0.5,0.1,0.7,0.3c0.2,0.2,0.3,0.5,0.3,0.8v1.7H160"/>
		<path class="st0" d="M162.7,121.2c-0.1,0.1-0.1,0.2-0.3,0.2c-0.1,0.1-0.3,0.1-0.4,0.1c-0.3,0-0.5-0.1-0.6-0.2
			c-0.2-0.1-0.2-0.4-0.2-0.6c0-0.3,0.1-0.6,0.3-0.7c0.2-0.2,0.5-0.3,0.9-0.3c0.1,0,0.2,0,0.2,0c0-0.3-0.2-0.5-0.6-0.5
			c-0.2,0-0.4,0-0.6,0.1l-0.1-0.5c0.2-0.1,0.4-0.2,0.7-0.2c0.4,0,0.7,0.1,0.8,0.3c0.2,0.2,0.3,0.5,0.3,1.1v0.6
			c0,0.4,0.1,0.6,0.2,0.7c0,0.1-0.1,0.1-0.2,0.2c-0.1,0-0.1,0-0.2,0c-0.1,0-0.2,0-0.2-0.1C162.7,121.4,162.7,121.3,162.7,121.2
			 M162.6,120.2c-0.1,0-0.2,0-0.2,0c-0.5,0-0.7,0.2-0.7,0.5c0,0.2,0.1,0.4,0.4,0.4c0.4,0,0.5-0.2,0.5-0.6V120.2z"/>
		<path class="st0" d="M164,117.8l0.6-0.2v3c0,0.3,0.1,0.5,0.3,0.6c-0.1,0.2-0.2,0.3-0.5,0.3c-0.3,0-0.4-0.2-0.4-0.6V117.8"/>
		<rect x="34.1" y="76.8" class="st0" width="0.8" height="5"/>
		<polyline class="st0" points="42.7,81.8 42.7,76.8 43.4,76.8 45,80.1 45,76.8 45.8,76.8 45.8,81.8 45,81.8 43.4,78.5 43.4,81.8 
			42.7,81.8 		"/>
		<polyline class="st0" points="54.6,81.8 54.6,77.6 53.4,77.6 53.4,76.8 56.5,76.8 56.5,77.6 55.3,77.6 55.3,81.8 54.6,81.8 		"/>
		<polyline class="st0" points="64.1,81.8 64.1,76.8 67,76.8 67,77.6 64.9,77.6 64.9,78.7 66.8,78.7 66.8,79.6 64.9,79.6 64.9,80.9 
			67,80.9 67,81.8 64.1,81.8 		"/>
		<path class="st0" d="M74.8,81.8v-5h1.7c0.4,0,0.7,0,0.9,0.1c0.2,0.1,0.3,0.3,0.5,0.5c0.1,0.2,0.2,0.5,0.2,0.8
			c0,0.4-0.1,0.7-0.3,0.9c-0.2,0.2-0.4,0.4-0.8,0.5c0.2,0.1,0.3,0.3,0.4,0.4c0.1,0.2,0.3,0.4,0.4,0.8l0.5,1h-0.9l-0.6-1.1
			c-0.2-0.4-0.3-0.6-0.4-0.7c-0.1-0.1-0.2-0.2-0.2-0.2c-0.1,0-0.2-0.1-0.4-0.1h-0.2v2.1H74.8 M75.6,78.9h0.6c0.4,0,0.6,0,0.7-0.1
			c0.1,0,0.2-0.1,0.2-0.2c0.1-0.1,0.1-0.2,0.1-0.4c0-0.2,0-0.3-0.1-0.4c-0.1-0.1-0.2-0.2-0.3-0.2c-0.1,0-0.3,0-0.6,0h-0.6V78.9z"/>
		<polyline class="st0" points="85.8,81.8 85.8,76.8 86.6,76.8 88.2,80.1 88.2,76.8 88.9,76.8 88.9,81.8 88.1,81.8 86.5,78.5 
			86.5,81.8 85.8,81.8 		"/>
		<path class="st0" d="M100.3,81.8h-0.9l-0.3-1.1h-1.6l-0.3,1.1h-0.8l1.5-5h0.8L100.3,81.8 M98.9,79.8l-0.5-1.9l-0.5,1.9H98.9z"/>
		<polyline class="st0" points="108.3,81.8 108.3,77.6 107.2,77.6 107.2,76.8 110.2,76.8 110.2,77.6 109.1,77.6 109.1,81.8 
			108.3,81.8 		"/>
		<rect x="117.8" y="76.8" class="st0" width="0.8" height="5"/>
		<path class="st0" d="M126.3,79.3c0-0.5,0.1-0.9,0.2-1.3c0.1-0.3,0.2-0.5,0.4-0.7c0.2-0.2,0.3-0.4,0.5-0.5c0.2-0.1,0.5-0.2,0.8-0.2
			c0.6,0,1,0.2,1.4,0.7c0.3,0.5,0.5,1.1,0.5,1.9c0,0.8-0.2,1.4-0.5,1.9c-0.3,0.5-0.8,0.7-1.4,0.7c-0.6,0-1-0.2-1.4-0.7
			C126.4,80.7,126.3,80.1,126.3,79.3 M127.1,79.3c0,0.6,0.1,1,0.3,1.3c0.2,0.3,0.5,0.4,0.8,0.4c0.3,0,0.6-0.1,0.8-0.4
			c0.2-0.3,0.3-0.7,0.3-1.3c0-0.6-0.1-1-0.3-1.3c-0.2-0.3-0.5-0.4-0.8-0.4c-0.3,0-0.6,0.1-0.8,0.4C127.2,78.3,127.1,78.7,127.1,79.3
			"/>
		<polyline class="st0" points="137.7,81.8 137.7,76.8 138.5,76.8 140.1,80.1 140.1,76.8 140.8,76.8 140.8,81.8 140.1,81.8 
			138.5,78.5 138.5,81.8 137.7,81.8 		"/>
		<path class="st0" d="M152.3,81.8h-0.9l-0.3-1.1h-1.6l-0.3,1.1h-0.8l1.5-5h0.8L152.3,81.8 M150.8,79.8l-0.5-1.9l-0.5,1.9H150.8z"/>
		<polyline class="st0" points="159.8,81.8 159.8,76.8 160.6,76.8 160.6,80.9 162.5,80.9 162.5,81.8 159.8,81.8 		"/>
		<polyline class="st0" points="61.7,117.8 61.7,117.8 62.3,117.8 62.3,117.7 61.7,117.8 		"/>
		<polyline class="st0" points="67.3,117.8 67.3,117.8 67.9,117.8 67.9,117.7 67.3,117.8 		"/>
		<path class="st0" d="M69,117.8h0.6c-0.1-0.1-0.2-0.1-0.3-0.1C69.1,117.7,69,117.7,69,117.8"/>
		<polyline class="st0" points="71.7,117.7 71.7,117.8 72.2,117.8 72.3,117.7 71.7,117.7 		"/>
		<polyline class="st0" points="102.2,117.8 102.2,117.8 102.8,117.8 102.8,117.7 102.2,117.8 		"/>
		<polyline class="st0" points="164,117.8 164,117.8 164.6,117.8 164.6,117.7 164,117.8 		"/>
		<g>
			<defs>
				<polyline id="SVGID_00000145022109751062843770000004724780971524456075_" points="164.6,118.1 164,118.1 164,117.9 
					164.6,117.9 164.6,118.1 				"/>
			</defs>
			<use xlink:href="#SVGID_00000145022109751062843770000004724780971524456075_"  style="overflow:visible;fill:#FFFFFF;"/>
			<clipPath id="SVGID_00000049197276970815453500000009390178613328579987_">
				<use xlink:href="#SVGID_00000145022109751062843770000004724780971524456075_"  style="overflow:visible;"/>
			</clipPath>
			<g style="clip-path:url(#SVGID_00000049197276970815453500000009390178613328579987_);">
				<defs>
					<rect id="SVGID_00000047053903968243616700000007696797680844137649_" x="163.8" y="117.7" width="0.9" height="0.6"/>
				</defs>
				<use xlink:href="#SVGID_00000047053903968243616700000007696797680844137649_"  style="overflow:visible;fill:#FFFFFF;"/>
				<clipPath id="SVGID_00000113312379725932982790000000483821240471971258_">
					<use xlink:href="#SVGID_00000047053903968243616700000007696797680844137649_"  style="overflow:visible;"/>
				</clipPath>
			</g>
		</g>
		<g>
			<g>
				<g>
					<g>
						<path class="st0" d="M43.4,113.6H28.6l0.1-0.7c0.9,0,1.5-0.2,1.9-0.7c0.4-0.5,0.8-1.6,1.1-3.3l3.4-16.8
							c0.2-0.9,0.3-1.7,0.3-2.2c0-0.5-0.1-0.9-0.4-1.2c-0.3-0.3-0.8-0.5-1.6-0.5l0.1-0.7h8.8l-0.1,0.7c-0.9,0-1.5,0.3-1.9,0.8
							c-0.4,0.5-0.8,1.6-1.1,3.2l-3.1,15.4c-0.4,2-0.6,3.1-0.6,3.6c0,0.3,0.1,0.5,0.3,0.7c0.2,0.2,0.5,0.3,1,0.3
							c1.5,0,3-0.5,4.4-1.5c1.4-1,2.6-2.4,3.6-4.4h0.6L43.4,113.6"/>
						<path class="st0" d="M49.5,99.1l-0.3-0.8c1.4-1.1,2.2-2,2.6-2.5c0.3-0.4,0.4-0.9,0.4-1.3c0-0.5-0.2-1.1-0.7-1.7
							c-0.5-0.6-0.8-1.1-0.9-1.6c-0.1-0.3-0.2-0.7-0.2-1.2c0-0.8,0.2-1.6,0.7-2.2c0.4-0.6,1-0.9,1.6-0.9c0.6,0,1.1,0.3,1.6,1
							c0.4,0.7,0.7,1.5,0.7,2.5c0,1.6-0.4,3.2-1.3,4.7C52.7,96.8,51.4,98.1,49.5,99.1"/>
						<path class="st0" d="M66,105.2h-5.6l-1.2,2l-1.3,2.2c-0.3,0.5-0.4,0.9-0.6,1.3c-0.1,0.3-0.1,0.6-0.1,0.9
							c0,0.3,0.1,0.6,0.3,0.9c0.2,0.3,0.6,0.4,1.1,0.5v0.7h-5.5l0.1-0.7c0.5-0.1,0.9-0.4,1.3-0.7c0.5-0.5,1.2-1.6,2.2-3.2l13-22.1
							h0.6l-0.6,21.4c0,1.1,0,1.8,0,2c0,0.9,0.1,1.5,0.4,1.9c0.2,0.4,0.7,0.6,1.2,0.7l-0.1,0.7h-8l0.1-0.7c0.8-0.1,1.2-0.2,1.4-0.3
							c0.3-0.2,0.5-0.6,0.7-1.1c0.2-0.6,0.3-1.6,0.4-3L66,105.2 M66,103.6l0.4-8.5l-5.1,8.5H66z"/>
						<path class="st0" d="M93.6,86.9l-1.3,8.3h-0.5c-0.1-2.3-0.5-4-1.2-5.1c-0.7-1.1-1.7-1.7-2.9-1.7c-1.3,0-2.5,0.8-3.8,2.3
							c-1.3,1.5-2.3,3.8-3.2,6.9c-0.7,2.5-1.1,5-1.1,7.5c0,2.2,0.4,3.9,1.2,5.1c0.8,1.2,1.8,1.7,3.2,1.7c1.1,0,2.1-0.3,3-1
							c0.9-0.7,1.8-1.8,2.7-3.3h0.6c-1.1,2.4-2.3,4.1-3.4,5c-1.1,1-2.5,1.4-4.2,1.4c-2.2,0-4-1-5.4-2.9c-1.4-1.9-2-4.4-2-7.4
							c0-2.9,0.5-5.6,1.6-8.2c1.1-2.6,2.6-4.7,4.7-6.3c2-1.6,4-2.4,6-2.4c0.8,0,1.7,0.2,2.8,0.7c0.6,0.2,1,0.3,1.2,0.3
							c0.5,0,0.9-0.3,1.4-1H93.6"/>
						<path class="st0" d="M96.8,87.5h14.8l-1.4,7h-0.5c0-0.4,0-0.7,0-1c0-1.3-0.3-2.4-0.9-3.1c-0.6-0.7-1.5-1.2-2.9-1.3l-4,19.7
							c-0.2,1.1-0.3,1.9-0.3,2.4c0,0.5,0.1,0.9,0.4,1.2c0.3,0.3,0.8,0.4,1.7,0.5l-0.1,0.7h-9.1l0.2-0.7c0.9,0,1.6-0.3,2-0.8
							c0.4-0.5,0.8-1.6,1.2-3.4l4-19.6c-1.4,0.1-2.5,0.5-3.5,1.3c-0.9,0.8-1.8,2.2-2.6,4h-0.5L96.8,87.5"/>
						<path class="st0" d="M125.8,87.5h6.2l-0.1,0.7c-0.7,0.1-1.3,0.3-1.7,0.7c-0.6,0.7-1.1,1.7-1.4,3.3l-2.4,12
							c-0.8,3.7-1.8,6.3-3.1,7.8c-1.3,1.5-2.9,2.2-4.9,2.2c-1.1,0-2.1-0.2-3-0.7c-0.9-0.5-1.5-1-1.9-1.6c-0.4-0.6-0.7-1.3-0.9-2.1
							c-0.2-0.9-0.3-1.6-0.3-2.1c0-0.9,0.2-2.3,0.5-4l2.3-11.5c0.2-1,0.3-1.8,0.3-2.3c0-0.5-0.1-0.9-0.4-1.1
							c-0.3-0.3-0.9-0.5-1.8-0.5l0.1-0.7h9.1l-0.2,0.7c-0.9,0-1.6,0.3-2,0.8c-0.5,0.5-0.9,1.6-1.2,3.2l-2.3,11.4
							c-0.4,1.9-0.6,3.4-0.6,4.6c0,1.1,0.3,2,0.9,2.8c0.6,0.8,1.4,1.2,2.5,1.2c1,0,1.8-0.3,2.5-0.8c0.7-0.5,1.2-1.2,1.7-2.1
							c0.6-1.2,1.1-3,1.6-5.2l2.4-11.9c0.1-0.7,0.2-1.2,0.2-1.7c0-0.8-0.2-1.4-0.6-1.8c-0.3-0.3-0.9-0.4-1.7-0.4L125.8,87.5"/>
						<path class="st0" d="M140.4,89l-2,10.1h0.6c1.6,0,2.9-0.3,3.6-0.9c0.8-0.6,1.4-1.7,1.9-3.3h0.5l-2,10.2h-0.5
							c0.1-0.7,0.1-1.2,0.1-1.7c0-0.7-0.1-1.3-0.4-1.7c-0.3-0.5-0.7-0.8-1.1-1c-0.3-0.1-0.9-0.2-1.9-0.2h-1l-1.8,8.8
							c-0.2,0.8-0.2,1.3-0.2,1.7c0,0.3,0.1,0.5,0.3,0.7c0.3,0.3,0.8,0.4,1.6,0.4c1.5,0,3-0.5,4.4-1.4c1.4-0.9,2.6-2.3,3.7-4.2h0.6
							l-1.9,7.1h-15.5l0.1-0.7c0.9,0,1.5-0.3,1.9-0.8c0.4-0.5,0.8-1.6,1.1-3.3l3.4-16.8c0.2-0.9,0.3-1.7,0.3-2.2
							c0-0.5-0.1-0.9-0.4-1.1c-0.3-0.3-0.8-0.4-1.7-0.5l0.1-0.7h14.8l-1.2,6.5h-0.5c0-1.3-0.2-2.2-0.4-2.7c-0.4-0.8-0.9-1.4-1.5-1.8
							c-0.6-0.4-1.7-0.6-3.1-0.6H140.4"/>
						<path class="st0" d="M162.6,113.6h-14.7l0.1-0.7c0.9,0,1.5-0.2,1.9-0.7c0.4-0.5,0.8-1.6,1.1-3.3l3.4-16.8
							c0.2-0.9,0.3-1.7,0.3-2.2c0-0.5-0.1-0.9-0.4-1.2c-0.3-0.3-0.8-0.5-1.6-0.5l0.1-0.7h8.8l-0.1,0.7c-0.9,0-1.5,0.3-1.9,0.8
							c-0.4,0.5-0.8,1.6-1.1,3.2l-3.1,15.4c-0.4,2-0.6,3.1-0.6,3.6c0,0.3,0.1,0.5,0.3,0.7c0.2,0.2,0.5,0.3,1,0.3
							c1.5,0,3-0.5,4.4-1.5c1.4-1,2.6-2.4,3.6-4.4h0.6L162.6,113.6"/>
						<path class="st0" d="M173.9,92.7l-1,0.2c-0.2,0-0.5,0.1-0.8,0.1v0c0.3,0,0.5,0.1,0.8,0.1l1,0.2v0.5l-1,0.2
							c-0.3,0.1-0.5,0.1-0.8,0.1v0c0.3,0,0.5,0.1,0.8,0.1l1,0.2v0.6l-2.4-0.6v-0.6l0.8-0.2c0.2-0.1,0.5-0.1,0.8-0.1v0
							c-0.3,0-0.5-0.1-0.7-0.1l-0.8-0.2v-0.6l2.4-0.6V92.7"/>
						<path class="st0" d="M173.9,95.9l-1,0.2c-0.2,0-0.5,0.1-0.8,0.1v0c0.3,0,0.5,0.1,0.8,0.1l1,0.2V97l-1,0.2
							c-0.3,0.1-0.5,0.1-0.8,0.1v0c0.3,0,0.5,0.1,0.8,0.1l1,0.2v0.6l-2.4-0.6v-0.6l0.8-0.2c0.2-0.1,0.5-0.1,0.8-0.1v0
							c-0.3,0-0.5-0.1-0.7-0.1l-0.8-0.2v-0.6l2.4-0.6V95.9"/>
						<path class="st0" d="M173.9,99.1l-1,0.2c-0.2,0-0.5,0.1-0.8,0.1v0c0.3,0,0.5,0.1,0.8,0.1l1,0.2v0.5l-1,0.2
							c-0.3,0.1-0.5,0.1-0.8,0.1v0c0.3,0,0.5,0.1,0.8,0.1l1,0.2v0.6l-2.4-0.6v-0.6l0.8-0.2c0.2-0.1,0.5-0.1,0.8-0.1v0
							c-0.3,0-0.5-0.1-0.7-0.1l-0.8-0.2v-0.6l2.4-0.6V99.1"/>
						<path class="st0" d="M171.4,102.2c0-0.2,0.2-0.4,0.5-0.4c0.3,0,0.5,0.2,0.5,0.4c0,0.2-0.2,0.4-0.5,0.4
							C171.6,102.6,171.4,102.5,171.4,102.2L171.4,102.2"/>
						<rect x="171.4" y="103.1" class="st0" width="3.5" height="0.6"/>
						<path class="st0" d="M172,106c-0.2,0-0.4,0-0.6,0v-0.6l0.2,0v0c-0.2-0.1-0.3-0.3-0.3-0.6c0-0.4,0.4-0.7,0.7-0.7
							c0.6,0,0.9,0.5,0.9,1.2h0c0.1,0,0.3-0.1,0.3-0.4c0-0.2-0.1-0.4-0.2-0.6l0.5-0.1c0.1,0.1,0.2,0.4,0.2,0.8c0,0.7-0.5,0.9-1,0.9
							H172 M172.6,105.4c0-0.3-0.1-0.6-0.4-0.6c-0.2,0-0.3,0.1-0.3,0.2c0,0.2,0.1,0.3,0.3,0.3c0,0,0.1,0,0.1,0H172.6z"/>
						<path class="st0" d="M171.5,108.1c-0.1-0.1-0.1-0.3-0.1-0.6c0-0.7,0.5-1.1,1.2-1.1c0.7,0,1.3,0.4,1.3,1.2c0,0.2,0,0.3-0.1,0.5
							l-0.6-0.1c0-0.1,0.1-0.2,0.1-0.4c0-0.3-0.3-0.5-0.7-0.5c-0.4,0-0.7,0.2-0.7,0.6c0,0.1,0,0.3,0.1,0.4L171.5,108.1"/>
						<path class="st0" d="M174.5,109.2h-0.7v0.5h-0.6v-0.5h-0.9c-0.3,0-0.4,0.1-0.4,0.2c0,0.1,0,0.1,0,0.2l-0.6,0
							c0-0.1-0.1-0.2-0.1-0.4c0-0.2,0.1-0.4,0.2-0.5c0.1-0.1,0.4-0.2,0.7-0.2h1v-0.3h0.6v0.3h0.5L174.5,109.2"/>
						<path class="st0" d="M172.2,112c-0.3,0-0.6,0-0.8,0v-0.5l0.3,0v0c-0.1-0.1-0.4-0.3-0.4-0.6c0-0.4,0.3-0.7,1.1-0.7h1.4v0.6
							h-1.3c-0.3,0-0.6,0.1-0.6,0.3c0,0.2,0.1,0.3,0.3,0.3c0,0,0.1,0,0.2,0h1.4v0.6H172.2"/>
						<path class="st0" d="M172.4,113.1c-0.3,0-0.5,0.3-0.5,0.6c0,0.2,0,0.4,0.1,0.6l-0.5,0.1c-0.1-0.2-0.2-0.5-0.2-0.7
							c0-0.7,0.5-1.1,1.2-1.1c0.6,0,1.3,0.3,1.3,1c0,0.7-0.6,0.9-1.2,0.9c-0.1,0-0.2,0-0.3,0L172.4,113.1 M172.9,113.8
							c0.2,0,0.5-0.1,0.5-0.4c0-0.3-0.3-0.4-0.5-0.4V113.8z"/>
						<rect x="171.4" y="114.9" class="st0" width="3.5" height="0.6"/>
						<path class="st0" d="M171.4,116.4c0-0.2,0.2-0.4,0.5-0.4c0.3,0,0.5,0.2,0.5,0.4c0,0.2-0.2,0.4-0.5,0.4
							C171.6,116.8,171.4,116.6,171.4,116.4L171.4,116.4"/>
						<path class="st0" d="M174.9,119.2h-2.8c-0.3,0-0.6,0-0.7,0v-0.6l0.4,0v0c-0.3-0.1-0.4-0.4-0.4-0.6c0-0.5,0.5-0.9,1.2-0.9
							c0.8,0,1.3,0.4,1.3,0.9c0,0.3-0.1,0.4-0.3,0.5v0h1.3V119.2 M172.8,118.6c0,0,0.1,0,0.1,0c0.2,0,0.4-0.2,0.4-0.4
							c0-0.3-0.3-0.4-0.7-0.4c-0.4,0-0.7,0.2-0.7,0.4c0,0.2,0.1,0.3,0.4,0.4c0,0,0.1,0,0.2,0H172.8z"/>
						<path class="st0" d="M171.9,119.6l0.9,0.6c0.2,0.1,0.3,0.2,0.4,0.3h0v-0.9h0.6v1.7h-0.5l-0.9-0.6c-0.2-0.1-0.3-0.2-0.4-0.3h0
							v1h-0.6v-1.8H171.9"/>
					</g>
				</g>
			</g>
		</g>
		<ellipse class="st0" cx="88.9" cy="118.1" rx="0.3" ry="0.4"/>
		<ellipse class="st0" cx="128.1" cy="118.1" rx="0.3" ry="0.4"/>
		<ellipse class="st0" cx="154.4" cy="118.1" rx="0.3" ry="0.4"/>
		<ellipse class="st0" cx="135.7" cy="118.1" rx="0.3" ry="0.4"/>
		<ellipse class="st0" cx="51.6" cy="118.1" rx="0.3" ry="0.4"/>
	</g>
</g>
</svg>
