<?xml version="1.0" encoding="utf-8"?>
<!-- Generator: Adobe Illustrator 26.5.0, SVG Export Plug-In . SVG Version: 6.00 Build 0)  -->
<svg version="1.1" id="Calque_1" xmlns="http://www.w3.org/2000/svg" xmlns:xlink="http://www.w3.org/1999/xlink" x="0px" y="0px"
	 viewBox="0 0 150 40.2" style="enable-background:new 0 0 150 40.2;" xml:space="preserve">
<style type="text/css">
	.st0{fill:#E42313;}
	.st1{fill:#FFFFFF;}
	.st2{fill:#D6BCAF;}
	.st3{fill:#AB7F6B;}
	.st4{fill:#7F4A34;}
	.st5{fill:#521F06;}
</style>
<g>
	<rect class="st0" width="34.8" height="40.2"/>
	<g>
		<path d="M52.1,21.3c-5.1,1.6-7.2,0.2-7.2-3.1v-7.7h-2.2V8.3H45V6.4l3.7-2.7v4.6h3v2.1h-3v7.5c0,2.4,0.7,2.2,2.4,1L52.1,21.3z"/>
		<path d="M66.1,14.9v6.5c0,0.1-5.1,0.8-7.2,0.6c-3.5,0-6.2-2.1-6.2-4.5c0-1.8,1-4.3,6.2-4.3c1.5,0,3.4,0.5,3.3,0.4
			c-0.2-2.7-1.7-3-2.9-3.1c-2.2-0.2-4.7,1.8-4.7,1.8l-1.2-2.3c1.4-0.9,3.5-1.7,5.9-1.7C62.4,8.3,66.1,9.6,66.1,14.9z M62.5,19.5
			l-0.1-3.1c-0.6-0.7-1.7-1.2-3.4-1.2c-2.1,0.1-2.5,1.2-2.5,2.2c0,1.7,1.2,2.5,2.4,2.5C61,20.1,62.4,19.5,62.5,19.5z"/>
		<path d="M67.3,14.6c0-4.6,3.3-6.3,6.6-6.3c1.8,0,3.2,0.7,3,0.6v-5h3.7v5.8V17v4.4c0,0-3.7,0.9-6.8,0.7
			C70.2,21.8,67.3,19.3,67.3,14.6L67.3,14.6z M71,14.6c-0.1,3.1,1.2,4.9,2.9,5.1c1.7,0.3,3-0.3,3-0.3l-0.1-7.8
			c-1.1-0.9-2-1.1-3.1-1.1C72.6,10.5,71,12,71,14.6L71,14.6z"/>
		<path d="M95.1,14.9v6.5c0,0.1-5.1,0.8-7.2,0.6c-3.5,0-6.2-2.1-6.2-4.5c0-1.8,1-4.3,6.2-4.3c1.5,0,3.4,0.5,3.3,0.4
			c-0.2-2.7-1.7-3-2.9-3.1c-2.2-0.2-4.7,1.8-4.7,1.8l-1.2-2.3c1.4-0.9,3.5-1.7,5.9-1.7C91.4,8.3,95.1,9.6,95.1,14.9z M91.4,19.5
			l-0.1-3.1c-0.6-0.7-1.7-1.2-3.4-1.2c-2.1,0.1-2.5,1.2-2.5,2.2c0,1.7,1.2,2.5,2.4,2.5C90,20.1,91.4,19.5,91.4,19.5z"/>
		<path d="M116.6,13.8v7.7h-3.7v-7.7c0-2.8-0.7-3.6-2-3.6c-1.2,0-2.5,1.1-2.6,1.2l0,10.1h-3.8v-7.7c0-2.8-0.7-3.6-2-3.6
			c-1.2,0-2.5,1.1-2.5,1l0,10.2h-3.7V10.1c2.8-1.7,4.9-1.8,6.2-1.8c2,0,3.8,0.8,4.2,1.3c1-0.7,2.9-1.3,4.1-1.3
			C114.4,8.3,116.6,10.2,116.6,13.8z"/>
		<path d="M125.5,14c2.9,1.3,3.8,2.5,3.7,4.4c-0.1,1.9-1.6,3.5-6,3.5c-1.5,0-4.2-0.6-5.5-1.5l0.6-2.7c2.4,1.8,4,2.1,4.8,2.2
			c1.6,0.1,2.2-0.5,2.2-1.2c0.1-0.7-1-1.3-1.6-1.6c-3-1.2-5.8-2.5-5.8-5.2c0-2,2.1-3.6,5.2-3.6c1.6,0,3,0.2,5,1.4l-0.4,2.4
			c-2.1-1.3-3.2-1.7-4.1-1.7c-0.7,0-1.9,0.1-1.9,1.2C121.6,12.2,122.3,12.7,125.5,14L125.5,14z"/>
		<path d="M143.8,14.9v6.5c0,0.1-5.1,0.8-7.2,0.6c-3.5,0-6.2-2.1-6.2-4.5c0-1.8,1-4.3,6.2-4.3c1.5,0,3.4,0.5,3.3,0.4
			c-0.2-2.7-1.7-3-2.9-3.1c-2.2-0.2-4.7,1.8-4.7,1.8l-1.2-2.3c1.4-0.9,3.5-1.7,5.9-1.7C140,8.3,143.8,9.6,143.8,14.9z M140.1,19.5
			l-0.1-3.1c-0.6-0.7-1.7-1.2-3.4-1.2c-2.1,0.1-2.5,1.2-2.5,2.2c0,1.7,1.2,2.5,2.4,2.5C138.7,20.1,140.1,19.5,140.1,19.5z"/>
		<path d="M150,5.7c0,1-0.8,1.8-1.8,1.8c-1,0-1.8-0.8-1.8-1.8s0.8-1.8,1.8-1.8C149.2,3.9,150,4.7,150,5.7z M149.6,5.7
			c0-0.8-0.6-1.4-1.4-1.4c-0.8,0-1.4,0.6-1.4,1.4c0,0.8,0.6,1.4,1.4,1.4C149,7.1,149.6,6.4,149.6,5.7z M148.4,5.8l0.6,0.9h-0.5
			l-0.5-0.8c-0.1,0-0.2,0-0.2,0v0.9h-0.4v-2c0,0,0.3-0.1,0.8-0.1c0.4,0,0.6,0.3,0.6,0.6C148.9,5.5,148.7,5.7,148.4,5.8z M148.4,5.3
			c0-0.1,0-0.3-0.2-0.3c-0.2,0-0.3,0-0.3,0v0.6c0.1,0,0.2,0.1,0.3,0C148.4,5.6,148.4,5.4,148.4,5.3z"/>
	</g>
	<g>
		<path d="M46.4,27.6v3.1h5.7v1h-5.7V35h5.7v1.2h-7.1v-9.9h7.1v1.2H46.4z"/>
		<path d="M62.3,36.2l-1.8,0l-3.1-4.3l-2.9,4.3h-1.7l3.7-5.1L53,26.4h1.7l2.8,3.9l0.1-0.1l2.6-3.9h1.7l-3.5,4.7L62.3,36.2z"/>
		<path d="M71,29.3c0,1.4-1.5,2.6-3.3,2.8c-1.2,0.1-2,0.1-3.1,0.1v4.1h-1.5v-9.9c0,0,1.9,0,4.6,0C69.7,26.5,71,27.6,71,29.3z
			 M69.5,29.3c0-0.9-0.6-1.7-1.9-1.9c-1-0.1-3-0.1-3-0.1v3.8c0.6,0,2,0.1,3-0.1C68.7,30.9,69.5,29.9,69.5,29.3z"/>
		<path d="M77.4,36.3c-3.3,0-5.8-2.3-5.8-5.1c0-2.8,2.5-5.1,5.8-5.1c3.3,0,5.8,2.3,5.8,5.1C83.2,34,80.7,36.3,77.4,36.3z M77.4,27.1
			c-2.5,0-4.4,2-4.4,4.1c0,2.1,1.9,4.1,4.4,4.1s4.4-2,4.4-4.1C81.8,29.1,79.9,27.1,77.4,27.1z"/>
	</g>
	<g>
		<polyline class="st1" points="30.8,11.7 28.3,12.2 28.3,10.1 30.8,9.6 30.8,11.7 		"/>
		<polyline class="st1" points="30.9,6.7 28.2,7.8 28.3,5.5 30.9,4.4 30.9,6.7 		"/>
		<polyline class="st2" points="25.7,11.5 23.4,12.3 23.5,10.3 25.7,9.4 25.7,11.5 		"/>
		<polyline class="st2" points="25.8,6.5 23.4,7.9 23.4,5.7 25.7,4.3 25.8,6.5 		"/>
		<polyline class="st3" points="20.7,36.3 18.5,34.9 18.5,33.3 20.7,34.7 20.7,36.3 		"/>
		<polyline class="st3" points="20.7,31.3 18.5,30.4 18.5,28.7 20.7,29.6 20.7,31.3 		"/>
		<polyline class="st3" points="20.7,26.3 18.6,25.9 18.5,24.1 20.7,24.5 20.7,26.3 		"/>
		<polyline class="st3" points="20.7,21.3 18.6,21.4 18.6,19.5 20.7,19.4 20.7,21.3 		"/>
		<polyline class="st3" points="20.7,16.3 18.6,17 18.6,15 20.6,14.4 20.7,16.3 		"/>
		<polyline class="st3" points="20.6,11.4 18.6,12.5 18.6,10.4 20.6,9.3 20.6,11.4 		"/>
		<polyline class="st3" points="20.6,6.4 18.6,8 18.6,5.8 20.6,4.2 20.6,6.4 		"/>
		<polyline class="st4" points="15.8,36.2 13.5,35.3 13.4,33.3 15.8,34.3 15.8,36.2 		"/>
		<polyline class="st4" points="15.7,31.2 13.5,30.8 13.5,28.8 15.8,29.2 15.7,31.2 		"/>
		<polyline class="st4" points="15.7,26.2 13.6,26.2 13.5,24.2 15.7,24.2 15.7,26.2 		"/>
		<polyline class="st4" points="15.6,21.2 13.6,21.7 13.6,19.6 15.7,19.2 15.6,21.2 		"/>
		<polyline class="st4" points="15.6,16.2 13.7,17.1 13.7,15.1 15.6,14.2 15.6,16.2 		"/>
		<polyline class="st4" points="15.5,11.2 13.7,12.6 13.7,10.5 15.5,9.2 15.5,11.2 		"/>
		<polyline class="st4" points="15.5,6.2 13.8,8 13.8,6 15.5,4.1 15.5,6.2 		"/>
		<polyline class="st5" points="10.4,11.1 8.8,12.7 8.8,10.7 10.4,9 10.4,11.1 		"/>
		<polyline class="st5" points="10.4,6.1 8.9,8.1 8.9,6.1 10.4,4.1 10.4,6.1 		"/>
		<polyline points="5.3,10.9 4,12.8 4,10.8 5.4,8.9 5.3,10.9 		"/>
		<polyline points="5.2,5.9 4.1,8.2 4.1,6.3 5.2,4 5.2,5.9 		"/>
	</g>
</g>
</svg>
