<svg enable-background="new 0 0 93.1 26.7" viewBox="0 0 93.1 26.7" xmlns="http://www.w3.org/2000/svg"><path d="m79.5 3.4c-.7 0-1.4 0-2.1 0 0-.1 0-.2 0-.2-.1-.6-.6-.9-1.1-1-.3 0-.7 0-1 0-1.3 0-2.6 0-3.8 0-.2 0-.4 0-.6.1-.5.3-.7.8-.6 1.3s.6.9 1.1.9h1 3.4c1.9 0 3.6 1.4 3.9 3.2.3 2-.9 3.9-2.9 4.4-.3.1-.6.1-.9.1-1.3 0-2.6 0-3.9 0-1.9 0-3.6-1.5-3.8-3.4 0-.1 0-.3 0-.5h2.1v.2c.1.8.7 1.4 1.5 1.5h.3 3.6c.4 0 .7-.1 1.1-.3.6-.4.9-1.1.7-1.8s-.8-1.2-1.6-1.3c-.1 0-.2 0-.3 0-1.4 0-2.7 0-4.1 0-.6 0-1.3-.1-1.8-.5-1-.7-1.6-1.7-1.5-2.9 0-1.3.6-2.3 1.7-2.9.5-.3 1-.4 1.5-.4h5.1c1.7 0 3.1 1.4 3.2 3.1-.2.2-.2.3-.2.4z" fill="#e4013b"/><path d="m27 0h.3 5.9c2.9 0 5.5 2.2 6 5.1.6 3.4-1.7 6.3-4.5 7-.5.1-.9.2-1.4.2-2 0-4 0-6 0-.1 0-.1 0-.2 0-.1-4.1-.1-8.2-.1-12.3zm2.1 2.2c-.1.6 0 7.7 0 7.9h.3 3.6c.3 0 .6 0 .9-.1 2-.4 3.5-2.5 3-4.8-.4-1.8-2-3.1-3.9-3.1-1.2 0-2.4 0-3.7 0 0 .1-.1.1-.2.1z" fill="#e4013b"/><path d="m56 12.2c-.7 0-1.4 0-2.1 0 0-4.1 0-8.1 0-12.2 2 1.6 4.1 3.1 6.1 4.7 2-1.6 4.1-3.1 6.1-4.7v12.2c-.7 0-1.4 0-2.2 0 0-2.6 0-5.2 0-7.8-.3.2-.6.4-.8.6-.3.2-.5.4-.8.6s-.5.4-.8.6-.5.4-.8.6-.5.4-.8.6c-1.3-1-2.6-2-3.9-3v.2.2 7.1z" fill="#e4013b"/><path d="m0 2.2c0-.8 0-1.5 0-2.2h12.2c.1.2.1 1.9 0 2.2-1.7 0-3.3 0-5 0v10.1c-.7 0-1.4 0-2.2 0 0-3.4 0-6.7 0-10.1-.6 0-1.1 0-1.7 0-.5 0-1.1 0-1.6 0-.5 0-1.1 0-1.7 0z" fill="#e4013b"/><path d="m25.8 12.2c-.8 0-1.6 0-2.4 0-1.3-2.5-2.5-4.9-3.8-7.4-.1.1-.1.2-.2.3-1.2 2.3-2.4 4.6-3.5 6.9 0 0 0 .1-.1.1 0 .1-.1.2-.3.2-.6 0-1.2 0-1.8 0-.1 0-.3 0-.4 0 2-4 4.1-8.1 6.2-12.1 0 0 0 0 .1-.1 2.1 4 4.2 8.1 6.2 12.1z" fill="#e4013b"/><path d="m52.8 12.3c-.8 0-1.6 0-2.4 0-1.3-2.5-2.5-4.9-3.8-7.4v.1c-1.2 2.4-2.5 4.8-3.7 7.2-.8 0-1.6 0-2.4 0 2.1-4.1 4.1-8.1 6.2-12.2 1.9 4.1 4 8.2 6.1 12.3z" fill="#e4013b"/><path d="m80.6 12.2c2.1-4 4.1-8.1 6.2-12.2 2.1 4.1 4.2 8.1 6.2 12.2-.1 0-.2 0-.2 0-.7 0-1.3 0-2 0-.2 0-.3-.1-.3-.2-1.2-2.3-2.4-4.6-3.5-6.9 0-.1-.1-.2-.2-.3-.1.1-.1.2-.2.3-1.2 2.3-2.4 4.6-3.5 6.9 0 .1-.1.1-.1.2s-.1.1-.2.1c-.6 0-1.4 0-2.2-.1.1.1.1 0 0 0z" fill="#e4013b"/><path d="m19.5 14.7h16.2c.8 0 1.5.2 2.1.7.8.6 1.2 1.5 1.2 2.5v5.5c0 1.6-1.2 2.9-2.8 3.2-.2 0-.4 0-.6 0-10.8 0-21.6 0-32.4 0-1.8 0-3.3-1.4-3.3-3.3 0-1.6 0-3.3 0-4.9 0-.2 0-.3 0-.5 0-1.9 1.6-3.3 3.3-3.3h13.5c1 .1 1.9.1 2.8.1z" fill="#e4013b"/><path d="m53.5 14.7v2c-.1 0-.2 0-.3 0-2.8 0-5.6 0-8.3 0-.1 0-.3 0-.4 0-.5.1-.9.5-1 1v1.4h.4 7.1.4v2c-.7 0-1.3 0-2 0-.6 0-1.3 0-1.9 0-.7 0-1.3 0-2 0-.6 0-1.3 0-2 0v.3 2.2c0 .7.5 1.2 1.2 1.2h.3 8.2.4v2c-.1 0-.2 0-.2 0-2.9 0-5.8 0-8.7 0-1.9 0-3.1-1.6-3.1-3.1 0-2 0-3.9 0-5.9 0-1.5 1.2-2.8 2.7-3.1h.5 8.6c-.1 0 0 0 .1 0z" fill="#e4013b"/><path d="m67 14.7c-.1.1-.1.2-.2.2-1.4 1.8-2.9 3.7-4.3 5.5-.2.3-.2.3 0 .5 1.4 1.8 2.8 3.6 4.2 5.4.1.1.1.2.2.3-.1 0-.1 0-.2 0-.7 0-1.4 0-2.1 0-.2 0-.2-.1-.3-.2-.9-1.1-1.8-2.3-2.7-3.4-.1-.2-.3-.4-.4-.6 0-.1-.1-.1-.2-.2-.1.1-.2.2-.3.3-1 1.3-2 2.6-3 3.8-.1.2-.2.2-.5.2-.6 0-1.3 0-1.9 0-.1 0-.2 0-.3 0 .1-.1.1-.2.2-.3 1.4-1.8 2.8-3.6 4.2-5.4 0 0 .1-.1.1-.1.1-.2.1-.2 0-.3-.3-.4-.7-.9-1-1.3-1.1-1.5-2.2-2.9-3.4-4.4 0-.1-.1-.1-.2-.2h.2 2c.2 0 .3.1.4.2 1 1.3 2 2.6 3 4 .2.3.2.3.5 0 1-1.3 2-2.6 3-3.9.1-.2.3-.3.5-.3h1.9c.4.2.5.2.6.2z" fill="#e4013b"/><path d="m70.7 26.7c-.7 0-1.3 0-2 0 0-4 0-8 0-12h.2 7.5c1.7 0 2.9 1.4 3.1 2.8.2 1.6-.7 3.1-2.3 3.6-.3.1-.6.1-.9.1-1.7 0-3.5 0-5.2 0-.4 0-.4 0-.4.4v4.9zm3-10c-.9 0-1.7 0-2.6 0-.4 0-.4 0-.4.4v1.7.1c0 .2 0 .2.3.2h.2 4.4.8c.6 0 1.2-.6 1.2-1.2 0-.7-.5-1.3-1.2-1.3-.9 0-1.8.1-2.7.1z" fill="#e4013b"/><path d="m81.1 20.7c0-3.2 2.7-6 6.1-6s6 2.8 6 6.1c0 3.1-2.6 6-6.1 6-3.5-.1-6.1-2.9-6-6.1zm6 4c2.3 0 4.1-1.8 4-4.1 0-2.2-1.7-4-4.1-4s-4.1 2-4 4.1c0 2.2 1.9 4.1 4.1 4z" fill="#e4013b"/><g fill="#fff"><path d="m4.6 19.4v.4h-.9v1.9h-.4v-1.9h-1v-.4z"/><path d="m6.5 21.7h-.4l-.2-.4-.5-1-.5 1-.2.4h-.5l.2-.4 1-1.9 1 1.9z"/><path d="m7.9 19.4c.6 0 1.1.6 1.1 1.2 0 .3-.1.5-.3.7 0 0 0 0-.1.1-.2.2-.5.3-.8.3h-1.1v-2.3zm.7 1.2c0-.4-.3-.7-.7-.7h-.8v1.5h.7c.5-.1.8-.4.8-.8z"/><path d="m11.3 21.7h-.5l-.2-.4-.5-1-.5 1-.2.4h-.5l.2-.4 1-1.9 1 1.9z"/><path d="m13.8 19.4v2.3h-.4v-1.5l-.4.4-.3.3-.3-.3-.4-.3v1.5h-.4v-2.3l.4.3.7.6.7-.6z"/><path d="m15.9 20.1c0-.1-.1-.2-.2-.2h-.9c-.1 0-.2.1-.2.2 0 .1.1.2.2.2h.8c.2 0 .4.1.5.2.1.1.2.3.2.5 0 .4-.3.7-.7.7h-.7c-.4 0-.7-.3-.7-.7h.4c0 .2.1.3.3.3h.7c.2 0 .3-.1.3-.3s-.1-.3-.3-.3h-.8c-.2 0-.3-.1-.4-.2 0 0-.1-.1-.1-.1-.1-.1-.1-.2-.1-.4 0-.3.3-.6.6-.6h.9c.3 0 .6.3.6.6z"/><path d="m18.7 21.7h-.5l-.2-.4-.5-1-.5 1-.2.4h-.5l.2-.4 1-1.9 1 1.9z"/><path d="m19.3 20.1v.2h1.5v.4h-1.5v.4c0 .1.1.2.2.2h1.7v.4h-1.7c-.3 0-.6-.3-.6-.6v-1.1c0-.3.3-.6.6-.6h1.7v.4h-1.7c-.1 0-.2.1-.2.3z"/><path d="m23.8 19.4-.9 1.2.9 1.2h-.5l-.6-.8-.7.7h-.5l.9-1.2-.9-1.2h.5l.6.8.6-.8h.6z"/><path d="m25.9 19.6c.1.1.2.3.2.4 0 .2-.1.5-.4.6-.1 0-.1 0-.2 0h-1.1v1.1h-.4v-2.3h1.5c.1 0 .3.1.4.2zm-.4.6c.1 0 .1-.1.1-.2s0-.1-.1-.2c0 0-.1-.1-.1-.1h-1v.4l1.1.1c0 .1 0 .1 0 0z"/><path d="m28.5 20.6c0 .6-.5 1.2-1.2 1.2s-1.2-.5-1.2-1.2c0-.6.5-1.2 1.2-1.2s1.2.6 1.2 1.2zm-.4 0c0-.4-.3-.7-.7-.7s-.7.3-.7.7.3.7.7.7.7-.3.7-.7z"/><path d="m28.7 21.8v-.4h.4v.4z"/><path d="m29.9 20.6c0 .4.3.7.7.7h1.2v.4h-1.2c-.6 0-1.2-.5-1.2-1.2 0-.6.5-1.2 1.2-1.2h1.2v.4h-1.2c-.4.1-.7.5-.7.9z"/><path d="m34.2 20.6c0 .6-.5 1.2-1.2 1.2s-1.2-.5-1.2-1.2c0-.6.5-1.2 1.2-1.2s1.2.6 1.2 1.2zm-.5 0c0-.4-.3-.7-.7-.7s-.7.3-.7.7.3.7.7.7.7-.3.7-.7z"/><path d="m36.7 19.4v2.3h-.4v-1.5l-.4.3-.3.3-.3-.3-.4-.3v1.5h-.4v-2.3l.4.3.7.6.7-.6z"/></g></svg>