<?xml version="1.0" encoding="utf-8"?>
<!-- Generator: Adobe Illustrator 26.5.0, SVG Export Plug-In . SVG Version: 6.00 Build 0)  -->
<svg version="1.1" id="Calque_1" xmlns="http://www.w3.org/2000/svg" xmlns:xlink="http://www.w3.org/1999/xlink" x="0px" y="0px"
	 viewBox="0 0 150 40.2" style="enable-background:new 0 0 150 40.2;" xml:space="preserve">
<style type="text/css">
	.st0{fill:#E42313;}
	.st1{fill:#FFFFFF;}
	.st2{fill:#D6BCAF;}
	.st3{fill:#AB7F6B;}
	.st4{fill:#7F4A34;}
	.st5{fill:#521F06;}
</style>
<g>
	<rect y="-2.2" width="150" height="44.6"/>
	<rect x="4.2" y="2.7" class="st0" width="30.9" height="35.7"/>
	<g>
		<path class="st1" d="M50.5,21.6c-4.5,1.4-6.4,0.2-6.3-2.8V12h-1.9v-1.9h1.9V8.4L47.5,6v4.1h2.7V12h-2.7v6.6c0,2.1,0.7,1.9,2.2,0.9
			L50.5,21.6z"/>
		<path class="st1" d="M62.9,15.9v5.8c0,0-4.5,0.7-6.4,0.6c-3.1,0-5.5-1.9-5.5-4c0-1.6,0.9-3.8,5.5-3.8c1.3,0,3,0.4,2.9,0.4
			c-0.2-2.4-1.5-2.6-2.6-2.7c-2-0.1-4.2,1.6-4.2,1.6l-1.1-2c1.3-0.8,3.1-1.5,5.3-1.5C59.6,10.1,62.9,11.2,62.9,15.9z M59.6,20l0-2.8
			c-0.5-0.6-1.5-1.1-3-1c-1.8,0.1-2.2,1.1-2.2,2c0,1.5,1,2.2,2.1,2.2C58.4,20.5,59.6,20,59.6,20z"/>
		<path class="st1" d="M64,15.7c0-4.1,3-5.6,5.8-5.6c1.6,0,2.8,0.6,2.6,0.5V6.2h3.3v5.1v6.4v3.9c0,0-3.3,0.8-6,0.6
			C66.5,22,64,19.9,64,15.7L64,15.7z M67.3,15.7c-0.1,2.7,1.1,4.3,2.6,4.5c1.5,0.2,2.7-0.3,2.7-0.3L72.4,13c-1-0.8-1.7-1-2.8-1
			C68.6,12,67.3,13.3,67.3,15.7L67.3,15.7z"/>
		<path class="st1" d="M88.6,15.9v5.8c0,0-4.5,0.7-6.4,0.6c-3.1,0-5.5-1.9-5.5-4c0-1.6,0.9-3.8,5.5-3.8c1.3,0,3,0.4,2.9,0.4
			c-0.2-2.4-1.5-2.6-2.6-2.7c-2-0.1-4.2,1.6-4.2,1.6l-1.1-2c1.3-0.8,3.1-1.5,5.3-1.5C85.3,10.1,88.6,11.2,88.6,15.9z M85.4,20l0-2.8
			c-0.5-0.6-1.5-1.1-3-1c-1.8,0.1-2.2,1.1-2.2,2c0,1.5,1,2.2,2.1,2.2C84.1,20.5,85.4,20,85.4,20z"/>
		<path class="st1" d="M107.7,15v6.8h-3.3V15c0-2.5-0.6-3.2-1.8-3.2c-1.1,0-2.2,1-2.3,1l0,8.9H97V15c0-2.5-0.6-3.2-1.8-3.2
			c-1.1,0-2.2,1-2.3,0.9l0,9h-3.3V11.7c2.5-1.5,4.4-1.6,5.5-1.6c1.7,0,3.4,0.7,3.7,1.2c0.9-0.7,2.6-1.2,3.6-1.2
			C105.7,10.1,107.7,11.8,107.7,15z"/>
		<path class="st1" d="M115.6,15.2c2.6,1.1,3.4,2.2,3.3,3.9c-0.1,1.7-1.4,3.1-5.3,3.1c-1.3,0-3.7-0.5-4.8-1.3l0.5-2.4
			c2.1,1.6,3.6,1.9,4.2,1.9c1.4,0.1,1.9-0.4,2-1.1c0.1-0.6-0.8-1.2-1.4-1.4c-2.7-1.1-5.2-2.3-5.2-4.6c0-1.8,1.9-3.2,4.6-3.2
			c1.4,0,2.6,0.2,4.5,1.2l-0.4,2.1c-1.9-1.2-2.8-1.5-3.7-1.5c-0.7,0-1.7,0-1.7,1C112.1,13.5,112.7,14,115.6,15.2L115.6,15.2z"/>
		<path class="st1" d="M131.8,15.9v5.8c0,0-4.5,0.7-6.4,0.6c-3.1,0-5.5-1.9-5.5-4c0-1.6,0.9-3.8,5.5-3.8c1.3,0,3,0.4,2.9,0.4
			c-0.2-2.4-1.5-2.6-2.6-2.7c-2-0.1-4.2,1.6-4.2,1.6l-1.1-2c1.3-0.8,3.1-1.5,5.3-1.5C128.4,10.1,131.8,11.2,131.8,15.9z M128.5,20
			l0-2.8c-0.5-0.6-1.5-1.1-3-1c-1.8,0.1-2.2,1.1-2.2,2c0,1.5,1,2.2,2.1,2.2C127.3,20.5,128.5,20,128.5,20z"/>
		<path class="st1" d="M137.3,7.7c0,0.9-0.7,1.6-1.6,1.6c-0.9,0-1.6-0.7-1.6-1.6s0.7-1.6,1.6-1.6C136.6,6.2,137.3,6.9,137.3,7.7z
			 M137,7.7c0-0.7-0.6-1.3-1.3-1.3c-0.7,0-1.3,0.6-1.3,1.3c0,0.7,0.6,1.3,1.3,1.3C136.4,9,137,8.4,137,7.7z M135.9,7.9l0.5,0.8H136
			l-0.4-0.8c-0.1,0-0.1,0-0.2,0v0.8H135V6.9c0,0,0.3-0.1,0.7-0.1c0.4,0,0.6,0.3,0.6,0.6C136.3,7.6,136.2,7.8,135.9,7.9z M135.9,7.4
			c0-0.1,0-0.3-0.2-0.3c-0.1,0-0.3,0-0.3,0v0.5c0.1,0,0.2,0,0.3,0C135.9,7.6,135.9,7.5,135.9,7.4z"/>
	</g>
	<g>
		<path class="st1" d="M45.4,27.2v2.7h5v0.9h-5v2.9h5v1.1h-6.3v-8.8h6.3v1.1H45.4z"/>
		<path class="st1" d="M59.5,34.9l-1.6,0L55.2,31l-2.6,3.8h-1.5l3.3-4.5l-3.2-4.3h1.5l2.4,3.5l0.1-0.1l2.3-3.4h1.5l-3.1,4.2
			L59.5,34.9z"/>
		<path class="st1" d="M67.2,28.7c0,1.2-1.3,2.3-2.9,2.5c-1.1,0.1-1.8,0.1-2.7,0.1v3.6h-1.3v-8.8c0,0,1.7,0,4.1,0
			C66.1,26.3,67.2,27.2,67.2,28.7z M65.9,28.7c0-0.8-0.6-1.5-1.7-1.6c-0.9-0.1-2.7,0-2.7,0v3.4c0.5,0,1.7,0.1,2.7,0
			C65.2,30.1,65.9,29.3,65.9,28.7z"/>
		<path class="st1" d="M72.9,34.9c-2.9,0-5.2-2-5.2-4.5c0-2.5,2.2-4.5,5.2-4.5c3,0,5.2,2,5.2,4.5C78.1,32.9,75.9,34.9,72.9,34.9z
			 M72.9,26.7c-2.2,0-3.9,1.8-3.9,3.7c0,1.9,1.7,3.7,3.9,3.7c2.3,0,3.9-1.8,3.9-3.7C76.8,28.5,75.2,26.7,72.9,26.7z"/>
	</g>
	<g>
		<polyline class="st1" points="31.6,13 29.4,13.5 29.4,11.7 31.6,11.2 31.6,13 		"/>
		<polyline class="st1" points="31.7,8.7 29.3,9.6 29.3,7.6 31.6,6.6 31.7,8.7 		"/>
		<polyline class="st2" points="27.1,12.9 25,13.6 25.1,11.8 27.1,11.1 27.1,12.9 		"/>
		<polyline class="st2" points="27.1,8.5 25,9.7 25,7.7 27.1,6.5 27.1,8.5 		"/>
		<polyline class="st3" points="22.6,34.9 20.7,33.7 20.7,32.2 22.6,33.4 22.6,34.9 		"/>
		<polyline class="st3" points="22.6,30.5 20.7,29.7 20.7,28.2 22.6,29 22.6,30.5 		"/>
		<polyline class="st3" points="22.6,26 20.7,25.7 20.7,24.1 22.6,24.5 22.6,26 		"/>
		<polyline class="st3" points="22.6,21.6 20.7,21.7 20.7,20 22.6,20 22.6,21.6 		"/>
		<polyline class="st3" points="22.6,17.2 20.7,17.7 20.7,16 22.6,15.5 22.6,17.2 		"/>
		<polyline class="st3" points="22.6,12.8 20.7,13.8 20.7,11.9 22.5,11 22.6,12.8 		"/>
		<polyline class="st3" points="22.5,8.4 20.7,9.8 20.8,7.9 22.5,6.5 22.5,8.4 		"/>
		<polyline class="st4" points="18.3,34.8 16.2,34 16.2,32.3 18.3,33.1 18.3,34.8 		"/>
		<polyline class="st4" points="18.2,30.4 16.2,30 16.2,28.2 18.2,28.6 18.2,30.4 		"/>
		<polyline class="st4" points="18.2,26 16.3,26 16.3,24.2 18.2,24.2 18.2,26 		"/>
		<polyline class="st4" points="18.1,21.5 16.3,21.9 16.3,20.1 18.1,19.7 18.1,21.5 		"/>
		<polyline class="st4" points="18.1,17.1 16.4,17.9 16.4,16.1 18.1,15.3 18.1,17.1 		"/>
		<polyline class="st4" points="18,12.7 16.4,13.9 16.4,12.1 18,10.8 18,12.7 		"/>
		<polyline class="st4" points="18,8.2 16.5,9.8 16.5,8 18,6.4 18,8.2 		"/>
		<polyline class="st5" points="13.5,12.5 12.1,14 12.1,12.2 13.5,10.7 13.5,12.5 		"/>
		<polyline class="st5" points="13.4,8.1 12.2,9.9 12.2,8.2 13.4,6.3 13.4,8.1 		"/>
		<polyline points="9,12.4 7.8,14.1 7.8,12.3 9,10.6 9,12.4 		"/>
		<polyline points="8.9,7.9 7.9,10 7.9,8.3 8.9,6.2 8.9,7.9 		"/>
	</g>
</g>
</svg>
