<svg id="eELhpx4FO7Y1" xmlns="http://www.w3.org/2000/svg" xmlns:xlink="http://www.w3.org/1999/xlink" viewBox="0 0 138.7 43.3" shape-rendering="geometricPrecision" text-rendering="geometricPrecision">
<style><![CDATA[
#eELhpx4FO7Y2_to {animation: eELhpx4FO7Y2_to__to 3000ms linear 1 normal forwards}@keyframes eELhpx4FO7Y2_to__to { 0% {transform: translate(69.349998px,21.65px)} 33.333333% {transform: translate(69.349998px,21.65px);animation-timing-function: cubic-bezier(0.6,-0.28,0.135,0.725)} 83.333333% {transform: translate(-40.249999px,21.65px)} 100% {transform: translate(-40.249999px,21.65px)}}
]]></style>
<g id="eELhpx4FO7Y2_to" transform="translate(69.349998,21.65)"><g transform="scale(0.809962,0.809962) translate(-69.349998,-21.65)"><rect width="138.7" height="43.3" rx="0" ry="0"/><g><path d="M49.6,23.1c-4.4,1.3-6.2.2-6.2-2.7v-6.7h-1.9v-1.8h1.9v-1.7L46.7,8v4h2.6v1.8h-2.6v6.4c0,2,.6,1.9,2.1.9l.8,2Z" fill="#fff"/><path d="M61.7,17.6v5.6c0,0-4.4.7-6.2.5-3.1,0-5.3-1.8-5.3-3.9c0-1.5.9-3.7,5.4-3.7c1.3,0,2.9.4,2.8.4-.2-2.4-1.5-2.5-2.5-2.6-1.9-.1-4,1.6-4.1,1.6l-1-2c1.2-.8,3-1.5,5.1-1.5c2.6-.1,5.8,1,5.8,5.6Zm-3.1,3.9v-2.7c-.5-.6-1.5-1-2.9-1-1.8.1-2.1,1.1-2.1,1.9c0,1.4,1,2.2,2.1,2.2c1.6.1,2.8-.3,2.9-.4Z" fill="#fff"/><path d="M62.8,17.3c0-4,2.9-5.4,5.6-5.4c1.5,0,2.7.6,2.5.5v-4.2h3.2v5v6.2v3.8c0,0-3.2.8-5.9.6-3-.3-5.5-2.4-5.4-6.5v0Zm3.2,0c-.1,2.7,1,4.2,2.5,4.4s2.6-.3,2.6-.3L71,14.7c-1-.8-1.7-1-2.7-1-1,.1-2.3,1.4-2.3,3.6v0Z" fill="#fff"/><path d="M86.7,17.6v5.6c0,0-4.4.7-6.2.5-3.1,0-5.3-1.8-5.3-3.9c0-1.5.9-3.7,5.4-3.7c1.3,0,2.9.4,2.8.4-.2-2.4-1.5-2.5-2.5-2.6-1.9-.1-4,1.6-4.1,1.6l-1-2c1.2-.8,3-1.5,5.1-1.5c2.6-.1,5.8,1,5.8,5.6Zm-3.2,3.9v-2.7c-.5-.6-1.5-1-2.9-1-1.8.1-2.1,1.1-2.1,1.9c0,1.4,1,2.2,2.1,2.2c1.7.1,2.9-.3,2.9-.4Z" fill="#fff"/><path d="M105.2,16.7v6.6h-3.2v-6.6c0-2.4-.6-3.1-1.7-3.1-1,0-2.2,1-2.2,1v8.7h-3.2v-6.6c0-2.4-.6-3.1-1.7-3.1-1,0-2.2,1-2.2.9v8.8h-3.2v-9.8c2.4-1.5,4.2-1.6,5.4-1.6c1.7,0,3.3.7,3.6,1.1.9-.6,2.5-1.1,3.5-1.1c3,0,4.9,1.7,4.9,4.8Z" fill="#fff"/><path d="M112.9,16.8c2.5,1.1,3.3,2.2,3.2,3.8s-1.4,3-5.2,3c-1.3,0-3.6-.5-4.7-1.3l.5-2.3c2,1.6,3.5,1.8,4.1,1.9c1.3.1,1.9-.4,1.9-1c.1-.6-.8-1.2-1.4-1.4-2.6-1-5-2.2-5-4.5c0-1.7,1.8-3.1,4.5-3.1c1.4,0,2.6.2,4.3,1.2l-.4,2.1c-1.8-1.2-2.8-1.5-3.6-1.5-.6,0-1.6,0-1.7,1c.1.6.7,1,3.5,2.1v0Z" fill="#fff"/><path d="M128.6,17.6v5.6c0,0-4.4.7-6.2.5-3.1,0-5.3-1.8-5.3-3.9c0-1.5.9-3.7,5.4-3.7c1.3,0,2.9.4,2.8.4-.2-2.4-1.5-2.5-2.5-2.6-1.9-.1-4,1.6-4.1,1.6l-1-2c1.2-.8,3-1.5,5.1-1.5c2.5-.1,5.8,1,5.8,5.6Zm-3.2,3.9v-2.7c-.5-.6-1.5-1-2.9-1-1.8.1-2.1,1.1-2.1,1.9c0,1.4,1,2.2,2.1,2.2c1.7.1,2.9-.3,2.9-.4Z" fill="#fff"/><path d="M134,9.6c0,.8-.7,1.5-1.5,1.5s-1.5-.7-1.5-1.5.7-1.5,1.5-1.5s1.5.7,1.5,1.5Zm-.4,0c0-.7-.5-1.2-1.2-1.2s-1.2.5-1.2,1.2.5,1.2,1.2,1.2c.7.1,1.2-.5,1.2-1.2Zm-1,.2l.5.8h-.4l-.4-.7c-.1,0-.1,0-.2,0v.7h-.4v-1.8c0,0,.3-.1.7-.1s.6.3.6.6c0,.2-.2.4-.4.5Zm0-.5c0-.1,0-.3-.2-.3-.1,0-.3,0-.3,0v.5c.1,0,.2,0,.3,0c.2.1.2,0,.2-.2Z" fill="#fff"/></g><g><path d="M44.7,28.5v2.7h4.9v.9h-4.9v2.8h4.9v1.1h-6.1v-8.5h6.1v1.1h-4.9Z" fill="#fff"/><path d="M58.4,36h-1.5l-2.7-3.7L51.8,36h-1.5l3.2-4.4-3.1-4.1h1.5l2.4,3.4.1-.1l2.2-3.3h1.5l-3,4L58.4,36Z" fill="#fff"/><path d="M65.9,30c0,1.2-1.3,2.3-2.9,2.4-1,.1-1.7.1-2.7.1v3.5h-1.3v-8.5c0,0,1.6,0,4,0c1.8.1,2.9,1.1,2.9,2.5Zm-1.3,0c0-.8-.5-1.4-1.6-1.6-.8-.1-2.6,0-2.6,0v3.3c.5,0,1.7.1,2.6,0c.9-.4,1.6-1.1,1.6-1.7Z" fill="#fff"/><path d="M71.4,36c-2.9,0-5-2-5-4.4s2.2-4.4,5-4.4c2.9,0,5,2,5,4.4s-2.1,4.4-5,4.4Zm0-7.9c-2.2,0-3.8,1.7-3.8,3.6c0,1.8,1.6,3.5,3.8,3.5s3.8-1.7,3.8-3.5c0-1.9-1.6-3.6-3.8-3.6Z" fill="#fff"/></g></g></g><g transform="matrix(.809963 0 0 0.809963 0 4.114304)"><rect width="39.5" height="43.3" rx="0" ry="0"/><rect width="30" height="34.7" rx="0" ry="0" transform="translate(4.8 4.8)" fill="#e42313"/><g><polyline points="31.3,14.8 29.2,15.3 29.2,13.5 31.3,13 31.3,14.8" fill="#fff"/><polyline points="31.4,10.5 29.1,11.5 29.1,9.5 31.4,8.6 31.4,10.5" fill="#fff"/><polyline points="26.9,14.7 25,15.4 25,13.6 26.9,12.9 26.9,14.7" fill="#d6bcaf"/><polyline points="27,10.4 24.9,11.6 25,9.6 26.9,8.5 27,10.4" fill="#d6bcaf"/><polyline points="22.6,36 20.7,34.8 20.7,33.4 22.6,34.6 22.6,36" fill="#ab7f6b"/><polyline points="22.6,31.7 20.7,31 20.7,29.5 22.6,30.2 22.6,31.7" fill="#ab7f6b"/><polyline points="22.6,27.4 20.7,27.1 20.7,25.5 22.6,25.9 22.6,27.4" fill="#ab7f6b"/><polyline points="22.6,23.1 20.8,23.2 20.7,21.6 22.6,21.5 22.6,23.1" fill="#ab7f6b"/><polyline points="22.6,18.8 20.8,19.4 20.8,17.7 22.6,17.1 22.6,18.8" fill="#ab7f6b"/><polyline points="22.5,14.6 20.8,15.5 20.8,13.7 22.5,12.8 22.5,14.6" fill="#ab7f6b"/><polyline points="22.5,10.3 20.8,11.6 20.8,9.8 22.5,8.4 22.5,10.3" fill="#ab7f6b"/><polyline points="18.4,36 16.4,35.2 16.3,33.5 18.4,34.3 18.4,36" fill="#7f4a34"/><polyline points="18.3,31.7 16.4,31.3 16.4,29.5 18.3,29.9 18.3,31.7" fill="#7f4a34"/><polyline points="18.3,27.3 16.4,27.3 16.4,25.6 18.3,25.6 18.3,27.3" fill="#7f4a34"/><polyline points="18.2,23 16.5,23.4 16.5,21.7 18.2,21.3 18.2,23" fill="#7f4a34"/><polyline points="18.2,18.7 16.5,19.5 16.5,17.8 18.2,17 18.2,18.7" fill="#7f4a34"/><polyline points="18.2,14.4 16.6,15.6 16.6,13.8 18.1,12.7 18.2,14.4" fill="#7f4a34"/><polyline points="18.1,10.1 16.6,11.7 16.6,9.9 18.1,8.3 18.1,10.1" fill="#7f4a34"/><polyline points="13.8,14.3 12.4,15.7 12.4,14 13.8,12.5 13.8,14.3" fill="#521f06"/><polyline points="13.7,10 12.5,11.8 12.5,10.1 13.7,8.3 13.7,10" fill="#521f06"/><polyline points="9.4,14.2 8.2,15.8 8.2,14.1 9.4,12.4 9.4,14.2"/><polyline points="9.3,9.8 8.3,11.8 8.3,10.2 9.3,8.2 9.3,9.8"/></g></g></svg>
