<?xml version="1.0" encoding="utf-8"?>
<!-- Generator: Adobe Illustrator 26.5.0, SVG Export Plug-In . SVG Version: 6.00 Build 0)  -->
<svg version="1.1" id="Calque_1" xmlns="http://www.w3.org/2000/svg" xmlns:xlink="http://www.w3.org/1999/xlink" x="0px" y="0px"
	 viewBox="0 0 23.9 28.7" style="enable-background:new 0 0 23.9 28.7;" xml:space="preserve">
<style type="text/css">
	.st0{opacity:0.7;}
	.st1{fill:#1D1D1B;}
</style>
<g class="st0">
	<polyline class="st1" points="23.8,6.8 21.6,7.3 21.6,5.5 23.8,5 23.8,6.8 	"/>
	<polyline class="st1" points="23.9,2.5 21.5,3.4 21.5,1.4 23.8,0.4 23.9,2.5 	"/>
	<polyline class="st1" points="19.3,6.7 17.2,7.4 17.3,5.6 19.3,4.9 19.3,6.7 	"/>
	<polyline class="st1" points="19.3,2.3 17.2,3.5 17.2,1.5 19.3,0.3 19.3,2.3 	"/>
	<polyline class="st1" points="14.8,28.7 12.9,27.5 12.9,26 14.8,27.2 14.8,28.7 	"/>
	<polyline class="st1" points="14.8,24.3 12.9,23.5 12.9,22 14.8,22.8 14.8,24.3 	"/>
	<polyline class="st1" points="14.8,19.8 12.9,19.5 12.9,17.9 14.8,18.3 14.8,19.8 	"/>
	<polyline class="st1" points="14.8,15.4 12.9,15.5 12.9,13.8 14.8,13.8 14.8,15.4 	"/>
	<polyline class="st1" points="14.8,11 12.9,11.5 12.9,9.8 14.8,9.3 14.8,11 	"/>
	<polyline class="st1" points="14.8,6.6 12.9,7.6 12.9,5.7 14.7,4.8 14.8,6.6 	"/>
	<polyline class="st1" points="14.7,2.2 12.9,3.6 13,1.7 14.7,0.3 14.7,2.2 	"/>
	<polyline class="st1" points="10.5,28.6 8.4,27.8 8.4,26.1 10.5,26.9 10.5,28.6 	"/>
	<polyline class="st1" points="10.4,24.2 8.4,23.8 8.4,22 10.4,22.4 10.4,24.2 	"/>
	<polyline class="st1" points="10.4,19.8 8.5,19.8 8.5,18 10.4,18 10.4,19.8 	"/>
	<polyline class="st1" points="10.3,15.3 8.5,15.7 8.5,13.9 10.3,13.5 10.3,15.3 	"/>
	<polyline class="st1" points="10.3,10.9 8.6,11.7 8.6,9.9 10.3,9.1 10.3,10.9 	"/>
	<polyline class="st1" points="10.2,6.5 8.6,7.7 8.6,5.9 10.2,4.6 10.2,6.5 	"/>
	<polyline class="st1" points="10.2,2 8.7,3.6 8.7,1.8 10.2,0.2 10.2,2 	"/>
	<polyline class="st1" points="5.7,6.3 4.3,7.8 4.3,6 5.7,4.5 5.7,6.3 	"/>
	<polyline class="st1" points="5.6,1.9 4.4,3.7 4.4,2 5.6,0.1 5.6,1.9 	"/>
	<polyline class="st1" points="1.2,6.2 0,7.9 0,6.1 1.2,4.4 1.2,6.2 	"/>
	<polyline class="st1" points="1.1,1.7 0.1,3.8 0.1,2.1 1.1,0 1.1,1.7 	"/>
</g>
</svg>
