<?xml version="1.0" encoding="utf-8"?>
<!-- Generator: Adobe Illustrator 26.5.0, SVG Export Plug-In . SVG Version: 6.00 Build 0)  -->
<svg version="1.1" id="Calque_1" xmlns="http://www.w3.org/2000/svg" xmlns:xlink="http://www.w3.org/1999/xlink" x="0px" y="0px"
	 viewBox="0 0 200 200" style="enable-background:new 0 0 200 200;" xml:space="preserve">
<style type="text/css">
	.st0{fill:#FFFFFF;}
	.st1{fill:#FFFFFF;stroke:#000000;stroke-width:0.6559;stroke-miterlimit:10;}
</style>
<g>
	<g>
		<path d="M172.1,70.8H149h-21.4H14v44.5c0,7.7,6.2,13.9,13.9,13.9h113.6h7.5h23.1c7.7,0,13.9-6.2,13.9-13.9V84.7
			C186,77,179.8,70.8,172.1,70.8"/>
		<path class="st0" d="M128.8,72v43.3c0,7,5.7,12.7,12.7,12.7h30.6c7,0,12.7-5.7,12.7-12.7V84.7c0-7-5.7-12.7-12.7-12.7H128.8z"/>
		<path class="st1" d="M174.1,77.3c-1.5,0-2.8,0.5-3.8,1.6c-1.1,1.1-1.6,2.3-1.6,3.8c0,1.5,0.5,2.8,1.6,3.9c1,1.1,2.3,1.6,3.8,1.6
			c1.5,0,2.8-0.5,3.9-1.6c1-1.1,1.6-2.4,1.6-3.9c0-1.5-0.5-2.8-1.6-3.8C176.9,77.8,175.6,77.3,174.1,77.3"/>
		<path class="st1" d="M162.1,77.3c-1.5,0-2.8,0.5-3.8,1.6c-1.1,1.1-1.6,2.3-1.6,3.8c0,1.5,0.5,2.8,1.6,3.9c1,1.1,2.3,1.6,3.8,1.6
			c1.5,0,2.8-0.5,3.9-1.6c1-1.1,1.6-2.4,1.6-3.9c0-1.5-0.5-2.8-1.6-3.8C164.9,77.8,163.6,77.3,162.1,77.3"/>
		<path class="st1" d="M147.5,82.7v-5.4h-13.4v5.4h13.3C147.4,82.7,147.5,82.7,147.5,82.7"/>
		<path d="M167.5,91.1v13.4c0,2.2-0.2,3.7-0.5,4.4c-0.3,1.2-1.7,1.8-4,1.8h-1.3l0,0c-1.7,0-3.4,0.7-4.9,2.1
			c-1.5-1.4-3.1-2.1-4.9-2.1l0,0h-1.4c-2.3,0-3.7-0.6-4-1.8c-0.3-0.7-0.4-2.1-0.4-4.4v-1.4h7.8v-12h-7.8v-6.9c0-1.1,0.9-1.4,1.3-1.4
			h-13.3v27.3c0,1.1,0,2,0.1,2.5c0.1,0.7,0.2,1.4,0.3,1.9c0.1,0.6,0.3,1.1,0.5,1.6c0.2,0.6,0.5,1,0.7,1.4c1,1.6,2.4,2.9,4.1,3.7
			c1.7,0.9,3.6,1.4,5.8,1.4h4.5h2.3h15.8c2.1,0,4-0.5,5.8-1.4c1.7-0.9,3-2.1,4.1-3.7c0.2-0.4,0.5-0.8,0.7-1.4c0.2-0.5,0.4-1,0.5-1.6
			c0.1-0.6,0.2-1.2,0.3-1.9c0.1-0.5,0.1-1.3,0.1-2.5v-19L167.5,91.1L167.5,91.1z"/>
		<path class="st0" d="M93.2,94.4v-2.3c0-2.3-1-3.4-3.1-3.4c-1,0-1.8,0.3-2.3,0.8l-3.7-3.7c0.6-0.7,1.2-1.3,2-1.8
			c1.2-0.7,2.5-1.1,4-1.1c1.5,0,2.9,0.4,4.1,1.1c1.2,0.7,2.1,1.8,2.9,3.2c0.3,0.7,0.6,1.5,0.8,2.5c0.1,0.8,0.2,4.3,0.2,10.4H84.2
			v-5.6L93.2,94.4L93.2,94.4z"/>
	</g>
	<polygon class="st0" points="81.2,100 81.2,83.1 81.6,83.1 81.6,78.6 75.5,78.6 75.5,100 	"/>
	<path class="st0" d="M119.8,83.6c0.7,0,1.3-0.2,1.8-0.7c0.5-0.5,0.7-1.1,0.7-1.8c0-0.7-0.2-1.3-0.7-1.8c-0.5-0.5-1.1-0.7-1.8-0.7
		c-0.7,0-1.3,0.2-1.8,0.7c-0.5,0.5-0.7,1.1-0.7,1.8c0,0.7,0.2,1.3,0.7,1.8C118.5,83.3,119.1,83.6,119.8,83.6"/>
	<path class="st0" d="M114,83.6c0.7,0,1.3-0.2,1.8-0.7c0.5-0.5,0.7-1.1,0.7-1.8c0-0.7-0.2-1.3-0.7-1.8c-0.5-0.5-1.1-0.7-1.8-0.7
		c-0.7,0-1.3,0.2-1.8,0.7c-0.5,0.5-0.7,1.1-0.7,1.8c0,0.7,0.2,1.3,0.7,1.8C112.7,83.3,113.3,83.6,114,83.6"/>
	<path class="st0" d="M116.7,85.1v6.4c0,1.1-0.1,1.7-0.2,2.1c-0.2,0.6-0.8,0.8-1.9,0.9h-5.1h-0.8c-1.1,0-1.7-0.3-1.9-0.9
		c-0.1-0.3-0.2-1-0.2-2.1v-8.3h0.4v-4.6h-6v15.5c0,0.5,0,0.9,0,1.2c0,0.4,0.1,0.7,0.1,0.9c0.1,0.3,0.1,0.5,0.2,0.8
		c0.1,0.3,0.2,0.5,0.3,0.7c0.5,0.8,1.1,1.4,1.9,1.8c0.8,0.4,1.7,0.6,2.7,0.6h2.1h1.1h7.5c1,0,1.9-0.2,2.7-0.6c0.8-0.4,1.4-1,1.9-1.8
		c0.1-0.2,0.2-0.4,0.3-0.7c0.1-0.2,0.2-0.5,0.2-0.8c0.1-0.3,0.1-0.6,0.1-0.9c0-0.2,0-0.6,0-1.2v-9L116.7,85.1L116.7,85.1z"/>
	<path class="st0" d="M88.2,119.9c1.1-0.2,1.7-0.8,1.8-1.7l0-10.3l3.7,0v6.6l-0.1,3.7c-0.1,2.2-1.4,3.7-3.8,4.4L88.2,119.9z"/>
	<path class="st0" d="M91.8,102.5c-0.5,0-0.9,0.2-1.3,0.5c-0.4,0.4-0.5,0.8-0.5,1.3c0,0.5,0.2,0.9,0.5,1.3c0.4,0.4,0.8,0.5,1.3,0.5
		c0.5,0,0.9-0.2,1.3-0.5c0.4-0.4,0.5-0.8,0.5-1.3c0-0.5-0.2-0.9-0.5-1.3C92.8,102.7,92.3,102.5,91.8,102.5"/>
	<path class="st0" d="M68.3,95.8c-0.5,0.5-1.1,0.8-1.9,0.8c-0.8,0-1.4-0.3-1.9-0.8c-0.5-0.5-0.7-1.3-0.7-2.2c0-0.9,0.2-1.6,0.7-2.2
		c0.5-0.6,1.1-0.8,1.9-0.8c0.8,0,1.4,0.3,1.9,0.8c0.5,0.5,0.7,1.3,0.7,2.2S68.8,95.3,68.3,95.8 M66.4,87.1c-3.6,0-6.6,3-6.6,6.8
		c0,0.2,0,0.4,0,0.6h-5v-4.6h-5.6v4.6h-0.7c-1,0-1.8-0.8-1.8-1.8v-5.1H41v7h-0.7c-1,0-1.8-0.8-1.8-1.8v-7.4h-5.7v9.3h-4.4h-0.6h-0.2
		c-1.1,0-1.7-0.3-1.9-0.9c-0.1-0.3-0.2-1-0.2-2.1v-8.3h0.4v-4.6h-6v15.5c0,0.5,0,0.9,0,1.2c0,0.4,0.1,0.7,0.1,0.9
		c0.1,0.3,0.1,0.5,0.2,0.8c0.1,0.3,0.2,0.5,0.3,0.7c0.5,0.8,1.1,1.4,1.9,1.8c0.8,0.4,1.7,0.6,2.7,0.6h2.2h1h35.4
		c0.8,0.4,1.7,0.6,2.6,0.6c3.6,0,6.6-3,6.6-6.8C72.9,90.1,70,87.1,66.4,87.1"/>
	<path class="st0" d="M109.3,118.8c-0.5,0-0.9,0.2-1.3,0.5c-0.4,0.4-0.5,0.8-0.5,1.3s0.2,0.9,0.5,1.3c0.4,0.4,0.8,0.5,1.3,0.5
		s0.9-0.2,1.3-0.5c0.4-0.4,0.5-0.8,0.5-1.3c0-0.5-0.2-0.9-0.5-1.3C110.2,119,109.8,118.8,109.3,118.8"/>
	<path class="st0" d="M113.9,118.8c-0.5,0-0.9,0.2-1.3,0.5c-0.4,0.4-0.5,0.8-0.5,1.3s0.2,0.9,0.5,1.3c0.4,0.4,0.8,0.5,1.3,0.5
		c0.5,0,0.9-0.2,1.3-0.5c0.4-0.4,0.5-0.8,0.5-1.3c0-0.5-0.2-0.9-0.5-1.3C114.9,119,114.4,118.8,113.9,118.8"/>
	<path class="st0" d="M99,110.9c0.4-0.4,0.9-0.5,1.5-0.5c0.6,0,1.1,0.2,1.4,0.5l0,0v3.6l-2.6,0c-0.6-0.7-0.9-1.4-0.9-2.1
		C98.5,111.8,98.6,111.3,99,110.9 M118.6,108.5v4.1c0,0.7,0,1.1-0.1,1.3c-0.1,0.4-0.5,0.6-1.2,0.6h-0.3h-0.7h-0.4v-6h-3.7v4.1
		c0,0.7,0,1.1-0.1,1.3c-0.1,0.4-0.5,0.6-1.2,0.6h-3.3h-0.7h-1.1l0-4.1c-0.1-0.3-0.2-0.7-0.4-1c-0.5-0.9-1.2-1.6-2-2.1
		c-0.8-0.5-1.7-0.7-2.8-0.7c-0.8,0-1.5,0.1-2.1,0.4c-0.6,0.3-1.2,0.6-1.7,1.2c-0.5,0.5-0.9,1.1-1.2,1.8c-0.3,0.7-0.4,1.4-0.4,2.2
		c0,0.9,0.2,1.7,0.5,2.4h0l0.5,1.1l0,0l0.7,1.6c0,0,0,0,0,0l0.4,0.9h4.7c0,0,0,0,0,0.1c-0.1,1.1-1.4,1.9-2.8,1.7
		c-0.4-0.1-0.9-0.2-1.2-0.4l1.4,3.1c0.3,0.1,0.7,0.1,1.1,0.1c2.8,0,5.1-2,5.1-4.5h1.2h0.7h8.8h0.7h1.9c0.7,0,1.2-0.1,1.8-0.4
		c0.5-0.3,0.9-0.7,1.3-1.2c0.1-0.1,0.1-0.3,0.2-0.4c0.1-0.1,0.1-0.3,0.2-0.5c0-0.2,0.1-0.4,0.1-0.6c0-0.2,0-0.4,0-0.8v-5.8
		L118.6,108.5L118.6,108.5z"/>
	<path class="st0" d="M120.4,107c0.5,0,0.9-0.2,1.3-0.5c0.4-0.4,0.5-0.8,0.5-1.3c0-0.5-0.2-0.9-0.5-1.3c-0.4-0.4-0.8-0.5-1.3-0.5
		c-0.5,0-0.9,0.2-1.3,0.5c-0.4,0.4-0.5,0.8-0.5,1.3c0,0.5,0.2,0.9,0.5,1.3C119.4,106.8,119.9,107,120.4,107"/>
</g>
</svg>
